<?xml version="1.0" encoding="UTF-8" standalone="no"?>
<!-- Created with Inkscape (http://www.inkscape.org/) -->

<svg
   width="26.458332mm"
   height="26.458332mm"
   viewBox="0 0 26.458332 26.458332"
   version="1.1"
   id="svg1"
   inkscape:version="1.3 (0e150ed6c4, 2023-07-21)"
   sodipodi:docname="black-mana-pip.svg"
   xmlns:inkscape="http://www.inkscape.org/namespaces/inkscape"
   xmlns:sodipodi="http://sodipodi.sourceforge.net/DTD/sodipodi-0.dtd"
   xmlns="http://www.w3.org/2000/svg"
   xmlns:svg="http://www.w3.org/2000/svg">
  <sodipodi:namedview
     id="namedview1"
     pagecolor="#ffffff"
     bordercolor="#000000"
     borderopacity="0.25"
     inkscape:showpageshadow="2"
     inkscape:pageopacity="0.0"
     inkscape:pagecheckerboard="0"
     inkscape:deskcolor="#d1d1d1"
     inkscape:document-units="mm"
     inkscape:zoom="10.918294"
     inkscape:cx="23.263708"
     inkscape:cy="32.697416"
     inkscape:window-width="1920"
     inkscape:window-height="991"
     inkscape:window-x="-9"
     inkscape:window-y="-9"
     inkscape:window-maximized="1"
     inkscape:current-layer="layer1" />
  <defs
     id="defs1" />
  <g
     inkscape:label="Layer 1"
     inkscape:groupmode="layer"
     id="layer1"
     transform="translate(-4.497918,-0.52916666)">
    <circle
       fill="#bab1ab"
       cx="-265"
       cy="49.998001"
       r="50"
       id="circle25"
       transform="matrix(0.26458333,0,0,0.26458333,87.841668,0.52969554)"
       style="fill:#b3b3b3;fill-opacity:1" />
    <path
       fill="#0d0f0f"
       d="m 28.494303,13.393472 c 0,1.459971 -0.531283,2.455598 -1.592791,2.986353 -0.310092,0.155045 -1.28323,0.36486 -2.920207,0.630502 -1.061508,0.17727 -1.592262,0.586581 -1.592262,1.227402 v 2.687637 c 0,0.111654 0.03307,0.453761 0.09922,1.028965 l 0.09975,1.062037 c 0,0.332052 -0.07752,0.874713 -0.232568,1.626129 -0.420159,0.08837 -0.906992,0.18759 -1.459971,0.299509 -0.177271,-0.664369 -0.265642,-1.1176 -0.265642,-1.361546 0,-0.110067 0.02778,-0.27649 0.08282,-0.497946 0.05477,-0.220662 0.08361,-0.386556 0.08361,-0.49821 0,-0.153459 -0.137583,-0.585523 -0.412485,-1.293019 h -0.514615 c -0.06826,0.110596 -0.09102,0.254264 -0.06879,0.431006 0.08837,0.376238 0.121443,0.696648 0.09975,0.96229 -0.376237,0.265641 -0.896143,0.619389 -1.559718,1.061773 -0.155046,-0.04392 -0.209815,-0.06615 -0.166423,-0.06615 v -2.35585 c -0.04339,-0.110067 -0.154517,-0.153723 -0.331788,-0.132821 H 17.44426 l -0.397933,3.118644 c -0.310621,0.02222 -0.6858,0.02222 -1.128184,0 -0.155575,-0.729721 -0.431535,-1.81319 -0.829468,-3.251465 h -0.265642 c -0.243946,0.774965 -0.376238,1.195652 -0.398463,1.261798 0,0.08837 0.02752,0.259556 0.08308,0.513821 0.05477,0.254529 0.08281,0.425714 0.08281,0.514085 0,0.06615 -0.02222,0.23204 -0.06615,0.497681 l -0.09975,0.796396 c -0.04445,0.04392 -0.09975,0.06615 -0.165893,0.06615 -0.663575,0 -1.106488,-0.165894 -1.32715,-0.497152 C 12.71032,23.879174 12.62142,23.414566 12.66587,22.816872 l 0.265642,-3.981185 c 0,-0.06668 0.0217,-0.155046 0.06615,-0.265642 0.04339,-0.110596 0.06615,-0.188118 0.06615,-0.232039 0,-0.177271 -0.188118,-0.531284 -0.563827,-1.062038 -0.06562,-0.0217 -0.409839,-0.09975 -1.028435,-0.232569 -0.376767,-0.08837 -1.117865,-0.242887 -2.2230293,-0.464608 -1.5269104,-0.286808 -2.2897041,-1.514739 -2.2897041,-3.683 0,-3.2297685 1.3276792,-5.917406 3.9822434,-8.0631768 0.109538,0.5974292 0.298186,1.3932959 0.563298,2.3889229 0.199496,0.044979 0.631031,0.1441979 1.294077,0.2987146 0.13335,0.04445 0.807773,0.2878667 2.024592,0.73025 -0.620183,-0.3762375 -1.426898,-0.9839854 -2.422525,-1.8250958 -0.376238,-0.4423833 -0.564356,-1.1829521 -0.564356,-2.2225 0,-0.2434167 0.420687,-0.5312833 1.261533,-0.8636 0.751417,-0.3095625 1.316302,-0.485775 1.692275,-0.5307541 1.194329,-0.1539875 2.112433,-0.2325688 2.754312,-0.2325688 2.764632,0 4.998244,0.7085542 6.701367,2.1243396 -0.55245,0.6418791 -1.503892,1.3266208 -2.853002,2.0566062 0.531283,0.022225 1.305454,-0.1870604 2.322777,-0.6305021 1.017058,-0.4418541 1.448594,-0.663575 1.294077,-0.663575 0.176742,0 0.531283,0.3545417 1.062038,1.0620375 0.397933,0.5307542 0.718343,1.0072688 0.962289,1.4263687 0.707496,1.2615334 1.182952,2.6214921 1.426898,4.0814621 0,0.509588 0.01085,0.874448 0.03307,1.095111 v 0.265641 z m -12.708202,0.59743 c 0,-0.950913 -0.414866,-1.852613 -1.244335,-2.704836 -0.829998,-0.851694 -1.720321,-1.276879 -2.671233,-1.276879 -0.840846,0 -1.581415,0.356658 -2.2230296,1.068652 -0.6418792,0.712523 -0.9622896,1.503363 -0.9622896,2.371461 0,0.756443 0.3648604,1.246981 1.0951104,1.469231 0.4646088,0.133879 1.1162768,0.211931 1.9573878,0.233627 h 1.825096 c 1.481137,0.02223 2.223293,-0.364861 2.223293,-1.161256 z m 3.616325,4.115064 V 17.077002 C 19.24791,16.789664 19.092864,16.49095 18.938347,16.180858 18.805526,15.737945 18.56211,15.11882 18.208097,14.32216 l -0.36539,3.882496 c 0,0.310091 -0.06615,0.464608 -0.198966,0.464608 -0.08837,0 -0.154517,-0.0217 -0.198967,-0.06562 -0.155046,-2.345002 -0.232569,-3.362589 -0.232569,-3.053556 v -1.160727 c -0.04445,-0.0672 -0.09922,-0.100277 -0.165364,-0.100277 -0.752475,0.775229 -1.128184,2.024592 -1.128184,3.749675 0,0.951442 0.08731,1.537494 0.265113,1.75895 0.177271,-0.04392 0.376237,-0.121444 0.597429,-0.23204 0.08837,-0.04445 0.342636,-0.06668 0.763852,-0.06668 0.4191,0 0.928688,0.132821 1.525588,0.397934 0.221191,0 0.331787,-0.5969 0.331787,-1.790965 z m 7.49935,-4.623594 c 0,-0.890852 -0.331787,-1.686718 -0.995362,-2.387864 -0.664105,-0.700617 -1.427427,-1.051719 -2.289175,-1.051719 -0.929217,0 -1.797844,0.425186 -2.605088,1.276879 -0.807773,0.851694 -1.211262,1.742017 -1.211262,2.671234 0,0.7747 0.375708,1.161256 1.128183,1.161256 h 3.815821 c 1.437481,-0.0217 2.156883,-0.578379 2.156883,-1.669786 z"
       id="path26"
       style="stroke-width:0.264583;fill:#000000;fill-opacity:1" />
  </g>
</svg>
