<?xml version="1.0" encoding="UTF-8" standalone="no"?>
<!-- Created with Inkscape (http://www.inkscape.org/) -->

<svg
   width="26.458332mm"
   height="26.458332mm"
   viewBox="0 0 26.458332 26.458332"
   version="1.1"
   id="svg1"
   inkscape:version="1.3 (0e150ed6c4, 2023-07-21)"
   sodipodi:docname="generic-Y-pip.svg"
   xmlns:inkscape="http://www.inkscape.org/namespaces/inkscape"
   xmlns:sodipodi="http://sodipodi.sourceforge.net/DTD/sodipodi-0.dtd"
   xmlns="http://www.w3.org/2000/svg"
   xmlns:svg="http://www.w3.org/2000/svg">
  <sodipodi:namedview
     id="namedview1"
     pagecolor="#ffffff"
     bordercolor="#000000"
     borderopacity="0.25"
     inkscape:showpageshadow="2"
     inkscape:pageopacity="0.0"
     inkscape:pagecheckerboard="0"
     inkscape:deskcolor="#d1d1d1"
     inkscape:document-units="mm"
     inkscape:zoom="0.68239338"
     inkscape:cx="345.84157"
     inkscape:cy="190.50595"
     inkscape:window-width="1920"
     inkscape:window-height="991"
     inkscape:window-x="-9"
     inkscape:window-y="-9"
     inkscape:window-maximized="1"
     inkscape:current-layer="layer1" />
  <defs
     id="defs1" />
  <g
     inkscape:label="Layer 1"
     inkscape:groupmode="layer"
     id="layer1"
     transform="translate(-13.493752,-98.160417)">
    <g
       id="g140"
       transform="matrix(0.26458333,0,0,0.26458333,207.9625,98.160417)">&#10;	<g
   id="g138">&#10;		<path
   fill="#C9C4BE"
   d="M -635,49.998 C -635,77.611 -657.383,100 -685,100 -712.613,100 -735,77.613 -735,49.999 -735,22.384 -712.613,0 -685,0 c 27.617,0 50,22.384 50,49.998 z"
   id="path138"
   style="fill:#c4c4c3;fill-opacity:1" />
&#10;	</g>
&#10;	<g
   id="g139">&#10;		<path
   fill="#0d0f0f"
   d="m -680.09,65.695 c 0,3.988 0.654,6.793 1.963,8.414 1.309,1.621 3.521,2.431 6.639,2.431 l 0.748,-0.095 V 80 h -28.796 v -3.553 h 0.934 c 3.117,0.063 5.33,-0.717 6.639,-2.338 1.309,-1.619 1.963,-4.394 1.963,-8.319 V 53.26 l -18.325,-26.833 c -0.748,-0.997 -1.402,-1.87 -1.964,-2.618 -0.561,-0.748 -1.091,-1.339 -1.589,-1.776 -0.811,-0.686 -1.668,-1.169 -2.571,-1.45 -0.904,-0.281 -2.073,-0.514 -3.506,-0.701 V 16.235 H -690 v 3.553 c -2.805,0.25 -4.708,0.64 -5.703,1.168 -0.998,0.53 -1.496,1.512 -1.496,2.945 0,0.624 0.124,1.248 0.373,1.87 0.249,0.624 0.592,1.278 1.029,1.963 l 14.212,20.569 10.378,-15.24 c 0.996,-1.371 1.713,-2.555 2.15,-3.553 0.435,-0.996 0.715,-1.931 0.841,-2.804 0,-0.125 0,-0.249 0,-0.374 0,-0.125 0,-0.249 0,-0.375 0,-1.931 -0.53,-3.366 -1.589,-4.3 -1.06,-0.936 -2.899,-1.527 -5.516,-1.776 v -3.647 h 23.093 v 3.553 c -0.748,0.125 -1.435,0.296 -2.056,0.514 -0.624,0.219 -1.216,0.515 -1.777,0.889 -0.998,0.561 -2.026,1.449 -3.085,2.665 -1.061,1.215 -2.337,2.915 -3.833,5.096 l -17.11,24.309 v 12.436 h -10e-4 z"
   id="path139"
   style="fill:#000000;fill-opacity:1" />
&#10;	</g>
&#10;</g>
  </g>
</svg>
