<?xml version="1.0" encoding="UTF-8" standalone="no"?>
<!-- Created with Inkscape (http://www.inkscape.org/) -->

<svg
   width="26.458332mm"
   height="26.458332mm"
   viewBox="0 0 26.458332 26.458332"
   version="1.1"
   id="svg1"
   inkscape:version="1.3 (0e150ed6c4, 2023-07-21)"
   sodipodi:docname="generic-9-pip.svg"
   xmlns:inkscape="http://www.inkscape.org/namespaces/inkscape"
   xmlns:sodipodi="http://sodipodi.sourceforge.net/DTD/sodipodi-0.dtd"
   xmlns="http://www.w3.org/2000/svg"
   xmlns:svg="http://www.w3.org/2000/svg">
  <sodipodi:namedview
     id="namedview1"
     pagecolor="#ffffff"
     bordercolor="#000000"
     borderopacity="0.25"
     inkscape:showpageshadow="2"
     inkscape:pageopacity="0.0"
     inkscape:pagecheckerboard="0"
     inkscape:deskcolor="#d1d1d1"
     inkscape:document-units="mm"
     inkscape:zoom="0.68239338"
     inkscape:cx="199.29853"
     inkscape:cy="221.27999"
     inkscape:window-width="1920"
     inkscape:window-height="991"
     inkscape:window-x="-9"
     inkscape:window-y="-9"
     inkscape:window-maximized="1"
     inkscape:current-layer="layer1" />
  <defs
     id="defs1" />
  <g
     inkscape:label="Layer 1"
     inkscape:groupmode="layer"
     id="layer1"
     transform="translate(-52.3875,-89.958332)">
    <g
       id="g10"
       style="fill:#c5c5c5;fill-opacity:1"
       transform="matrix(0.26458333,0,0,0.26458333,52.3875,145.52136)">&#10;	<circle
   fill="#CAC5C0"
   cx="50"
   cy="-160.002"
   r="50"
   id="circle10"
   style="fill:#c5c5c5;fill-opacity:1" />
&#10;</g>
    <path
       fill="#0d0f0f"
       d="m 69.162612,104.64959 c -1.566862,1.47293 -3.148012,2.21006 -4.738687,2.21006 -1.734344,0 -3.124465,-0.68897 -4.169304,-2.06745 -0.974725,-1.25889 -1.461294,-2.77998 -1.461294,-4.56169 0,-1.924045 0.569383,-3.64516 1.709473,-5.166249 1.236133,-1.640152 2.792677,-2.459567 4.669367,-2.459567 2.281237,0 4.098131,0.986367 5.451739,2.958306 1.212321,1.734079 1.816894,3.788569 1.816894,6.16532 0,3.37238 -1.1176,6.21718 -3.348302,8.53467 -2.233348,2.31563 -5.025231,3.48562 -8.374856,3.50863 v -1.10463 c 1.021027,-0.0466 1.839647,-0.16563 2.459831,-0.3556 3.418946,-1.04537 5.415756,-3.5986 5.985139,-7.6618 z m 0.215107,-2.13837 c 0.02275,-0.45138 0.03413,-0.87894 0.03413,-1.28217 0,-1.662904 -0.284163,-3.183994 -0.854604,-4.561414 -0.760677,-1.829859 -1.852084,-2.744788 -3.277129,-2.744788 -1.237192,0 -2.14974,0.631031 -2.745053,1.88939 -0.475456,0.97446 -0.711993,2.150004 -0.711993,3.527954 0,1.472668 0.225425,2.731558 0.677068,3.776928 0.617009,1.42531 1.567921,2.13863 2.851415,2.13863 1.566333,0 2.907771,-0.91493 4.026166,-2.74453 z"
       id="path10"
       style="stroke-width:0.264583" />
  </g>
</svg>
