<?xml version="1.0" encoding="UTF-8" standalone="no"?>
<!-- Created with Inkscape (http://www.inkscape.org/) -->

<svg
   width="26.458332mm"
   height="26.458332mm"
   viewBox="0 0 26.458332 26.458332"
   version="1.1"
   id="svg1"
   inkscape:version="1.3 (0e150ed6c4, 2023-07-21)"
   sodipodi:docname="green-mana-pip.svg"
   xmlns:inkscape="http://www.inkscape.org/namespaces/inkscape"
   xmlns:sodipodi="http://sodipodi.sourceforge.net/DTD/sodipodi-0.dtd"
   xmlns="http://www.w3.org/2000/svg"
   xmlns:svg="http://www.w3.org/2000/svg">
  <sodipodi:namedview
     id="namedview1"
     pagecolor="#ffffff"
     bordercolor="#000000"
     borderopacity="0.25"
     inkscape:showpageshadow="2"
     inkscape:pageopacity="0.0"
     inkscape:pagecheckerboard="0"
     inkscape:deskcolor="#d1d1d1"
     inkscape:document-units="mm"
     inkscape:zoom="5.459147"
     inkscape:cx="93.970724"
     inkscape:cy="44.32927"
     inkscape:window-width="1920"
     inkscape:window-height="991"
     inkscape:window-x="-9"
     inkscape:window-y="-9"
     inkscape:window-maximized="1"
     inkscape:current-layer="layer1" />
  <defs
     id="defs1" />
  <g
     inkscape:label="Layer 1"
     inkscape:groupmode="layer"
     id="layer1"
     transform="translate(-81.49167,-84.93125)">
    <circle
       style="fill:#ababab;fill-opacity:1;stroke:none;stroke-width:0.262074;stroke-linejoin:round"
       id="path1"
       cx="94.720673"
       cy="98.160248"
       r="13.229" />
    <path
       fill="#0d0f0f"
       d="m 106.29953,99.807448 c 0,0.441322 -0.17065,0.837142 -0.51223,1.190092 -0.34105,0.35243 -0.7329,0.52864 -1.17369,0.52864 -0.70432,0 -1.22317,-0.33073 -1.55284,-0.99166 l -1.55337,-0.0661 c -0.33126,0 -0.98134,0.14367 -1.950244,0.42994 -1.03558,0.28628 -1.630892,0.51779 -1.78488,0.69401 -0.242358,0.26405 -0.440266,0.88159 -0.594783,1.85102 -0.132821,0.79322 -0.197908,1.37716 -0.197908,1.75181 0,0.59425 0.09313,1.03002 0.280723,1.30545 0.187589,0.27543 0.573087,0.50694 1.156493,0.694 0.583407,0.18706 0.942182,0.2921 1.074473,0.31406 0.08784,0 0.230982,-0.0108 0.429948,-0.0331 h 0.396348 c 0.28575,0 0.5834,0.045 0.89244,0.13229 0.44079,0.1323 0.62838,0.30851 0.56224,0.52917 -0.30904,-0.0439 -0.84852,0.0222 -1.61952,0.19844 l 0.92499,0.46249 c 0,0.26458 -0.37465,0.39635 -1.123425,0.39635 -0.198967,0 -0.468577,-0.0439 -0.810419,-0.13177 -0.341577,-0.0889 -0.567531,-0.13229 -0.677068,-0.13229 H 98.03686 c -0.0217,0.22013 -0.08837,0.55033 -0.198438,0.99113 -0.375179,-0.0222 -0.814916,-0.24289 -1.321858,-0.66093 -0.507471,-0.41804 -0.826294,-0.62786 -0.958056,-0.62786 -0.132821,0 -0.320411,0.20982 -0.56224,0.62786 -0.242887,0.41804 -0.363802,0.70485 -0.363802,0.85937 -0.286279,-0.15452 -0.528108,-0.44133 -0.727604,-0.85937 -0.08784,-0.28681 -0.187061,-0.57309 -0.296598,-0.85937 -0.220133,0.0222 -0.628385,0.48525 -1.22264,1.38854 h -0.165893 c -0.04392,-0.0667 -0.210344,-0.52917 -0.495565,-1.38854 -0.683154,-0.22013 -1.321858,-0.3302 -1.917171,-0.3302 -0.286279,0 -0.727075,0.0662 -1.321858,0.19791 l -0.924983,-0.0656 c 0.131762,-0.1323 0.51726,-0.3855 1.156493,-0.76015 0.748771,-0.4408 1.321859,-0.66146 1.718734,-0.66146 0.06509,0 0.152929,0.0114 0.264583,0.0331 0.109537,0.0228 0.198437,0.0331 0.264583,0.0331 0.152929,0 0.401638,-0.0826 0.743215,-0.24818 0.341577,-0.16484 0.539485,-0.3138 0.594254,-0.44556 0.05583,-0.13335 0.08361,-0.4744 0.08361,-1.02526 0,-1.25571 -0.330729,-2.19208 -0.992187,-2.80908 -0.573617,-0.55087 -1.520296,-0.94721 -2.842683,-1.1901 -0.352425,1.25571 -1.344084,1.88463 -2.973917,1.88463 -0.529167,0 -1.057804,-0.31935 -1.586442,-0.95859 -0.528108,-0.63923 -0.792691,-1.22317 -0.792691,-1.7518 0,-0.81545 0.340518,-1.487227 1.023673,-2.016923 -0.550334,-0.572029 -0.825765,-1.155964 -0.825765,-1.750748 0,-0.551391 0.170127,-1.035579 0.512233,-1.455208 0.341577,-0.417512 0.787665,-0.6604 1.338527,-0.727075 -0.04392,-0.704321 0.187061,-1.189567 0.694002,-1.45415 -0.242358,-0.241829 -0.363272,-0.671248 -0.363272,-1.288256 0,-0.727075 0.242358,-1.333235 0.727075,-1.817952 0.484187,-0.484717 1.090347,-0.727604 1.817422,-0.727604 0.79375,0 1.443832,0.276489 1.950244,0.826823 0.639233,-2.181225 2.01639,-3.272102 4.13094,-3.272102 1.101725,0 2.071158,0.440795 2.908829,1.322387 0.308504,0.3302 0.462491,0.506942 0.462491,0.528108 -0.264583,0 -0.131762,-0.04974 0.396875,-0.148431 0.528109,-0.09922 0.913607,-0.14896 1.157023,-0.14896 0.858838,0 1.618987,0.319352 2.280447,0.958585 0.57255,0.573088 0.96943,1.299633 1.19009,2.181225 0.15346,0.02222 0.39635,0.08784 0.72708,0.197908 0.48418,0.243417 0.72707,0.66093 0.72707,1.256242 0,0.110596 -0.0889,0.319881 -0.26458,0.627856 1.4097,0.793221 2.11508,1.894946 2.11508,3.305175 0,0.396346 -0.15399,0.948267 -0.46249,1.652852 0.57308,0.329936 0.85883,0.815182 0.85883,1.453886 z M 92.682222,101.2616 v -0.42942 c 0,-0.50641 -0.24765,-0.969434 -0.743214,-1.388005 -0.496094,-0.418571 -0.997479,-0.627856 -1.503892,-0.627856 -0.617537,0 -1.189567,0.143139 -1.718733,0.428889 1.167606,-0.06562 2.489993,0.60669 3.965839,2.016392 z m -0.594254,-4.098133 c -0.330729,-0.37518 -0.617008,-0.760678 -0.859896,-1.157023 -0.925512,0.242358 -1.388004,0.517789 -1.388004,0.825764 0.264583,-0.02117 0.650081,0.02778 1.156494,0.149225 0.506412,0.121444 0.870744,0.182034 1.091406,0.182034 z m 2.01639,-1.024732 v -1.45415 c -0.529167,-0.08784 -0.849577,-0.132291 -0.958586,-0.132291 v 0.495564 z m 4.296304,-0.925512 c -0.264584,-0.110067 -0.760677,-0.330729 -1.487223,-0.660929 v 2.842154 c 1.03505,-0.595313 1.530614,-1.322388 1.487223,-2.181225 z m 1.816898,3.900223 -0.72655,-0.89244 c -0.440267,0.308769 -0.886884,0.622829 -1.339057,0.942181 -0.452172,0.319352 -0.842962,0.678127 -1.172633,1.074213 0.991394,-0.5297 2.071423,-0.903292 3.23824,-1.123954 z"
       id="path24"
       style="stroke-width:0.264583;fill:#000000;fill-opacity:1" />
  </g>
</svg>
