<?xml version="1.0" encoding="UTF-8" standalone="no"?>
<!-- Created with Inkscape (http://www.inkscape.org/) -->

<svg
   width="210mm"
   height="297mm"
   viewBox="0 0 210 297"
   version="1.1"
   id="svg1"
   inkscape:version="1.3 (0e150ed6c4, 2023-07-21)"
   sodipodi:docname="phyrexian-symbols.svg"
   xmlns:inkscape="http://www.inkscape.org/namespaces/inkscape"
   xmlns:sodipodi="http://sodipodi.sourceforge.net/DTD/sodipodi-0.dtd"
   xmlns:xlink="http://www.w3.org/1999/xlink"
   xmlns="http://www.w3.org/2000/svg"
   xmlns:svg="http://www.w3.org/2000/svg">
  <sodipodi:namedview
     id="namedview1"
     pagecolor="#ffffff"
     bordercolor="#000000"
     borderopacity="0.25"
     inkscape:showpageshadow="2"
     inkscape:pageopacity="0.0"
     inkscape:pagecheckerboard="0"
     inkscape:deskcolor="#d1d1d1"
     inkscape:document-units="mm"
     inkscape:zoom="2.7295735"
     inkscape:cx="450.98621"
     inkscape:cy="451.71892"
     inkscape:window-width="1920"
     inkscape:window-height="991"
     inkscape:window-x="-9"
     inkscape:window-y="-9"
     inkscape:window-maximized="1"
     inkscape:current-layer="layer1" />
  <defs
     id="defs1">
    <linearGradient
       id="linearGradient26"
       inkscape:collect="always">
      <stop
         style="stop-color:#121212;stop-opacity:0;"
         offset="0.15463917"
         id="stop24" />
      <stop
         style="stop-color:#121212;stop-opacity:1;"
         offset="0.5"
         id="stop25" />
      <stop
         style="stop-color:#121212;stop-opacity:0;"
         offset="0.8917526"
         id="stop26" />
    </linearGradient>
    <linearGradient
       id="linearGradient21"
       inkscape:collect="always">
      <stop
         style="stop-color:#0d0f0f;stop-opacity:1;"
         offset="0.17525774"
         id="stop21" />
      <stop
         style="stop-color:#0e0e0e;stop-opacity:0;"
         offset="0.52835053"
         id="stop23" />
      <stop
         style="stop-color:#0d0f0f;stop-opacity:1;"
         offset="0.77577317"
         id="stop22" />
    </linearGradient>
    <linearGradient
       id="linearGradient18"
       inkscape:collect="always">
      <stop
         style="stop-color:#0e0e0e;stop-opacity:1;"
         offset="0.17525773"
         id="stop18" />
      <stop
         style="stop-color:#0e0e0e;stop-opacity:0;"
         offset="0.5"
         id="stop20" />
      <stop
         style="stop-color:#0e0e0e;stop-opacity:1;"
         offset="0.78865981"
         id="stop19" />
    </linearGradient>
    <linearGradient
       id="linearGradient16"
       inkscape:collect="always">
      <stop
         style="stop-color:#121212;stop-opacity:0;"
         offset="0"
         id="stop14" />
      <stop
         style="stop-color:#121212;stop-opacity:1;"
         offset="0.48969072"
         id="stop15" />
      <stop
         style="stop-color:#121212;stop-opacity:0;"
         offset="1"
         id="stop16" />
    </linearGradient>
    <linearGradient
       id="linearGradient11"
       inkscape:collect="always">
      <stop
         style="stop-color:#0e0e0e;stop-opacity:1;"
         offset="0.20876287"
         id="stop11" />
      <stop
         style="stop-color:#0d0f0f;stop-opacity:0;"
         offset="0.5"
         id="stop13" />
      <stop
         style="stop-color:#0e0e0e;stop-opacity:1;"
         offset="0.7525773"
         id="stop12" />
    </linearGradient>
    <linearGradient
       id="linearGradient8"
       inkscape:collect="always">
      <stop
         style="stop-color:#0e0e0e;stop-opacity:1;"
         offset="0.13917525"
         id="stop8" />
      <stop
         style="stop-color:#0e0e0e;stop-opacity:0;"
         offset="0.44845361"
         id="stop10" />
      <stop
         style="stop-color:#0e0e0e;stop-opacity:1;"
         offset="0.73195875"
         id="stop9" />
    </linearGradient>
    <linearGradient
       id="linearGradient4"
       inkscape:collect="always">
      <stop
         style="stop-color:#121212;stop-opacity:0;"
         offset="0"
         id="stop5" />
      <stop
         style="stop-color:#121212;stop-opacity:1;"
         offset="0.5"
         id="stop7" />
      <stop
         style="stop-color:#121212;stop-opacity:0;"
         offset="1"
         id="stop6" />
    </linearGradient>
    <linearGradient
       id="linearGradient1"
       inkscape:collect="always">
      <stop
         style="stop-color:#0e0e0e;stop-opacity:1;"
         offset="0.19587629"
         id="stop1" />
      <stop
         style="stop-color:#0e0e0e;stop-opacity:0;"
         offset="0.48711345"
         id="stop4" />
      <stop
         style="stop-color:#000000;stop-opacity:1;"
         offset="0.80670106"
         id="stop2" />
    </linearGradient>
    <linearGradient
       inkscape:collect="always"
       xlink:href="#linearGradient1"
       id="linearGradient2"
       x1="92.355739"
       y1="107.41404"
       x2="117.59223"
       y2="107.41404"
       gradientUnits="userSpaceOnUse" />
    <linearGradient
       inkscape:collect="always"
       xlink:href="#linearGradient4"
       id="linearGradient6"
       x1="97.337413"
       y1="107.39807"
       x2="112.01841"
       y2="107.39807"
       gradientUnits="userSpaceOnUse"
       gradientTransform="translate(-0.08030119)" />
    <linearGradient
       inkscape:collect="always"
       xlink:href="#linearGradient4"
       id="linearGradient7"
       gradientUnits="userSpaceOnUse"
       gradientTransform="translate(53.218769,0.13294584)"
       x1="97.337413"
       y1="107.39807"
       x2="112.01841"
       y2="107.39807" />
    <linearGradient
       inkscape:collect="always"
       xlink:href="#linearGradient8"
       id="linearGradient9"
       x1="149.15596"
       y1="107.50553"
       x2="169.5664"
       y2="107.50553"
       gradientUnits="userSpaceOnUse" />
    <linearGradient
       inkscape:collect="always"
       xlink:href="#linearGradient16"
       id="linearGradient10"
       gradientUnits="userSpaceOnUse"
       gradientTransform="translate(-27.877169,24.685438)"
       x1="97.337413"
       y1="107.39807"
       x2="112.01841"
       y2="107.39807" />
    <linearGradient
       inkscape:collect="always"
       xlink:href="#linearGradient11"
       id="linearGradient12"
       x1="66.449905"
       y1="132.09111"
       x2="87.9854"
       y2="132.09111"
       gradientUnits="userSpaceOnUse" />
    <linearGradient
       inkscape:collect="always"
       xlink:href="#linearGradient4"
       id="linearGradient17"
       gradientUnits="userSpaceOnUse"
       gradientTransform="translate(27.620427,28.80656)"
       x1="97.337413"
       y1="107.39807"
       x2="112.01841"
       y2="107.39807" />
    <linearGradient
       inkscape:collect="always"
       xlink:href="#linearGradient18"
       id="linearGradient19"
       x1="121.05575"
       y1="136.43312"
       x2="144.15758"
       y2="136.43312"
       gradientUnits="userSpaceOnUse" />
    <linearGradient
       inkscape:collect="always"
       xlink:href="#linearGradient26"
       id="linearGradient20"
       gradientUnits="userSpaceOnUse"
       gradientTransform="translate(-2.4140333,48.4821)"
       x1="97.337413"
       y1="107.39807"
       x2="112.01841"
       y2="107.39807" />
    <linearGradient
       inkscape:collect="always"
       xlink:href="#linearGradient21"
       id="linearGradient22"
       x1="95.924868"
       y1="155.81179"
       x2="109.18314"
       y2="155.81179"
       gradientUnits="userSpaceOnUse" />
  </defs>
  <g
     inkscape:label="Layer 1"
     inkscape:groupmode="layer"
     id="layer1">
    <g
       id="g27"
       transform="matrix(0.26458333,0,0,0.26458333,230.65107,94.185852)"
       style="fill:#e8e8e8;fill-opacity:1">&#10;	<circle
   fill="#f8f6d8"
   cx="-475"
   cy="50"
   r="50"
   id="circle27"
   style="fill:#e8e8e8;fill-opacity:1" />
&#10;</g>
    <path
       fill="#0d0f0f"
       d="m 117.59223,109.28403 c -1.73593,-0.97869 -2.84903,-1.4687 -3.33825,-1.4687 -0.3556,0 -0.63367,0.27305 -0.83449,0.81809 -0.20056,0.54584 -0.60061,0.81757 -1.20147,0.81757 -0.24501,0 -0.7456,-0.0889 -1.50231,-0.2667 -0.4228,0.64558 -0.63447,1.05727 -0.63447,1.23507 0,0.245 0.1823,0.5334 0.5461,0.8681 0.3638,0.3339 0.67072,0.50033 0.92128,0.50033 0.15928,0 0.37465,-0.0331 0.64796,-0.10028 0.27279,-0.0661 0.45535,-0.0998 0.5461,-0.0998 0.27332,0 0.40931,0.50086 0.40931,1.5023 0,0.957 -0.22225,2.4257 -0.66754,4.40638 -0.57891,-2.27013 -1.19062,-3.40546 -1.83568,-3.40546 -0.0894,0 -0.27278,0.0667 -0.55086,0.20109 -0.27861,0.13282 -0.48419,0.19949 -0.61754,0.19949 -0.64505,0 -1.2237,-0.58922 -1.73593,-1.76953 -1.02367,0.1561 -1.53591,0.67918 -1.53591,1.57004 0,0.44555 0.20559,0.80089 0.61807,1.06759 0.4109,0.2667 0.61754,0.45694 0.61754,0.56753 0,0.6014 -0.87948,1.52506 -2.63763,2.77098 -0.93425,0.66755 -1.58036,1.1348 -1.93569,1.4015 0.31062,-0.40005 0.6223,-0.9226 0.93477,-1.56845 0.3556,-0.73422 0.53393,-1.30175 0.53393,-1.70286 0,-0.22225 -0.25585,-0.53446 -0.76782,-0.93477 -0.51224,-0.40005 -0.7673,-0.82312 -0.7673,-1.26815 0,-0.37782 0.13283,-0.84481 0.40005,-1.40203 -0.28945,-0.3339 -0.63367,-0.50138 -1.03452,-0.50138 -0.89032,0 -1.33482,0.28998 -1.33482,0.86783 0,-0.40058 0,-0.10027 0,0.90117 0.0217,0.73449 -0.53446,1.10173 -1.669781,1.10173 -0.86757,0 -2.32596,-0.20082 -4.37277,-0.60087 2.31457,-0.57891 3.4716,-1.24645 3.4716,-2.0029 0,0.0889 -0.0444,-0.1778 -0.13335,-0.80115 -0.0894,-0.68898 0.40057,-1.3126 1.4687,-1.86876 -0.20056,-1.02314 -0.73369,-1.53617 -1.60258,-1.53617 -0.13335,0 -0.37889,0.23389 -0.73422,0.70035 -0.35613,0.46858 -0.68977,0.70168 -1.00092,0.70168 -0.53446,0 -1.22476,-0.57838 -2.06957,-1.73646 -0.40111,-0.57785 -1.01336,-1.4351 -1.83648,-2.57043 0.51171,0.26776 1.02368,0.53446 1.53591,0.80195 0.66754,0.31115 1.20147,0.46726 1.60258,0.46726 0.31168,0 0.61754,-0.27279 0.91784,-0.81809 0.3003,-0.54531 0.69559,-0.8181 1.18507,-0.8181 0.0672,0 0.51223,0.13335 1.33535,0.40111 0.42228,-0.64532 0.63447,-1.12395 0.63447,-1.43563 0,-0.26723 -0.16166,-0.57308 -0.48418,-0.91836 -0.32306,-0.34476 -0.61754,-0.51727 -0.88477,-0.51727 -0.11165,0 -0.28363,0.0331 -0.51779,0.10028 -0.2331,0.0667 -0.40561,0.10028 -0.51673,0.10028 -0.40111,0 -0.6014,-0.50086 -0.6014,-1.50231 0,-0.26722 0.25638,-1.791218 0.76835,-4.573318 -0.0228,0.33338 0.12197,0.957 0.43365,1.86902 0.37836,1.113098 0.82312,1.669248 1.33588,1.669248 0.0884,0 0.2667,-0.0667 0.53393,-0.20055 0.2667,-0.13335 0.478101,-0.1995 0.633941,-0.1995 0.51171,0 0.93425,0.28946 1.26868,0.86704 l 0.50086,0.90118 c 0.46725,0 0.85672,-0.16643 1.16787,-0.50033 0.31168,-0.33391 0.46778,-0.73475 0.46778,-1.202 0,-0.489478 -0.20558,-0.862548 -0.61754,-1.118398 -0.41248,-0.25585 -0.61806,-0.45058 -0.61806,-0.58393 0,-0.46779 0.73475,-1.2573 2.20345,-2.37014 1.17925,-0.88979 1.94707,-1.41288 2.30372,-1.56898 -0.95699,1.2909 -1.43562,2.23599 -1.43562,2.83739 0,0.31168 0.18864,0.64585 0.56753,1.00145 0.46725,0.4228 0.73422,0.72337 0.80089,0.90117 0.22225,0.51276 0.20003,1.213378 -0.0667,2.103168 0.60086,0.42334 1.05674,0.63395 1.36895,0.63395 0.64452,0 0.96785,-0.33444 0.96785,-1.00145 0,-0.0667 -0.0278,-0.27808 -0.0831,-0.63394 -0.0564,-0.3556 -0.0722,-0.55616 -0.0505,-0.600868 0.0889,-0.31168 0.70115,-0.46779 1.83594,-0.46779 0.712,0 2.19155,0.20056 4.43998,0.601398 -0.49001,0.13335 -1.22423,0.33338 -2.20292,0.60061 -0.89033,0.26722 -1.33588,0.56753 -1.33588,0.90117 0,0.1561 0.0553,0.4228 0.16695,0.80089 0.11112,0.37888 0.16748,0.65617 0.16748,0.83503 0,0.31115 -0.20056,0.6006 -0.60087,0.86703 l -1.13533,0.80196 c 0.26723,0.49001 0.44503,0.77919 0.53446,0.86757 0.22225,0.2667 0.52255,0.40057 0.90117,0.40057 0.26723,0 0.51171,-0.23362 0.73422,-0.70061 0.22225,-0.46779 0.57891,-0.70115 1.06812,-0.70115 0.60061,0 1.28006,0.55669 2.0365,1.66979 0.42148,0.62441 1.07818,1.56977 1.9685,2.83818 z m -7.41018,-1.93569 c 0,-1.42372 -0.52361,-2.65933 -1.56951,-3.70575 -1.0459,-1.0459 -2.28097,-1.56898 -3.70523,-1.56898 -1.447,0 -2.69346,0.51779 -3.73882,1.55284 -1.0459,1.03452 -1.580361,2.27541 -1.602061,3.72163 -0.0227,1.42425 0.505891,2.65377 1.585391,3.68776 1.0795,1.03505 2.33124,1.55284 3.75523,1.55284 1.51315,0 2.77601,-0.49557 3.7883,-1.48564 1.01336,-0.98954 1.50839,-2.24102 1.4867,-3.7547 z m -0.50086,0 c 0,1.35758 -0.45641,2.48206 -1.36895,3.37079 -0.91308,0.89086 -2.04788,1.33588 -3.40493,1.33588 -1.31312,0 -2.43707,-0.45587 -3.37132,-1.36895 -0.93424,-0.91149 -1.40202,-2.02459 -1.40202,-3.33772 0,-1.29037 0.47228,-2.39818 1.4179,-3.32131 0.94668,-0.9234 2.06454,-1.38589 3.35544,-1.38589 1.29038,0 2.40877,0.46725 3.35492,1.40256 0.94562,0.93477 1.41896,2.03596 1.41896,3.30464 z"
       id="path28"
       style="stroke-width:0.264583;fill:url(#linearGradient2)" />
    <path
       fill="#111212"
       d="m 111.89037,107.37889 c 0.0153,-1.41393 -0.43392,-2.84136 -1.31419,-3.9497 -0.42545,-0.46858 -0.77523,-1.00198 -1.22581,-1.44489 -0.99325,-0.98584 -2.48047,-1.05145 -3.67692,-1.67243 -0.0696,-0.623622 -0.29765,-1.247512 -0.15954,-1.876692 0.0421,-0.20929 0.10372,-0.42148 -0.008,-0.62151 -0.3138,-0.722836 -0.0442,-1.507586 -0.10002,-2.261386 -0.0418,-0.3937 -0.0151,-0.87551 -0.38999,-1.11866 -0.0873,0.81942 -0.38867,1.58194 -0.63288,2.35955 -0.11272,0.605896 -0.11272,1.237196 -0.37386,1.808696 0.16563,0.5789 -0.16246,1.06627 -0.51753,1.493832 -0.78475,0.40217 -1.71873,0.49768 -2.40162,1.08744 -0.4871,0.41328 -1.01282,0.77549 -1.557868,1.11178 -0.40878,0.5117 -0.86148,1.00462 -1.04351,1.651 -0.73078,0.88239 -0.81704,2.06666 -1.23137,3.10012 -0.008,1.53432 0.30321,3.18638 1.28323,4.41616 0.70114,0.57891 1.19115,1.35758 1.891238,1.93675 0.67204,0.40111 1.38933,0.73078 2.08333,1.09194 0.45243,0.1053 0.91942,0.15716 1.36948,0.28019 0.36513,1.88093 0.61436,3.80762 1.34726,5.59144 0.24315,-0.73236 0.21378,-1.51712 0.4236,-2.25716 0.2958,-1.09431 -0.31115,-2.23335 0.0309,-3.30755 0.51277,-0.45853 1.3679,-0.16087 1.93675,-0.55431 1.08268,-0.66754 2.22832,-1.31762 3.01361,-2.33891 0.29236,-0.58711 0.90646,-1.02579 0.90646,-1.73011 0.005,-0.94853 0.55827,-1.83674 0.34687,-2.79559 z m -8.03619,5.80231 c -0.78449,-0.19076 -1.51527,-0.56594 -2.17329,-1.0242 -0.70802,-0.47175 -0.97208,-1.35202 -1.67058,-1.83462 -0.654048,-0.78079 -0.512498,-1.84732 -0.780518,-2.77178 0.10742,-0.64505 0.23416,-1.28481 0.3011,-1.93807 0.31908,-0.51752 0.811468,-0.93027 0.947998,-1.5531 0.46752,-0.66993 1.17951,-1.13348 1.75128,-1.71424 0.41592,-0.47969 1.07791,-0.27755 1.62427,-0.29607 -0.0542,0.52917 -0.0974,1.07633 0.0352,1.59835 0.0646,0.32068 0.20929,0.63659 0.15981,0.97261 -0.10954,0.71411 0.15849,1.43034 -0.031,2.13624 -0.38179,1.47585 0.0347,2.96572 0.0709,4.45347 -0.0545,0.65908 -0.0852,1.32292 -0.23521,1.97141 z m 5.94704,-2.79664 c -0.51964,0.36935 -0.96229,0.82311 -1.41579,1.26603 -0.78819,0.54504 -1.56712,1.12183 -2.50534,1.39435 0.0847,-0.66913 0.16722,-1.35758 -0.046,-2.01268 -0.52335,-1.48008 0.118,-3.02816 0.22621,-4.52491 -0.0955,-0.88979 -0.004,-1.83912 -0.41222,-2.6588 -0.0534,-0.61568 0.21273,-1.2102 0.39317,-1.78964 0.61966,0.24739 1.20306,0.58129 1.71874,1.01071 0.62283,0.46673 1.57691,0.76941 1.71635,1.63989 0.0712,0.57176 0.69691,0.91757 0.67866,1.50257 -0.0392,1.39065 0.15266,2.84506 -0.35375,4.17248 z"
       id="path124"
       style="fill:url(#linearGradient6);stroke-width:0.264583" />
    <g
       id="g24"
       transform="matrix(0.26458333,0,0,0.26458333,200.42612,94.355181)"
       style="fill:#adadad;fill-opacity:1">&#10;	<circle
   fill="#e49977"
   cx="-160"
   cy="50"
   r="50"
   id="circle24"
   style="fill:#adadad;fill-opacity:1" />
&#10;</g>
    <path
       fill="#0d0f0f"
       d="m 169.19603,111.98093 c -0.98849,2.35796 -2.95275,3.53668 -5.8936,3.53668 -0.53895,0 -1.12342,0.0672 -1.7518,0.20162 -0.94298,0.20214 -1.41447,0.48365 -1.41447,0.84296 0,0.11218 0.0781,0.24077 0.23575,0.38708 0.15663,0.14632 0.2921,0.21855 0.40402,0.21855 -0.56171,0 -0.17992,0.0169 1.14458,0.0505 1.32504,0.0336 2.15583,0.0505 2.49291,0.0505 -1.95342,1.14459 -5.22076,1.6719 -9.80096,1.58247 -1.50495,-0.0222 -2.79559,-0.68474 -3.87324,-1.98702 -1.05621,-1.23534 -1.58326,-2.6162 -1.58326,-4.14284 0,-1.61608 0.54424,-2.99191 1.63406,-4.12618 1.08823,-1.13295 2.44184,-1.70048 4.05818,-1.70048 0.35904,0 0.83609,0.0786 1.4314,0.23575 0.59478,0.15716 0.99377,0.23574 1.19539,0.23574 0.83052,0 1.86398,-0.34211 3.09906,-1.02738 1.23455,-0.68474 1.81901,-1.02737 1.75181,-1.02737 -0.2249,2.35796 -1.01071,3.94123 -2.3585,4.74874 -0.9652,0.56171 -1.44806,1.11151 -1.44806,1.64994 0,0.33681 0.20214,0.60669 0.60616,0.80883 0.31432,0.15743 0.66198,0.23601 1.04378,0.23601 0.58393,0 1.15649,-0.35878 1.7182,-1.07712 0.56065,-0.71914 0.8083,-1.36975 0.7411,-1.95421 -0.0672,-0.67337 -0.0222,-1.48246 0.13494,-2.42464 0.0444,-0.26988 0.20717,-0.60061 0.48789,-0.99325 0.28072,-0.39317 0.5334,-0.63447 0.75803,-0.72443 0,0.20161 -0.0728,0.53896 -0.21908,1.01018 -0.14631,0.47122 -0.21854,0.82021 -0.21854,1.04431 0,0.49398 0.13441,0.87551 0.40402,1.14459 0.40349,-0.15664 0.76279,-0.66199 1.07791,-1.5158 0.26882,-0.65061 0.42571,-1.27953 0.47122,-1.88569 -0.9435,-0.045 -1.84732,-0.47122 -2.71145,-1.28005 -0.86466,-0.80883 -1.29646,-1.68407 -1.29646,-2.62678 0,-0.15717 0.0217,-0.31433 0.0677,-0.47176 0.13441,0.20215 0.33628,0.51674 0.60563,0.94298 0.38179,0.56118 0.67389,0.8419 0.87656,0.8419 0.26882,0 0.40349,-0.28072 0.40349,-0.8419 0,-0.71834 -0.19129,-1.36948 -0.57255,-1.953419 -0.42678,-0.69612 -0.97711,-1.04431 -1.65048,-1.04431 -0.31459,0 -0.78607,0.16854 -1.41393,0.50535 -0.62944,0.33629 -1.202,0.50536 -1.71767,0.50536 -0.1577,0 -0.85434,-0.20267 -2.08889,-0.60669 2.17752,-0.35851 3.26708,-0.68421 3.26708,-0.97658 0,-0.76332 -1.49358,-1.28005 -4.4794,-1.54913 -0.29236,-0.0222 -0.83106,-0.0672 -1.61687,-0.13494 0.0894,-0.11218 0.72972,-0.23574 1.92035,-0.37042 1.01018,-0.11165 1.71767,-0.16854 2.12143,-0.16854 5.34379,0 8.73442,2.59424 10.17137,7.780869 0.24712,-0.20452 0.37095,-0.54663 0.37095,-1.0242 0,-0.61489 -0.17992,-1.38906 -0.53896,-2.32225 -0.13546,-0.3638 -0.34872,-0.910429 -0.64029,-1.638559 1.84071,2.346059 2.76199,4.569349 2.76199,6.667229 0,1.10543 -0.25903,2.10952 -0.77523,3.01122 -0.33602,0.60934 -0.96573,1.38748 -1.88569,2.33522 -0.92075,0.9472 -1.54966,1.68063 -1.88674,2.19948 1.23507,-0.33629 2.0439,-0.59479 2.4257,-0.7747 0.85275,-0.381 1.62719,-0.95409 2.32383,-1.71768 0,0.29263 -0.12356,0.73078 -0.37041,1.31419 z M 154.51112,98.745151 c 0,0.40349 -0.22489,0.66198 -0.67336,0.77417 l -0.87604,0.13493 c -0.31459,0.15717 -0.7747,0.774699 -1.38086,1.852089 -0.0677,-0.33629 -0.16854,-0.80777 -0.30321,-1.41446 -0.20214,0.0228 -0.53843,0.20214 -1.01018,0.53895 -0.20214,0.15716 -0.52811,0.39264 -0.97711,0.70697 0.13547,-0.8083 0.58394,-1.626659 1.34779,-2.458769 0.8083,-0.91996 1.59412,-1.38034 2.35744,-1.38034 1.01018,0 1.51553,0.41593 1.51553,1.24646 z m 5.86052,3.097999 c 0,0.3818 -0.20769,0.70221 -0.62309,0.96018 -0.4154,0.25849 -0.82524,0.38761 -1.22925,0.38761 -0.53896,0 -1.02209,-0.30321 -1.44807,-0.90964 -0.51726,-0.7411 -1.04431,-1.2237 -1.58327,-1.44912 0.11219,-0.11165 0.24713,-0.16801 0.40455,-0.16801 0.20214,0 0.54372,0.15716 1.02685,0.47122 0.4826,0.31459 0.7911,0.47175 0.92657,0.47175 0.11218,0 0.29713,-0.15716 0.55563,-0.47175 0.25796,-0.31432 0.54424,-0.47122 0.85883,-0.47122 0.74084,2.6e-4 1.11125,0.39343 1.11125,1.17898 z"
       id="path25"
       style="stroke-width:0.264583;fill:url(#linearGradient9)" />
    <path
       fill="#111212"
       d="m 165.18943,107.51183 c 0.0153,-1.41393 -0.43392,-2.84136 -1.31419,-3.9497 -0.42545,-0.46858 -0.77523,-1.00198 -1.22581,-1.44489 -0.99325,-0.98584 -2.48047,-1.05145 -3.67692,-1.67243 -0.0696,-0.623616 -0.29765,-1.247506 -0.15954,-1.876686 0.0421,-0.20929 0.10372,-0.42148 -0.008,-0.62151 -0.3138,-0.722836 -0.0442,-1.507586 -0.10002,-2.261386 -0.0418,-0.3937 -0.0151,-0.87551 -0.38999,-1.11866 -0.0873,0.81942 -0.38867,1.58194 -0.63288,2.35955 -0.11272,0.605896 -0.11272,1.237196 -0.37386,1.808696 0.16563,0.5789 -0.16246,1.06627 -0.51753,1.493826 -0.78475,0.40217 -1.71873,0.49768 -2.40162,1.08744 -0.4871,0.41328 -1.01281,0.77549 -1.55786,1.11178 -0.40878,0.5117 -0.86148,1.00462 -1.04351,1.651 -0.73078,0.88239 -0.81704,2.06666 -1.23137,3.10012 -0.008,1.53432 0.30321,3.18638 1.28323,4.41616 0.70114,0.57891 1.19115,1.35758 1.89123,1.93675 0.67204,0.40111 1.38933,0.73078 2.08333,1.09194 0.45243,0.1053 0.91942,0.15716 1.36948,0.28019 0.36513,1.88093 0.61436,3.80762 1.34726,5.59144 0.24315,-0.73236 0.21378,-1.51712 0.4236,-2.25716 0.2958,-1.09431 -0.31115,-2.23335 0.0309,-3.30755 0.51277,-0.45853 1.3679,-0.16087 1.93675,-0.55431 1.08268,-0.66754 2.22832,-1.31762 3.01361,-2.33891 0.29236,-0.58711 0.90646,-1.02579 0.90646,-1.73011 0.005,-0.94853 0.55827,-1.83674 0.34687,-2.79559 z m -8.03619,5.80231 c -0.78449,-0.19076 -1.51527,-0.56594 -2.17329,-1.0242 -0.70802,-0.47175 -0.97208,-1.35202 -1.67057,-1.83462 -0.65405,-0.78079 -0.5125,-1.84732 -0.78052,-2.77178 0.10742,-0.64505 0.23416,-1.28481 0.3011,-1.93807 0.31908,-0.51752 0.81146,-0.93027 0.94799,-1.5531 0.46752,-0.66993 1.17951,-1.13348 1.75128,-1.71424 0.41592,-0.47969 1.07791,-0.27755 1.62427,-0.29607 -0.0542,0.52917 -0.0974,1.07633 0.0352,1.59835 0.0646,0.32068 0.20929,0.63659 0.15981,0.97261 -0.10954,0.71411 0.15849,1.43034 -0.031,2.13624 -0.38179,1.47585 0.0347,2.96572 0.0709,4.45347 -0.0545,0.65908 -0.0852,1.32292 -0.23521,1.97141 z m 5.94704,-2.79664 c -0.51964,0.36935 -0.96229,0.82311 -1.41579,1.26603 -0.78819,0.54504 -1.56712,1.12183 -2.50534,1.39435 0.0847,-0.66913 0.16722,-1.35758 -0.046,-2.01268 -0.52335,-1.48008 0.118,-3.02816 0.22621,-4.52491 -0.0955,-0.88979 -0.004,-1.83912 -0.41222,-2.6588 -0.0534,-0.61568 0.21273,-1.2102 0.39317,-1.78964 0.61966,0.24739 1.20306,0.58129 1.71874,1.01071 0.62283,0.46673 1.57691,0.76941 1.71635,1.63989 0.0712,0.57176 0.69691,0.91757 0.67866,1.50257 -0.0392,1.39065 0.15266,2.84506 -0.35375,4.17248 z"
       id="path124-2"
       style="fill:url(#linearGradient7);stroke-width:0.264583" />
    <g
       id="g25"
       transform="matrix(0.26458333,0,0,0.26458333,147.33276,118.86181)"
       style="fill:#b3b3b3;fill-opacity:1">&#10;	<circle
   fill="#bab1ab"
   cx="-265"
   cy="49.998001"
   r="50"
   id="circle25"
   style="fill:#b3b3b3;fill-opacity:1" />
&#10;</g>
    <path
       fill="#111212"
       d="m 84.093488,132.06432 c 0.0153,-1.41393 -0.43392,-2.84136 -1.31419,-3.9497 -0.42545,-0.46858 -0.77523,-1.00198 -1.22581,-1.44489 -0.99325,-0.98584 -2.480469,-1.05145 -3.676919,-1.67243 -0.0696,-0.62361 -0.29765,-1.2475 -0.15954,-1.87668 0.0421,-0.20929 0.10372,-0.42148 -0.008,-0.62151 -0.3138,-0.72284 -0.0442,-1.50759 -0.10002,-2.26139 -0.0418,-0.3937 -0.0151,-0.87551 -0.38999,-1.11866 -0.0873,0.81942 -0.38867,1.58194 -0.63288,2.35955 -0.11272,0.6059 -0.11272,1.2372 -0.37386,1.8087 0.16563,0.5789 -0.16246,1.06627 -0.51753,1.49382 -0.78475,0.40217 -1.71873,0.49768 -2.40162,1.08744 -0.4871,0.41328 -1.01281,0.77549 -1.55786,1.11178 -0.40878,0.5117 -0.86148,1.00462 -1.04351,1.651 -0.73078,0.88239 -0.81704,2.06666 -1.23137,3.10012 -0.008,1.53432 0.30321,3.18638 1.28323,4.41616 0.70114,0.57891 1.19115,1.35758 1.89123,1.93675 0.67204,0.40111 1.38933,0.73078 2.08333,1.09194 0.45243,0.1053 0.91942,0.15716 1.36948,0.28019 0.36513,1.88093 0.61436,3.80762 1.34726,5.59144 0.24315,-0.73236 0.21378,-1.51712 0.4236,-2.25716 0.2958,-1.09431 -0.31115,-2.23335 0.0309,-3.30755 0.51277,-0.45853 1.3679,-0.16087 1.936749,-0.55431 1.08268,-0.66754 2.22832,-1.31762 3.01361,-2.33891 0.29236,-0.58711 0.90646,-1.02579 0.90646,-1.73011 0.005,-0.94853 0.55827,-1.83674 0.34687,-2.79559 z m -8.036189,5.80231 c -0.78449,-0.19076 -1.51527,-0.56594 -2.17329,-1.0242 -0.70802,-0.47175 -0.97208,-1.35202 -1.67057,-1.83462 -0.65405,-0.78079 -0.5125,-1.84732 -0.78052,-2.77178 0.10742,-0.64505 0.23416,-1.28481 0.3011,-1.93807 0.31908,-0.51752 0.81146,-0.93027 0.94799,-1.5531 0.46752,-0.66993 1.17951,-1.13348 1.75128,-1.71424 0.41592,-0.47969 1.07791,-0.27755 1.62427,-0.29607 -0.0542,0.52917 -0.0974,1.07633 0.0352,1.59835 0.0646,0.32068 0.20929,0.63659 0.15981,0.97261 -0.10954,0.71411 0.15849,1.43034 -0.031,2.13624 -0.38179,1.47585 0.0347,2.96572 0.0709,4.45347 -0.0545,0.65908 -0.0852,1.32292 -0.23521,1.97141 z m 5.947039,-2.79664 c -0.51964,0.36935 -0.96229,0.82311 -1.41579,1.26603 -0.78819,0.54504 -1.567119,1.12183 -2.505339,1.39435 0.0847,-0.66913 0.16722,-1.35758 -0.046,-2.01268 -0.52335,-1.48008 0.118,-3.02816 0.22621,-4.52491 -0.0955,-0.88979 -0.004,-1.83912 -0.41222,-2.6588 -0.0534,-0.61568 0.21273,-1.2102 0.39317,-1.78964 0.61966,0.24739 1.20306,0.58129 1.718739,1.01071 0.62283,0.46673 1.57691,0.76941 1.71635,1.63989 0.0712,0.57176 0.69691,0.91757 0.67866,1.50257 -0.0392,1.39065 0.15266,2.84506 -0.35375,4.17248 z"
       id="path124-2-2"
       style="fill:url(#linearGradient10);stroke-width:0.264583" />
    <path
       fill="#0d0f0f"
       d="m 87.9854,131.72559 c 0,1.45997 -0.53129,2.45559 -1.5928,2.98635 -0.31009,0.15504 -1.28322,0.36486 -2.920202,0.6305 -1.061508,0.17727 -1.592262,0.58658 -1.592262,1.2274 v 2.68764 c 0,0.11165 0.03307,0.45376 0.09922,1.02897 l 0.09975,1.06203 c 0,0.33205 -0.07752,0.87472 -0.232568,1.62613 -0.420159,0.0884 -0.906992,0.18759 -1.459971,0.29951 -0.177271,-0.66437 -0.265642,-1.1176 -0.265642,-1.36155 0,-0.11006 0.02778,-0.27649 0.08282,-0.49794 0.05477,-0.22066 0.08361,-0.38656 0.08361,-0.49821 0,-0.15346 -0.137583,-0.58552 -0.412485,-1.29302 h -0.514615 c -0.06826,0.1106 -0.09102,0.25426 -0.06879,0.43101 0.08837,0.37623 0.121443,0.69664 0.09975,0.96229 -0.376237,0.26564 -0.896143,0.61938 -1.559718,1.06177 -0.155046,-0.0439 -0.209815,-0.0661 -0.166423,-0.0661 v -2.35585 c -0.04339,-0.11006 -0.154517,-0.15372 -0.331788,-0.13282 h -0.397933 l -0.397933,3.11865 c -0.310621,0.0222 -0.6858,0.0222 -1.128184,0 -0.155575,-0.72973 -0.431535,-1.81319 -0.829468,-3.25147 h -0.265642 c -0.243946,0.77497 -0.376238,1.19565 -0.398463,1.2618 0,0.0884 0.02752,0.25955 0.08308,0.51382 0.05477,0.25453 0.08281,0.42571 0.08281,0.51408 0,0.0661 -0.02222,0.23204 -0.06615,0.49769 l -0.09975,0.79639 c -0.04445,0.0439 -0.09975,0.0661 -0.165893,0.0661 -0.663575,0 -1.106488,-0.1659 -1.32715,-0.49715 -0.221192,-0.33232 -0.310092,-0.79693 -0.265642,-1.39462 l 0.265642,-3.98119 c 0,-0.0667 0.0217,-0.15504 0.06615,-0.26564 0.04339,-0.1106 0.06614,-0.18812 0.06614,-0.23204 0,-0.17727 -0.188118,-0.53128 -0.563827,-1.06204 -0.06562,-0.0217 -0.409839,-0.0998 -1.028435,-0.23257 -0.376767,-0.0884 -1.117865,-0.24288 -2.223029,-0.4646 -1.526911,-0.28681 -2.289704,-1.51474 -2.289704,-3.683 0,-3.22977 1.327679,-5.91741 3.982243,-8.06318 0.109538,0.59743 0.298186,1.39329 0.563298,2.38892 0.199496,0.045 0.631031,0.1442 1.294077,0.29872 0.13335,0.0444 0.807773,0.28786 2.024592,0.73025 -0.620183,-0.37624 -1.426898,-0.98399 -2.422525,-1.8251 -0.376238,-0.44238 -0.564356,-1.18295 -0.564356,-2.2225 0,-0.24342 0.420687,-0.53128 1.261533,-0.8636 0.751417,-0.30956 1.316302,-0.48577 1.692275,-0.53075 1.194329,-0.15399 2.112433,-0.23257 2.754312,-0.23257 2.764632,0 4.998244,0.70855 6.701367,2.12434 -0.55245,0.64188 -1.503892,1.32662 -2.853002,2.0566 0.531283,0.0222 1.305454,-0.18706 2.322777,-0.6305 1.017058,-0.44185 1.448594,-0.66357 1.294077,-0.66357 0.176742,0 0.531277,0.35454 1.062037,1.06203 0.39793,0.53076 0.71834,1.00727 0.96229,1.42637 0.70749,1.26154 1.18295,2.62149 1.42689,4.08146 0,0.50959 0.0109,0.87445 0.0331,1.09512 v 0.26564 z m -12.708206,0.59743 c 0,-0.95092 -0.414866,-1.85262 -1.244335,-2.70484 -0.829998,-0.85169 -1.720321,-1.27688 -2.671233,-1.27688 -0.840846,0 -1.581415,0.35666 -2.22303,1.06865 -0.641879,0.71253 -0.962289,1.50337 -0.962289,2.37146 0,0.75645 0.36486,1.24699 1.09511,1.46924 0.464609,0.13387 1.116277,0.21193 1.957388,0.23362 h 1.825096 c 1.481137,0.0222 2.223293,-0.36486 2.223293,-1.16125 z m 3.616325,4.11506 v -1.02896 c -0.154516,-0.28734 -0.309562,-0.58606 -0.464079,-0.89615 -0.132821,-0.44291 -0.376237,-1.06204 -0.73025,-1.8587 l -0.36539,3.8825 c 0,0.31009 -0.06614,0.46461 -0.198966,0.46461 -0.08837,0 -0.154517,-0.0217 -0.198967,-0.0656 -0.155046,-2.345 -0.232569,-3.36259 -0.232569,-3.05355 v -1.16073 c -0.04445,-0.0672 -0.09922,-0.10028 -0.165364,-0.10028 -0.752475,0.77523 -1.128184,2.02459 -1.128184,3.74968 0,0.95144 0.08731,1.53749 0.265113,1.75895 0.177271,-0.0439 0.376237,-0.12145 0.597429,-0.23204 0.08837,-0.0445 0.342636,-0.0667 0.763852,-0.0667 0.4191,0 0.928688,0.13282 1.525588,0.39794 0.221191,0 0.331787,-0.5969 0.331787,-1.79097 z m 7.499351,-4.62359 c 0,-0.89086 -0.33179,-1.68672 -0.99536,-2.38787 -0.664108,-0.70061 -1.42743,-1.05172 -2.289178,-1.05172 -0.929217,0 -1.797844,0.42519 -2.605088,1.27688 -0.807773,0.8517 -1.211262,1.74202 -1.211262,2.67124 0,0.7747 0.375708,1.16125 1.128183,1.16125 h 3.815821 c 1.437484,-0.0217 2.156884,-0.57838 2.156884,-1.66978 z"
       id="path26"
       style="stroke-width:0.264583;fill:url(#linearGradient12)" />
    <g
       id="g23"
       transform="matrix(0.26458333,0,0,0.26458333,147.13097,122.9941)"
       style="fill:#ababab;fill-opacity:1">&#10;	<path
   fill="#a3c095"
   d="M -5,49.998 C -5,77.613 -27.385,100 -55.002,100 -82.615,100 -105,77.613 -105,49.998 -105,22.385 -82.615,0 -55.002,0 -27.385,0 -5,22.385 -5,49.998 Z"
   id="path23"
   style="fill:#ababab;fill-opacity:1" />
&#10;</g>
    <path
       fill="#0d0f0f"
       d="m 144.15758,137.8703 c 0,0.44132 -0.17065,0.83714 -0.51223,1.19009 -0.34105,0.35243 -0.7329,0.52864 -1.17369,0.52864 -0.70432,0 -1.22317,-0.33073 -1.55284,-0.99166 l -1.55337,-0.0661 c -0.33126,0 -0.98134,0.14367 -1.95024,0.42994 -1.03558,0.28628 -1.6309,0.51779 -1.78488,0.69401 -0.24236,0.26405 -0.44027,0.88159 -0.59479,1.85102 -0.13282,0.79322 -0.19791,1.37716 -0.19791,1.75181 0,0.59425 0.0931,1.03002 0.28073,1.30545 0.18759,0.27543 0.57309,0.50694 1.15649,0.694 0.58341,0.18706 0.94218,0.2921 1.07447,0.31406 0.0879,0 0.23099,-0.0108 0.42995,-0.0331 h 0.39635 c 0.28575,0 0.5834,0.045 0.89244,0.13229 0.44079,0.1323 0.62838,0.30851 0.56224,0.52917 -0.30904,-0.0439 -0.84852,0.0222 -1.61952,0.19844 l 0.92499,0.46249 c 0,0.26458 -0.37465,0.39635 -1.12342,0.39635 -0.19897,0 -0.46858,-0.0439 -0.81042,-0.13177 -0.34158,-0.0889 -0.56753,-0.13229 -0.67707,-0.13229 h -0.42995 c -0.0217,0.22013 -0.0884,0.55033 -0.19844,0.99113 -0.37518,-0.0222 -0.81491,-0.24289 -1.32186,-0.66093 -0.50747,-0.41804 -0.82629,-0.62786 -0.95805,-0.62786 -0.13282,0 -0.32041,0.20982 -0.56224,0.62786 -0.24289,0.41804 -0.3638,0.70485 -0.3638,0.85937 -0.28628,-0.15452 -0.52811,-0.44133 -0.72761,-0.85937 -0.0878,-0.28681 -0.18706,-0.57309 -0.2966,-0.85937 -0.22013,0.0222 -0.62838,0.48525 -1.22264,1.38854 h -0.16589 c -0.0439,-0.0667 -0.21034,-0.52917 -0.49556,-1.38854 -0.68316,-0.22013 -1.32186,-0.3302 -1.91717,-0.3302 -0.28628,0 -0.72708,0.0662 -1.32186,0.19791 l -0.92499,-0.0656 c 0.13177,-0.1323 0.51726,-0.3855 1.1565,-0.76015 0.74877,-0.4408 1.32186,-0.66146 1.71873,-0.66146 0.0651,0 0.15293,0.0114 0.26458,0.0331 0.10954,0.0228 0.19844,0.0331 0.26459,0.0331 0.15293,0 0.40163,-0.0825 0.74321,-0.24818 0.34158,-0.16484 0.53949,-0.3138 0.59426,-0.44556 0.0558,-0.13335 0.0836,-0.4744 0.0836,-1.02526 0,-1.25571 -0.33072,-2.19208 -0.99218,-2.80908 -0.57362,-0.55087 -1.5203,-0.94721 -2.84269,-1.1901 -0.35242,1.25571 -1.34408,1.88463 -2.97391,1.88463 -0.52917,0 -1.05781,-0.31935 -1.58644,-0.95859 -0.52811,-0.63923 -0.7927,-1.22317 -0.7927,-1.7518 0,-0.81545 0.34052,-1.48723 1.02368,-2.01692 -0.55034,-0.57203 -0.82577,-1.15597 -0.82577,-1.75075 0,-0.55139 0.17013,-1.03558 0.51224,-1.45521 0.34157,-0.41751 0.78766,-0.6604 1.33852,-0.72707 -0.0439,-0.70432 0.18706,-1.18957 0.694,-1.45415 -0.24235,-0.24183 -0.36327,-0.67125 -0.36327,-1.28826 0,-0.72708 0.24236,-1.33324 0.72708,-1.81795 0.48418,-0.48472 1.09034,-0.72761 1.81742,-0.72761 0.79375,0 1.44383,0.27649 1.95024,0.82683 0.63924,-2.18123 2.01639,-3.27211 4.13094,-3.27211 1.10173,0 2.07116,0.4408 2.90883,1.32239 0.30851,0.3302 0.46249,0.50694 0.46249,0.52811 -0.26458,0 -0.13176,-0.0497 0.39688,-0.14843 0.52811,-0.0992 0.9136,-0.14896 1.15702,-0.14896 0.85884,0 1.61899,0.31935 2.28045,0.95858 0.57255,0.57309 0.96943,1.29964 1.19009,2.18123 0.15346,0.0222 0.39635,0.0878 0.72708,0.19791 0.48418,0.24341 0.72707,0.66093 0.72707,1.25624 0,0.11059 -0.0889,0.31988 -0.26458,0.62786 1.4097,0.79322 2.11508,1.89494 2.11508,3.30517 0,0.39635 -0.15399,0.94827 -0.46249,1.65285 0.57308,0.32994 0.85883,0.81518 0.85883,1.45389 z m -13.61731,1.45415 v -0.42942 c 0,-0.50641 -0.24765,-0.96943 -0.74321,-1.38801 -0.4961,-0.41857 -0.99748,-0.62785 -1.50389,-0.62785 -0.61754,0 -1.18957,0.14314 -1.71874,0.42889 1.16761,-0.0656 2.49,0.60669 3.96584,2.01639 z m -0.59425,-4.09813 c -0.33073,-0.37518 -0.61701,-0.76068 -0.8599,-1.15703 -0.92551,0.24236 -1.388,0.51779 -1.388,0.82577 0.26458,-0.0212 0.65008,0.0278 1.15649,0.14922 0.50641,0.12145 0.87075,0.18204 1.09141,0.18204 z m 2.01639,-1.02473 v -1.45415 c -0.52917,-0.0879 -0.84958,-0.1323 -0.95859,-0.1323 v 0.49557 z m 4.2963,-0.92552 c -0.26458,-0.11006 -0.76068,-0.33073 -1.48722,-0.66093 v 2.84216 c 1.03505,-0.59531 1.53061,-1.32239 1.48722,-2.18123 z m 1.8169,3.90023 -0.72655,-0.89244 c -0.44027,0.30876 -0.88688,0.62283 -1.33906,0.94218 -0.45217,0.31935 -0.84296,0.67812 -1.17263,1.07421 0.99139,-0.5297 2.07142,-0.90329 3.23824,-1.12395 z"
       id="path24"
       style="stroke-width:0.264583;fill:url(#linearGradient19)" />
    <g
       id="g26"
       transform="matrix(0.26458333,0,0,0.26458333,200.55382,142.37506)"
       style="fill:#d5d5d5;fill-opacity:1">&#10;	<circle
   fill="#c1d7e9"
   cx="-370"
   cy="50"
   r="50"
   id="circle26"
   style="fill:#d5d5d5;fill-opacity:1" />
&#10;</g>
    <path
       fill="#0d0f0f"
       d="m 107.28502,164.52571 c -1.26656,1.28879 -2.82681,1.93331 -4.67995,1.93331 -2.07989,0 -3.730092,-0.71173 -4.950622,-2.13598 -1.15332,-1.35652 -1.72958,-3.08557 -1.72958,-5.18742 0,-2.26034 0.98346,-4.83817 2.95011,-7.73218 1.604432,-2.37305 3.492232,-4.45294 5.662612,-6.23888 -0.31671,1.44701 -0.4744,2.47518 -0.4744,3.08557 0,1.40203 0.44027,2.7694 1.32186,4.10316 1.08532,1.58221 1.91003,2.75855 2.4757,3.52637 0.8816,1.33429 1.32239,2.63392 1.32239,3.89916 5.3e-4,1.87669 -0.63262,3.45916 -1.89812,4.74689 z m -0.0341,-7.23953 c -0.33893,-0.75697 -0.73475,-1.25994 -1.18692,-1.50892 0.0677,0.136 0.10186,0.32809 0.10186,0.5768 0,0.47492 -0.13546,1.15279 -0.40719,2.03438 l -0.44027,1.35652 c 0,0.7911 0.39476,1.18692 1.18639,1.18692 0.83609,0 1.25466,-0.55431 1.25466,-1.66185 0,-0.56462 -0.16933,-1.22555 -0.50853,-1.98385 z"
       id="path27"
       style="stroke-width:0.264583;fill:url(#linearGradient22)" />
    <path
       fill="#111212"
       d="m 139.5911,136.18544 c 0.0153,-1.41393 -0.43392,-2.84136 -1.31419,-3.9497 -0.42545,-0.46858 -0.77523,-1.00198 -1.22581,-1.44489 -0.99325,-0.98584 -2.48047,-1.05145 -3.67692,-1.67243 -0.0696,-0.62361 -0.29765,-1.2475 -0.15954,-1.87668 0.0421,-0.20929 0.10372,-0.42148 -0.008,-0.62151 -0.3138,-0.72284 -0.0442,-1.50759 -0.10002,-2.26139 -0.0418,-0.3937 -0.0151,-0.87551 -0.38999,-1.11866 -0.0873,0.81942 -0.38867,1.58194 -0.63288,2.35955 -0.11272,0.6059 -0.11272,1.2372 -0.37386,1.8087 0.16563,0.5789 -0.16246,1.06627 -0.51753,1.49382 -0.78475,0.40217 -1.71873,0.49768 -2.40162,1.08744 -0.4871,0.41328 -1.01281,0.77549 -1.55786,1.11178 -0.40878,0.5117 -0.86148,1.00462 -1.04351,1.651 -0.73078,0.88239 -0.81704,2.06666 -1.23137,3.10012 -0.008,1.53432 0.30321,3.18638 1.28323,4.41616 0.70114,0.57891 1.19115,1.35758 1.89123,1.93675 0.67204,0.40111 1.38933,0.73078 2.08333,1.09194 0.45243,0.1053 0.91942,0.15716 1.36948,0.28019 0.36513,1.88093 0.61436,3.80762 1.34726,5.59144 0.24315,-0.73236 0.21378,-1.51712 0.4236,-2.25716 0.2958,-1.09431 -0.31115,-2.23335 0.0309,-3.30755 0.51277,-0.45853 1.3679,-0.16087 1.93675,-0.55431 1.08268,-0.66754 2.22832,-1.31762 3.01361,-2.33891 0.29236,-0.58711 0.90646,-1.02579 0.90646,-1.73011 0.005,-0.94853 0.55827,-1.83674 0.34687,-2.79559 z m -8.03619,5.80231 c -0.78449,-0.19076 -1.51527,-0.56594 -2.17329,-1.0242 -0.70802,-0.47175 -0.97208,-1.35202 -1.67057,-1.83462 -0.65405,-0.78079 -0.5125,-1.84732 -0.78052,-2.77178 0.10742,-0.64505 0.23416,-1.28481 0.3011,-1.93807 0.31908,-0.51752 0.81146,-0.93027 0.94799,-1.5531 0.46752,-0.66993 1.17951,-1.13348 1.75128,-1.71424 0.41592,-0.47969 1.07791,-0.27755 1.62427,-0.29607 -0.0542,0.52917 -0.0974,1.07633 0.0352,1.59835 0.0646,0.32068 0.20929,0.63659 0.15981,0.97261 -0.10954,0.71411 0.15849,1.43034 -0.031,2.13624 -0.38179,1.47585 0.0347,2.96572 0.0709,4.45347 -0.0545,0.65908 -0.0852,1.32292 -0.23521,1.97141 z m 5.94704,-2.79664 c -0.51964,0.36935 -0.96229,0.82311 -1.41579,1.26603 -0.78819,0.54504 -1.56712,1.12183 -2.50534,1.39435 0.0847,-0.66913 0.16722,-1.35758 -0.046,-2.01268 -0.52335,-1.48008 0.118,-3.02816 0.22621,-4.52491 -0.0955,-0.88979 -0.004,-1.83912 -0.41222,-2.6588 -0.0534,-0.61568 0.21273,-1.2102 0.39317,-1.78964 0.61966,0.24739 1.20306,0.58129 1.71874,1.01071 0.62283,0.46673 1.57691,0.76941 1.71635,1.63989 0.0712,0.57176 0.69691,0.91757 0.67866,1.50257 -0.0392,1.39065 0.15266,2.84506 -0.35375,4.17248 z"
       id="path124-2-0"
       style="fill:url(#linearGradient17);stroke-width:0.264583" />
    <path
       fill="#111212"
       d="m 109.55664,155.86099 c 0.0153,-1.41393 -0.43392,-2.84136 -1.31419,-3.9497 -0.42545,-0.46858 -0.77523,-1.00198 -1.22581,-1.44489 -0.99325,-0.98584 -2.48047,-1.05145 -3.67692,-1.67243 -0.0696,-0.62361 -0.29765,-1.2475 -0.15954,-1.87668 0.0421,-0.20929 0.10372,-0.42148 -0.008,-0.62151 -0.3138,-0.72284 -0.0442,-1.50759 -0.10002,-2.26139 -0.0418,-0.3937 -0.0151,-0.87551 -0.38999,-1.11866 -0.0873,0.81942 -0.38867,1.58194 -0.63288,2.35955 -0.11272,0.6059 -0.11272,1.2372 -0.37386,1.8087 0.16563,0.5789 -0.16246,1.06627 -0.51753,1.49382 -0.78475,0.40217 -1.718727,0.49768 -2.401617,1.08744 -0.4871,0.41328 -1.01281,0.77549 -1.55786,1.11178 -0.40878,0.5117 -0.86148,1.00462 -1.04351,1.651 -0.73078,0.88239 -0.81704,2.06666 -1.23137,3.10012 -0.008,1.53432 0.30321,3.18638 1.28323,4.41616 0.70114,0.57891 1.19115,1.35758 1.89123,1.93675 0.67204,0.40111 1.38933,0.73078 2.083327,1.09194 0.45243,0.1053 0.91942,0.15716 1.36948,0.28019 0.36513,1.88093 0.61436,3.80762 1.34726,5.59144 0.24315,-0.73236 0.21378,-1.51712 0.4236,-2.25716 0.2958,-1.09431 -0.31115,-2.23335 0.0309,-3.30755 0.51277,-0.45853 1.3679,-0.16087 1.93675,-0.55431 1.08268,-0.66754 2.22832,-1.31762 3.01361,-2.33891 0.29236,-0.58711 0.90646,-1.02579 0.90646,-1.73011 0.005,-0.94853 0.55827,-1.83674 0.34687,-2.79559 z m -8.03619,5.80231 c -0.78449,-0.19076 -1.51527,-0.56594 -2.173287,-1.0242 -0.70802,-0.47175 -0.97208,-1.35202 -1.67057,-1.83462 -0.65405,-0.78079 -0.5125,-1.84732 -0.78052,-2.77178 0.10742,-0.64505 0.23416,-1.28481 0.3011,-1.93807 0.31908,-0.51752 0.81146,-0.93027 0.94799,-1.5531 0.46752,-0.66993 1.17951,-1.13348 1.75128,-1.71424 0.415917,-0.47969 1.077907,-0.27755 1.624267,-0.29607 -0.0542,0.52917 -0.0974,1.07633 0.0352,1.59835 0.0646,0.32068 0.20929,0.63659 0.15981,0.97261 -0.10954,0.71411 0.15849,1.43034 -0.031,2.13624 -0.38179,1.47585 0.0347,2.96572 0.0709,4.45347 -0.0545,0.65908 -0.0852,1.32292 -0.23521,1.97141 z m 5.94704,-2.79664 c -0.51964,0.36935 -0.96229,0.82311 -1.41579,1.26603 -0.78819,0.54504 -1.56712,1.12183 -2.50534,1.39435 0.0847,-0.66913 0.16722,-1.35758 -0.046,-2.01268 -0.52335,-1.48008 0.118,-3.02816 0.22621,-4.52491 -0.0955,-0.88979 -0.004,-1.83912 -0.41222,-2.6588 -0.0534,-0.61568 0.21273,-1.2102 0.39317,-1.78964 0.61966,0.24739 1.20306,0.58129 1.71874,1.01071 0.62283,0.46673 1.57691,0.76941 1.71635,1.63989 0.0712,0.57176 0.69691,0.91757 0.67866,1.50257 -0.0392,1.39065 0.15266,2.84506 -0.35375,4.17248 z"
       id="path124-2-0-1"
       style="fill:url(#linearGradient20);stroke-width:0.264583" />
  </g>
</svg>
