<?xml version="1.0" encoding="UTF-8" standalone="no"?>
<!-- Created with Inkscape (http://www.inkscape.org/) -->

<svg
   width="26.458332mm"
   height="26.458332mm"
   viewBox="0 0 26.458332 26.458332"
   version="1.1"
   id="svg1"
   inkscape:version="1.3 (0e150ed6c4, 2023-07-21)"
   sodipodi:docname="red-phyrexian-pip.svg"
   xmlns:inkscape="http://www.inkscape.org/namespaces/inkscape"
   xmlns:sodipodi="http://sodipodi.sourceforge.net/DTD/sodipodi-0.dtd"
   xmlns:xlink="http://www.w3.org/1999/xlink"
   xmlns="http://www.w3.org/2000/svg"
   xmlns:svg="http://www.w3.org/2000/svg">
  <sodipodi:namedview
     id="namedview1"
     pagecolor="#ffffff"
     bordercolor="#000000"
     borderopacity="0.25"
     inkscape:showpageshadow="2"
     inkscape:pageopacity="0.0"
     inkscape:pagecheckerboard="0"
     inkscape:deskcolor="#d1d1d1"
     inkscape:document-units="mm"
     inkscape:zoom="0.68239338"
     inkscape:cx="-669.70169"
     inkscape:cy="168.5245"
     inkscape:window-width="1920"
     inkscape:window-height="991"
     inkscape:window-x="-9"
     inkscape:window-y="-9"
     inkscape:window-maximized="1"
     inkscape:current-layer="layer1" />
  <defs
     id="defs1">
    <linearGradient
       inkscape:collect="always"
       xlink:href="#linearGradient8"
       id="linearGradient9"
       x1="149.15596"
       y1="107.50553"
       x2="169.56641"
       y2="107.50553"
       gradientUnits="userSpaceOnUse"
       gradientTransform="translate(137.4468,9.626068)" />
    <linearGradient
       id="linearGradient8"
       inkscape:collect="always">
      <stop
         style="stop-color:#0e0e0e;stop-opacity:1;"
         offset="0.13917525"
         id="stop8" />
      <stop
         style="stop-color:#0e0e0e;stop-opacity:0;"
         offset="0.44845361"
         id="stop10" />
      <stop
         style="stop-color:#0e0e0e;stop-opacity:1;"
         offset="0.73195875"
         id="stop9" />
    </linearGradient>
    <linearGradient
       inkscape:collect="always"
       xlink:href="#linearGradient4"
       id="linearGradient7"
       gradientUnits="userSpaceOnUse"
       gradientTransform="translate(190.66557,9.7590138)"
       x1="97.33741"
       y1="107.39807"
       x2="112.01841"
       y2="107.39807" />
    <linearGradient
       id="linearGradient4"
       inkscape:collect="always">
      <stop
         style="stop-color:#121212;stop-opacity:0;"
         offset="0"
         id="stop5" />
      <stop
         style="stop-color:#121212;stop-opacity:1;"
         offset="0.5"
         id="stop7" />
      <stop
         style="stop-color:#121212;stop-opacity:0;"
         offset="1"
         id="stop6" />
    </linearGradient>
  </defs>
  <g
     inkscape:label="Layer 1"
     inkscape:groupmode="layer"
     id="layer1"
     transform="translate(-282.31042,-103.98125)">
    <g
       id="g24"
       transform="matrix(0.26458333,0,0,0.26458333,337.87292,103.98125)"
       style="fill:#adadad;fill-opacity:1">&#10;	<circle
   fill="#e49977"
   cx="-160"
   cy="50"
   r="50"
   id="circle24"
   style="fill:#adadad;fill-opacity:1" />
&#10;</g>
    <path
       fill="#0d0f0f"
       d="m 306.64283,121.607 c -0.98849,2.35796 -2.95275,3.53668 -5.8936,3.53668 -0.53895,0 -1.12342,0.0672 -1.7518,0.20162 -0.94298,0.20214 -1.41447,0.48365 -1.41447,0.84296 0,0.11218 0.0781,0.24077 0.23575,0.38708 0.15663,0.14632 0.2921,0.21855 0.40402,0.21855 -0.56171,0 -0.17992,0.0169 1.14458,0.0505 1.32504,0.0336 2.15583,0.0505 2.49291,0.0505 -1.95342,1.14459 -5.22076,1.6719 -9.80096,1.58247 -1.50495,-0.0222 -2.79559,-0.68474 -3.87324,-1.98702 -1.05621,-1.23534 -1.58326,-2.6162 -1.58326,-4.14284 0,-1.61608 0.54424,-2.99191 1.63406,-4.12618 1.08823,-1.13295 2.44184,-1.70048 4.05818,-1.70048 0.35904,0 0.83609,0.0786 1.4314,0.23575 0.59478,0.15716 0.99377,0.23574 1.19539,0.23574 0.83052,0 1.86398,-0.34211 3.09906,-1.02738 1.23455,-0.68474 1.81901,-1.02737 1.75181,-1.02737 -0.2249,2.35796 -1.01071,3.94123 -2.3585,4.74874 -0.9652,0.56171 -1.44806,1.11151 -1.44806,1.64994 0,0.33681 0.20214,0.60669 0.60616,0.80883 0.31432,0.15743 0.66198,0.23601 1.04378,0.23601 0.58393,0 1.15649,-0.35878 1.7182,-1.07712 0.56065,-0.71914 0.8083,-1.36975 0.7411,-1.95421 -0.0672,-0.67337 -0.0222,-1.48246 0.13494,-2.42464 0.0444,-0.26988 0.20717,-0.60061 0.48789,-0.99325 0.28072,-0.39317 0.5334,-0.63447 0.75803,-0.72443 0,0.20161 -0.0728,0.53896 -0.21908,1.01018 -0.14631,0.47122 -0.21854,0.82021 -0.21854,1.04431 0,0.49398 0.13441,0.87551 0.40402,1.14459 0.40349,-0.15664 0.76279,-0.66199 1.07791,-1.5158 0.26882,-0.65061 0.42571,-1.27953 0.47122,-1.88569 -0.9435,-0.045 -1.84732,-0.47122 -2.71145,-1.28005 -0.86466,-0.80883 -1.29646,-1.68407 -1.29646,-2.62678 0,-0.15717 0.0217,-0.31433 0.0677,-0.47176 0.13441,0.20215 0.33628,0.51674 0.60563,0.94298 0.38179,0.56118 0.67389,0.8419 0.87656,0.8419 0.26882,0 0.40349,-0.28072 0.40349,-0.8419 0,-0.71834 -0.19129,-1.36948 -0.57255,-1.95342 -0.42678,-0.69612 -0.97711,-1.04431 -1.65048,-1.04431 -0.31459,0 -0.78607,0.16854 -1.41393,0.50535 -0.62944,0.33629 -1.202,0.50536 -1.71767,0.50536 -0.1577,0 -0.85434,-0.20267 -2.08889,-0.60669 2.17752,-0.35851 3.26708,-0.68421 3.26708,-0.97658 0,-0.76332 -1.49358,-1.28005 -4.4794,-1.54913 -0.29236,-0.0222 -0.83106,-0.0672 -1.61687,-0.13494 0.0894,-0.11218 0.72972,-0.23574 1.92035,-0.37042 1.01018,-0.11165 1.71767,-0.16854 2.12143,-0.16854 5.34379,0 8.73442,2.59424 10.17137,7.78087 0.24712,-0.20452 0.37095,-0.54663 0.37095,-1.0242 0,-0.61489 -0.17992,-1.38906 -0.53896,-2.32225 -0.13546,-0.3638 -0.34872,-0.91043 -0.64029,-1.63856 1.84071,2.34606 2.76199,4.56935 2.76199,6.66723 0,1.10543 -0.25903,2.10952 -0.77523,3.01122 -0.33602,0.60934 -0.96573,1.38748 -1.88569,2.33522 -0.92075,0.9472 -1.54966,1.68063 -1.88674,2.19948 1.23507,-0.33629 2.0439,-0.59479 2.4257,-0.7747 0.85275,-0.381 1.62719,-0.95409 2.32383,-1.71768 0,0.29263 -0.12356,0.73078 -0.37041,1.31419 z m -14.68491,-13.23578 c 0,0.40349 -0.22489,0.66198 -0.67336,0.77417 l -0.87604,0.13493 c -0.31459,0.15717 -0.7747,0.7747 -1.38086,1.85209 -0.0677,-0.33629 -0.16854,-0.80777 -0.30321,-1.41446 -0.20214,0.0228 -0.53843,0.20214 -1.01018,0.53895 -0.20214,0.15716 -0.52811,0.39264 -0.97711,0.70697 0.13547,-0.8083 0.58394,-1.62666 1.34779,-2.45877 0.8083,-0.91996 1.59412,-1.38034 2.35744,-1.38034 1.01018,0 1.51553,0.41593 1.51553,1.24646 z m 5.86052,3.098 c 0,0.3818 -0.20769,0.70221 -0.62309,0.96018 -0.4154,0.25849 -0.82524,0.38761 -1.22925,0.38761 -0.53896,0 -1.02209,-0.30321 -1.44807,-0.90964 -0.51726,-0.7411 -1.04431,-1.2237 -1.58327,-1.44912 0.11219,-0.11165 0.24713,-0.16801 0.40455,-0.16801 0.20214,0 0.54372,0.15716 1.02685,0.47122 0.4826,0.31459 0.7911,0.47175 0.92657,0.47175 0.11218,0 0.29713,-0.15716 0.55563,-0.47175 0.25796,-0.31432 0.54424,-0.47122 0.85883,-0.47122 0.74084,2.6e-4 1.11125,0.39343 1.11125,1.17898 z"
       id="path25"
       style="fill:url(#linearGradient9);stroke-width:0.264583" />
    <path
       fill="#111212"
       d="m 302.63623,117.1379 c 0.0153,-1.41393 -0.43392,-2.84136 -1.31419,-3.9497 -0.42545,-0.46858 -0.77523,-1.00198 -1.22581,-1.44489 -0.99325,-0.98584 -2.48047,-1.05145 -3.67692,-1.67243 -0.0696,-0.62362 -0.29765,-1.24751 -0.15954,-1.87669 0.0421,-0.20929 0.10372,-0.42148 -0.008,-0.62151 -0.3138,-0.72283 -0.0442,-1.50758 -0.10002,-2.26138 -0.0418,-0.3937 -0.0151,-0.87551 -0.38999,-1.11866 -0.0873,0.81942 -0.38867,1.58194 -0.63288,2.35955 -0.11272,0.60589 -0.11272,1.23719 -0.37386,1.80869 0.16563,0.5789 -0.16246,1.06627 -0.51753,1.49383 -0.78475,0.40217 -1.71873,0.49768 -2.40162,1.08744 -0.4871,0.41328 -1.01281,0.77549 -1.55786,1.11178 -0.40878,0.5117 -0.86148,1.00462 -1.04351,1.651 -0.73078,0.88239 -0.81704,2.06666 -1.23137,3.10012 -0.008,1.53432 0.30321,3.18638 1.28323,4.41616 0.70114,0.57891 1.19115,1.35758 1.89123,1.93675 0.67204,0.40111 1.38933,0.73078 2.08333,1.09194 0.45243,0.1053 0.91942,0.15716 1.36948,0.28019 0.36513,1.88093 0.61436,3.80762 1.34726,5.59144 0.24315,-0.73236 0.21378,-1.51712 0.4236,-2.25716 0.2958,-1.09431 -0.31115,-2.23335 0.0309,-3.30755 0.51277,-0.45853 1.3679,-0.16087 1.93675,-0.55431 1.08268,-0.66754 2.22832,-1.31762 3.01361,-2.33891 0.29236,-0.58711 0.90646,-1.02579 0.90646,-1.73011 0.005,-0.94853 0.55827,-1.83674 0.34687,-2.79559 z m -8.03619,5.80231 c -0.78449,-0.19076 -1.51527,-0.56594 -2.17329,-1.0242 -0.70802,-0.47175 -0.97208,-1.35202 -1.67057,-1.83462 -0.65405,-0.78079 -0.5125,-1.84732 -0.78052,-2.77178 0.10742,-0.64505 0.23416,-1.28481 0.3011,-1.93807 0.31908,-0.51752 0.81146,-0.93027 0.94799,-1.5531 0.46752,-0.66993 1.17951,-1.13348 1.75128,-1.71424 0.41592,-0.47969 1.07791,-0.27755 1.62427,-0.29607 -0.0542,0.52917 -0.0974,1.07633 0.0352,1.59835 0.0646,0.32068 0.20929,0.63659 0.15981,0.97261 -0.10954,0.71411 0.15849,1.43034 -0.031,2.13624 -0.38179,1.47585 0.0347,2.96572 0.0709,4.45347 -0.0545,0.65908 -0.0852,1.32292 -0.23521,1.97141 z m 5.94704,-2.79664 c -0.51964,0.36935 -0.96229,0.82311 -1.41579,1.26603 -0.78819,0.54504 -1.56712,1.12183 -2.50534,1.39435 0.0847,-0.66913 0.16722,-1.35758 -0.046,-2.01268 -0.52335,-1.48008 0.118,-3.02816 0.22621,-4.52491 -0.0955,-0.88979 -0.004,-1.83912 -0.41222,-2.6588 -0.0534,-0.61568 0.21273,-1.2102 0.39317,-1.78964 0.61966,0.24739 1.20306,0.58129 1.71874,1.01071 0.62283,0.46673 1.57691,0.76941 1.71635,1.63989 0.0712,0.57176 0.69691,0.91757 0.67866,1.50257 -0.0392,1.39065 0.15266,2.84506 -0.35375,4.17248 z"
       id="path124-2"
       style="fill:url(#linearGradient7);stroke-width:0.264583" />
  </g>
</svg>
