<?xml version="1.0" encoding="UTF-8" standalone="no"?>
<!-- Created with Inkscape (http://www.inkscape.org/) -->

<svg
   width="26.458332mm"
   height="26.458332mm"
   viewBox="0 0 26.458332 26.458332"
   version="1.1"
   id="svg1"
   inkscape:version="1.3 (0e150ed6c4, 2023-07-21)"
   sodipodi:docname="red-mana-pip.svg"
   xmlns:inkscape="http://www.inkscape.org/namespaces/inkscape"
   xmlns:sodipodi="http://sodipodi.sourceforge.net/DTD/sodipodi-0.dtd"
   xmlns="http://www.w3.org/2000/svg"
   xmlns:svg="http://www.w3.org/2000/svg">
  <sodipodi:namedview
     id="namedview1"
     pagecolor="#ffffff"
     bordercolor="#000000"
     borderopacity="0.25"
     inkscape:showpageshadow="2"
     inkscape:pageopacity="0.0"
     inkscape:pagecheckerboard="0"
     inkscape:deskcolor="#d1d1d1"
     inkscape:document-units="mm"
     inkscape:zoom="0.68239338"
     inkscape:cx="-184.64423"
     inkscape:cy="298.9478"
     inkscape:window-width="1920"
     inkscape:window-height="991"
     inkscape:window-x="-9"
     inkscape:window-y="-9"
     inkscape:window-maximized="1"
     inkscape:current-layer="layer1" />
  <defs
     id="defs1" />
  <g
     inkscape:label="Layer 1"
     inkscape:groupmode="layer"
     id="layer1"
     transform="translate(-153.9875,-69.320833)">
    <circle
       fill="#e49977"
       cx="-160"
       cy="50"
       r="50"
       id="circle24"
       transform="matrix(0.26458333,0,0,0.26458333,209.55,69.320833)"
       style="fill:#adadad;fill-opacity:1" />
    <path
       fill="#0d0f0f"
       d="m 178.31991,86.946581 c -0.98849,2.357966 -2.95275,3.536685 -5.8936,3.536685 -0.53895,0 -1.12342,0.0672 -1.7518,0.201613 -0.94298,0.202141 -1.41447,0.483658 -1.41447,0.842962 0,0.112183 0.0781,0.240771 0.23575,0.387085 0.15663,0.146315 0.2921,0.218546 0.40402,0.218546 -0.56171,0 -0.17992,0.01693 1.14458,0.05054 1.32504,0.0336 2.15583,0.05053 2.49291,0.05053 -1.95342,1.144588 -5.22076,1.671902 -9.80096,1.582473 -1.50495,-0.02222 -2.79559,-0.684742 -3.87324,-1.987021 -1.05621,-1.235339 -1.58326,-2.6162 -1.58326,-4.142846 0,-1.616075 0.54424,-2.991908 1.63406,-4.126177 1.08823,-1.132945 2.44184,-1.700477 4.05818,-1.700477 0.35904,0 0.83609,0.07858 1.4314,0.235744 0.59478,0.157163 0.99377,0.235744 1.19539,0.235744 0.83052,0 1.86398,-0.342106 3.09906,-1.027377 1.23455,-0.684742 1.81901,-1.027377 1.75181,-1.027377 -0.2249,2.357966 -1.01071,3.941233 -2.3585,4.748741 -0.9652,0.561711 -1.44806,1.111515 -1.44806,1.649942 0,0.336815 0.20214,0.60669 0.60616,0.808831 0.31432,0.157427 0.66198,0.236009 1.04378,0.236009 0.58393,0 1.15649,-0.358775 1.7182,-1.077119 0.56065,-0.719138 0.8083,-1.369748 0.7411,-1.954213 -0.0672,-0.673364 -0.0222,-1.48246 0.13494,-2.424641 0.0445,-0.269875 0.20717,-0.600604 0.48789,-0.993246 0.28072,-0.393171 0.5334,-0.634471 0.75803,-0.724429 0,0.201612 -0.0728,0.538956 -0.21908,1.010179 -0.14631,0.471223 -0.21854,0.820208 -0.21854,1.04431 0,0.493977 0.13441,0.875506 0.40402,1.144588 0.40349,-0.156634 0.76279,-0.661988 1.07791,-1.515798 0.26882,-0.650611 0.42571,-1.279525 0.47122,-1.885686 -0.9435,-0.04498 -1.84732,-0.471222 -2.71145,-1.280054 -0.86466,-0.808831 -1.29646,-1.684073 -1.29646,-2.626783 0,-0.157163 0.0217,-0.314325 0.0677,-0.471752 0.13441,0.202142 0.33628,0.516731 0.60563,0.942975 0.38179,0.561181 0.67389,0.841904 0.87656,0.841904 0.26882,0 0.40349,-0.280723 0.40349,-0.841904 0,-0.718344 -0.19129,-1.369483 -0.57255,-1.953419 -0.42678,-0.696119 -0.97711,-1.04431 -1.65048,-1.04431 -0.31459,0 -0.78607,0.168539 -1.41393,0.505354 -0.62944,0.336285 -1.202,0.505354 -1.71767,0.505354 -0.1577,0 -0.85434,-0.202671 -2.08889,-0.606689 2.17752,-0.358511 3.26708,-0.684213 3.26708,-0.976578 0,-0.763322 -1.49358,-1.280054 -4.4794,-1.549135 -0.29236,-0.02222 -0.83106,-0.0672 -1.61687,-0.134937 0.0894,-0.112184 0.72972,-0.235744 1.92035,-0.370417 1.01018,-0.111654 1.71767,-0.16854 2.12143,-0.16854 5.34379,0 8.73442,2.59424 10.17137,7.780867 0.24712,-0.204523 0.37095,-0.546629 0.37095,-1.024202 0,-0.614892 -0.17992,-1.389063 -0.53896,-2.322248 -0.13546,-0.363802 -0.34872,-0.910431 -0.64029,-1.638565 1.84071,2.346061 2.76199,4.569354 2.76199,6.667236 0,1.105429 -0.25903,2.109523 -0.77523,3.011223 -0.33602,0.609335 -0.96573,1.387475 -1.88569,2.335212 -0.92075,0.947208 -1.54966,1.680633 -1.88674,2.199481 1.23507,-0.336285 2.0439,-0.594783 2.4257,-0.7747 0.85275,-0.381 1.62719,-0.954087 2.32383,-1.717675 0,0.292629 -0.12356,0.730779 -0.37041,1.314186 z M 163.635,73.7108 c 0,0.403489 -0.22489,0.661987 -0.67336,0.77417 l -0.87604,0.134938 c -0.31459,0.157162 -0.7747,0.7747 -1.38086,1.852083 -0.0677,-0.336285 -0.16854,-0.807773 -0.30321,-1.414462 -0.20214,0.02275 -0.53843,0.202141 -1.01018,0.538956 -0.20214,0.157163 -0.52811,0.392642 -0.97711,0.706967 0.13547,-0.808302 0.58394,-1.626659 1.34779,-2.458773 0.8083,-0.919956 1.59412,-1.380331 2.35744,-1.380331 1.01018,0 1.51553,0.415925 1.51553,1.246452 z m 5.86052,3.098006 c 0,0.381794 -0.20769,0.702204 -0.62309,0.960173 -0.4154,0.258498 -0.82524,0.387614 -1.22925,0.387614 -0.53896,0 -1.02209,-0.303212 -1.44807,-0.909637 -0.51726,-0.741098 -1.04431,-1.223698 -1.58327,-1.449123 0.11219,-0.111654 0.24713,-0.16801 0.40455,-0.16801 0.20214,0 0.54372,0.157162 1.02685,0.471222 0.4826,0.31459 0.7911,0.471752 0.92657,0.471752 0.11218,0 0.29713,-0.157162 0.55563,-0.471752 0.25796,-0.314325 0.54424,-0.471222 0.85883,-0.471222 0.74084,2.64e-4 1.11125,0.393435 1.11125,1.178983 z"
       id="path25"
       style="stroke-width:0.264583;fill:#000000;fill-opacity:1" />
  </g>
</svg>
