<?xml version="1.0" encoding="UTF-8" standalone="no"?>
<svg
   width="5mm"
   height="5mm"
   viewBox="0 0 5 5"
   version="1.1"
   id="svg1"
   inkscape:version="1.3 (0e150ed6c4, 2023-07-21)"
   sodipodi:docname="white-mana-pip.svg"
   xmlns:inkscape="http://www.inkscape.org/namespaces/inkscape"
   xmlns:sodipodi="http://sodipodi.sourceforge.net/DTD/sodipodi-0.dtd"
   xmlns="http://www.w3.org/2000/svg"
   xmlns:svg="http://www.w3.org/2000/svg">
  <g
     inkscape:label="Layer 1"
     inkscape:groupmode="layer"
     id="layer1"
     transform="translate(-4.5179704,-6.0381079)">
    <path
       fill="#0d0f0f"
       d="M 9.517882,8.9066257 C 9.1739547,8.7137504 8.9534238,8.6171825 8.8564981,8.6171825 c -0.070454,0 -0.1255432,0.053811 -0.1653327,0.1612246 -0.039749,0.1075699 -0.1189933,0.1611205 -0.2380367,0.1611205 -0.048549,0 -0.147723,-0.017519 -0.2976409,-0.05256 -0.083769,0.1272278 -0.1257033,0.2083616 -0.1257033,0.2434014 0,0.048284 0.0361,0.1051194 0.1081935,0.1710796 0.072079,0.065804 0.1328832,0.098602 0.1825275,0.098602 0.03155,0 0.074224,-0.00652 0.1283733,-0.019762 0.054044,-0.013035 0.090214,-0.019657 0.1081935,-0.019657 0.054149,0 0.081094,0.098706 0.081094,0.2960654 0,0.1885996 -0.044049,0.478043 -0.1322531,0.868382 -0.1146935,-0.447384 -0.2358918,-0.6711276 -0.36369,-0.6711276 -0.0177,0 -0.054044,0.01314 -0.1091385,0.039628 -0.055199,0.026175 -0.095929,0.039315 -0.1223483,0.039315 -0.1277983,0 -0.2424417,-0.1161213 -0.3439253,-0.348729 -0.2028122,0.030764 -0.3043008,0.1338496 -0.3043008,0.3094135 0,0.087808 0.040749,0.1578351 0.1224533,0.2103951 0.081409,0.05256 0.1223483,0.09005 0.1223483,0.111846 0,0.11852 -0.1742475,0.300549 -0.5225752,0.546088 -0.1850975,0.131556 -0.3131057,0.22364 -0.3835047,0.2762 0.061539,-0.07884 0.1232932,-0.181822 0.1851974,-0.309102 0.070454,-0.144695 0.1057835,-0.256541 0.1057835,-0.335589 0,-0.0438 -0.050689,-0.105328 -0.1521229,-0.18422 -0.1014886,-0.07884 -0.1520179,-0.162215 -0.1520179,-0.2499184 0,-0.074459 0.0263,-0.1664911 0.079259,-0.2763033 -0.057344,-0.065804 -0.1255432,-0.09881 -0.2049621,-0.09881 -0.1763926,0 -0.2644564,0.057148 -0.2644564,0.1710273 0,-0.078944 0,-0.019762 0,0.1775976 0.0043,0.1447478 -0.1058885,0.2171208 -0.3308204,0.2171208 -0.1718876,0 -0.4608287,-0.03958 -0.8663466,-0.118415 0.4585687,-0.114088 0.687804,-0.2456435 0.687804,-0.394719 0,0.017519 -0.0088,-0.035041 -0.0264,-0.1578878 -0.0177,-0.1357789 0.079364,-0.2586788 0.290981,-0.3682825 -0.03975,-0.2016353 -0.145363,-0.3027395 -0.3175056,-0.3027395 -0.0264,0 -0.075069,0.046094 -0.145468,0.1380213 -0.070559,0.092344 -0.1366581,0.1382818 -0.1983073,0.1382818 -0.1058885,0 -0.2426516,-0.1139835 -0.4100293,-0.3422114 -0.079469,-0.1138794 -0.2007673,-0.282821 -0.36385,-0.5065646 0.1013836,0.052768 0.2028172,0.105328 0.3043008,0.1580442 0.1322532,0.061319 0.2380367,0.092084 0.3175056,0.092084 0.061749,0 0.1223483,-0.053759 0.1818475,-0.1612247 0.059494,-0.1074658 0.1378131,-0.1612246 0.2347918,-0.1612246 0.0133,0 0.1014836,0.02628 0.2645613,0.079048 0.083664,-0.1271756 0.1257033,-0.2215015 0.1257033,-0.2829252 0,-0.052664 -0.03205,-0.1129408 -0.095929,-0.180987 C 5.786748,7.710267 5.7284038,7.67627 5.6754595,7.67627 c -0.0221,0 -0.056194,0.00652 -0.1025836,0.019762 -0.046199,0.01314 -0.080359,0.019762 -0.1023735,0.019762 -0.079469,0 -0.1191534,-0.098706 -0.1191534,-0.2960653 0,-0.052664 0.050794,-0.353005 0.1522279,-0.9012838 -0.00452,0.0657 0.02415,0.1885995 0.085919,0.368335 0.074959,0.2193636 0.1630778,0.3289672 0.2646664,0.3289672 0.0175,0 0.052839,-0.013141 0.1057835,-0.039524 0.052839,-0.02628 0.094724,-0.039315 0.1255983,-0.039315 0.1013836,0 0.1850974,0.057044 0.2513565,0.170871 l 0.099234,0.1775975 c 0.092574,0 0.1697377,-0.032797 0.2313818,-0.098602 0.061749,-0.065804 0.092679,-0.1447998 0.092679,-0.2368835 0,-0.096464 -0.04075,-0.1699845 -0.1223484,-0.2204065 C 6.556123,6.8790626 6.5153937,6.8406856 6.5153937,6.814406 c 0,-0.092188 0.145573,-0.2477813 0.436554,-0.4670927 C 7.1855837,6.1719579 7.3377066,6.0688722 7.4083656,6.0381079 7.2187632,6.2925113 7.1239345,6.4787645 7.1239345,6.5972845 c 0,0.061424 0.03735,0.1272799 0.1124385,0.1973595 0.092574,0.083324 0.145468,0.1425578 0.1586728,0.1775976 0.044049,0.1010521 0.039649,0.2391256 -0.0132,0.414481 0.1190433,0.083428 0.2093671,0.1249333 0.2712212,0.1249333 0.1276933,0 0.1917524,-0.065908 0.1917524,-0.1973594 0,-0.013141 -0.0055,-0.054802 -0.01645,-0.1249334 -0.01115,-0.07008 -0.0143,-0.1096036 -0.01,-0.1184157 0.0176,-0.061424 0.138913,-0.092188 0.3637399,-0.092188 0.1410631,0 0.434199,0.039524 0.8796619,0.11852 -0.097084,0.02628 -0.2425467,0.0657 -0.436449,0.1183635 -0.1763925,0.052664 -0.2646663,0.1118457 -0.2646663,0.1775975 0,0.030764 0.01095,0.083324 0.0331,0.1578355 0.022,0.074668 0.0332,0.1293134 0.0332,0.1645618 0,0.06132 -0.039749,0.1183634 -0.1190484,0.170871 L 8.0829703,8.0445528 c 0.052944,0.096568 0.088169,0.1535599 0.1058885,0.1709755 0.044049,0.052559 0.1035286,0.078944 0.1785426,0.078944 0.052944,0 0.1013836,-0.046042 0.145468,-0.1380735 0.044049,-0.092188 0.1146934,-0.1381777 0.2116171,-0.1381777 0.1189933,0 0.2536115,0.1097078 0.4034794,0.3290715 0.083504,0.1230563 0.213612,0.3093617 0.3900046,0.5593331 z M 8.0497548,8.5251511 c 0,-0.2805791 -0.1037386,-0.524085 -0.3109557,-0.7303088 -0.2072172,-0.2061194 -0.4519138,-0.309205 -0.7340914,-0.309205 -0.2866861,0 -0.5336367,0.102043 -0.7407463,0.3060245 -0.2072171,0.2038773 -0.3131057,0.4484259 -0.3174056,0.7334371 -0.00452,0.2806832 0.1002286,0.5229894 0.3141007,0.7267623 0.213872,0.2039818 0.4618736,0.3060248 0.7439972,0.3060248 0.2997908,0 0.5499914,-0.097663 0.7505491,-0.2927805 0.2007723,-0.1950132 0.2988459,-0.441647 0.294552,-0.7399544 z m -0.099234,0 c 0,0.2675433 -0.090424,0.489149 -0.2712212,0.6642957 C 7.4983971,9.3650106 7.2735652,9.4527144 7.0047044,9.4527144 6.744543,9.4527144 6.521866,9.3628724 6.3367686,9.1829287 6.1516765,9.0032981 6.0589977,8.7839344 6.0589977,8.5251511 c 0,-0.2542993 0.093569,-0.47262 0.2809162,-0.6545456 C 6.5274713,7.6886281 6.7489482,7.597483 7.0047037,7.597483 c 0.2556515,0 0.4772334,0.092084 0.6646868,0.2764078 0.1873474,0.1842195 0.2811311,0.4012367 0.2811303,0.6512603 z"
       id="path28"
       style="stroke-width:0.0522809" />
  </g>
</svg>
