<?xml version="1.0" encoding="UTF-8" standalone="no"?>
<!-- Created with Inkscape (http://www.inkscape.org/) -->

<svg
   width="26.458332mm"
   height="26.458332mm"
   viewBox="0 0 26.458332 26.458332"
   version="1.1"
   id="svg1"
   inkscape:version="1.3 (0e150ed6c4, 2023-07-21)"
   sodipodi:docname="generic-0-pip.svg"
   xmlns:inkscape="http://www.inkscape.org/namespaces/inkscape"
   xmlns:sodipodi="http://sodipodi.sourceforge.net/DTD/sodipodi-0.dtd"
   xmlns="http://www.w3.org/2000/svg"
   xmlns:svg="http://www.w3.org/2000/svg">
  <sodipodi:namedview
     id="namedview1"
     pagecolor="#ffffff"
     bordercolor="#000000"
     borderopacity="0.25"
     inkscape:showpageshadow="2"
     inkscape:pageopacity="0.0"
     inkscape:pagecheckerboard="0"
     inkscape:deskcolor="#d1d1d1"
     inkscape:document-units="mm"
     inkscape:zoom="0.68239338"
     inkscape:cx="49.824634"
     inkscape:cy="49.824634"
     inkscape:window-width="1920"
     inkscape:window-height="991"
     inkscape:window-x="-9"
     inkscape:window-y="-9"
     inkscape:window-maximized="1"
     inkscape:current-layer="layer1" />
  <defs
     id="defs1" />
  <g
     inkscape:label="Layer 1"
     inkscape:groupmode="layer"
     id="layer1"
     transform="translate(-91.810423,-135.20208)">
    <circle
       fill="#cac5c0"
       cx="105.03959"
       cy="148.43124"
       r="13.229166"
       id="circle1"
       style="stroke-width:0.264583;fill:#c5c5c5;fill-opacity:1" />
    <path
       fill="#0d0f0f"
       d="m 97.89584,149.07366 c 0,-2.58948 0.545306,-4.97761 1.638035,-7.1628 1.353875,-2.70828 3.207545,-4.06268 5.559425,-4.06268 2.32754,0 4.14496,1.15332 5.45174,3.45652 1.09193,1.90129 1.63803,4.11083 1.63803,6.62807 0,2.61435 -0.5461,4.97787 -1.63803,7.09163 -1.33112,2.66118 -3.18426,3.99018 -5.55916,3.99018 -2.25716,0 -4.04945,-1.13956 -5.380567,-3.42 -1.139825,-1.9476 -1.709473,-4.12115 -1.709473,-6.52092 z m 2.99217,-1.17581 c 0,3.42 0.51065,6.08118 1.53326,7.98195 0.712,1.32953 1.62613,1.99522 2.74294,1.99522 2.68446,0 4.02722,-2.77971 4.02722,-8.33914 0,-2.44581 -0.21405,-4.51352 -0.64082,-6.20024 -0.73686,-2.77919 -1.98385,-4.16984 -3.74253,-4.16984 -2.61382,0 -3.92007,2.68552 -3.92007,8.05471 z"
       id="path1"
       style="stroke-width:0.264583;fill:#000000;fill-opacity:1" />
  </g>
</svg>
