<?xml version="1.0" encoding="UTF-8" standalone="no"?>
<!-- Created with Inkscape (http://www.inkscape.org/) -->

<svg
   width="26.458332mm"
   height="26.458332mm"
   viewBox="0 0 26.458332 26.458332"
   version="1.1"
   id="svg1"
   inkscape:version="1.3 (0e150ed6c4, 2023-07-21)"
   sodipodi:docname="generic-17-pip.svg"
   xmlns:inkscape="http://www.inkscape.org/namespaces/inkscape"
   xmlns:sodipodi="http://sodipodi.sourceforge.net/DTD/sodipodi-0.dtd"
   xmlns="http://www.w3.org/2000/svg"
   xmlns:svg="http://www.w3.org/2000/svg">
  <sodipodi:namedview
     id="namedview1"
     pagecolor="#ffffff"
     bordercolor="#000000"
     borderopacity="0.25"
     inkscape:showpageshadow="2"
     inkscape:pageopacity="0.0"
     inkscape:pagecheckerboard="0"
     inkscape:deskcolor="#d1d1d1"
     inkscape:document-units="mm"
     inkscape:zoom="0.68239338"
     inkscape:cx="49.824634"
     inkscape:cy="49.824634"
     inkscape:window-width="1920"
     inkscape:window-height="991"
     inkscape:window-x="-9"
     inkscape:window-y="-9"
     inkscape:window-maximized="1"
     inkscape:current-layer="layer1" />
  <defs
     id="defs1" />
  <g
     inkscape:label="Layer 1"
     inkscape:groupmode="layer"
     id="layer1"
     transform="translate(-91.810421,-135.20208)">
    <g
       id="g13"
       style="fill:#c5c5c5;fill-opacity:1"
       transform="matrix(0.26458333,0,0,0.26458333,147.37292,162.98386)">&#10;	<circle
   fill="#CAC5C0"
   cx="-160"
   cy="-55.001999"
   r="50"
   id="circle13"
   style="fill:#c5c5c5;fill-opacity:1" />
&#10;</g>
    <path
       fill="#0d0f0f"
       d="m 100.72979,140.26991 v 13.04581 c 0,1.55549 0.64294,2.33204 1.92749,2.33204 h 0.30374 v 0.87894 h -6.928908 v -0.87894 h 0.47334 c 1.306512,0 1.960562,-0.77682 1.960562,-2.33204 v -8.5508 c 0,-1.57613 -0.563298,-2.36564 -1.689893,-2.36564 h -0.677069 v -0.87842 h 0.270669 c 1.351756,0 2.569368,-0.41698 3.650459,-1.25069 z m 8.65373,16.35786 h -2.3667 v -0.26987 c 0,-1.50998 0.47334,-3.41365 1.41896,-5.7113 1.44277,-3.42609 2.77283,-6.06213 3.98833,-7.90919 l 0.13652,-0.2368 h -5.54381 c -0.81121,0 -1.42531,0.16907 -1.84177,0.50589 -0.41645,0.3384 -0.73898,0.90222 -0.9644,1.69042 h -0.91149 l 1.01388,-4.46114 h 0.60881 c 0.33681,0.15822 0.94668,0.2368 1.82509,0.2368 h 7.29986 v 1.28455 c -0.26988,0.38338 -0.60775,0.99113 -1.01389,1.82457 -0.78951,1.53326 -1.50997,3.31285 -2.16323,5.33982 -0.96943,3.02022 -1.46447,5.58959 -1.48616,7.70625 z"
       id="path13"
       style="stroke-width:0.264583" />
  </g>
</svg>
