<?xml version="1.0" encoding="UTF-8" standalone="no"?>
<!-- Created with Inkscape (http://www.inkscape.org/) -->

<svg
   width="26.458332mm"
   height="26.458332mm"
   viewBox="0 0 26.458332 26.458332"
   version="1.1"
   id="svg1"
   inkscape:version="1.3 (0e150ed6c4, 2023-07-21)"
   sodipodi:docname="generic-18-pip.svg"
   xmlns:inkscape="http://www.inkscape.org/namespaces/inkscape"
   xmlns:sodipodi="http://sodipodi.sourceforge.net/DTD/sodipodi-0.dtd"
   xmlns="http://www.w3.org/2000/svg"
   xmlns:svg="http://www.w3.org/2000/svg">
  <sodipodi:namedview
     id="namedview1"
     pagecolor="#ffffff"
     bordercolor="#000000"
     borderopacity="0.25"
     inkscape:showpageshadow="2"
     inkscape:pageopacity="0.0"
     inkscape:pagecheckerboard="0"
     inkscape:deskcolor="#d1d1d1"
     inkscape:document-units="mm"
     inkscape:zoom="0.68239338"
     inkscape:cx="-20.516026"
     inkscape:cy="361.96131"
     inkscape:window-width="1920"
     inkscape:window-height="991"
     inkscape:window-x="-9"
     inkscape:window-y="-9"
     inkscape:window-maximized="1"
     inkscape:current-layer="layer1" />
  <defs
     id="defs1" />
  <g
     inkscape:label="Layer 1"
     inkscape:groupmode="layer"
     id="layer1"
     transform="translate(-110.33125,-52.652083)">
    <g
       id="g12"
       style="fill:#c5c5c5;fill-opacity:1"
       transform="matrix(0.26458333,0,0,0.26458333,138.1125,80.433862)">&#10;	<circle
   fill="#CAC5C0"
   cx="-55"
   cy="-55.001999"
   r="50"
   id="circle12"
   style="fill:#c5c5c5;fill-opacity:1" />
&#10;</g>
    <path
       fill="#0d0f0f"
       d="m 119.84964,57.736316 v 13.079942 c 0,1.555485 0.6424,2.332302 1.92643,2.332302 h 0.3384 v 0.878681 h -6.96278 V 73.14856 h 0.44027 c 1.32847,0 1.99417,-0.777081 1.99417,-2.332302 v -8.584142 c 0,-1.577445 -0.56436,-2.36511 -1.69043,-2.36511 h -0.67654 V 58.98806 h 0.27067 c 1.35176,0 2.56884,-0.416454 3.64993,-1.251214 h 0.70988 z m 5.98196,8.043598 -0.33787,-0.26961 c -1.05887,-0.720725 -1.75763,-1.2954 -2.09444,-1.723231 -0.40561,-0.563827 -0.60934,-1.217084 -0.60934,-1.961092 0,-1.239044 0.52917,-2.252662 1.58803,-3.041915 0.94615,-0.742685 2.07433,-1.115483 3.38058,-1.115483 1.21708,0 2.29817,0.316177 3.24432,0.94615 1.03664,0.722048 1.55549,1.679311 1.55549,2.872846 0,1.442508 -0.99166,2.603235 -2.97498,3.481917 2.27648,1.10437 3.41366,2.64742 3.41366,4.630472 0,1.419225 -0.55192,2.545557 -1.6563,3.378994 -0.94562,0.744273 -2.15185,1.115219 -3.61685,1.115219 -1.39674,0 -2.59054,-0.34925 -3.58219,-1.048015 -1.1483,-0.787929 -1.7235,-1.835679 -1.7235,-3.142191 0,-1.329796 0.61913,-2.410884 1.85923,-3.245909 0.31538,-0.223308 0.8337,-0.516466 1.55416,-0.878152 z m 0.94615,0.372798 c -1.64439,0.765969 -2.46697,1.959504 -2.46697,3.582458 0,1.036903 0.3384,1.875896 1.01335,2.51804 0.67707,0.642408 1.52135,0.962819 2.5363,0.962819 0.94615,0 1.74519,-0.252942 2.39977,-0.760413 0.65325,-0.506148 0.97922,-1.210204 0.97922,-2.112433 0,-1.373717 -0.87895,-2.478088 -2.63657,-3.311525 z m 1.85923,-1.622689 c 1.465,-0.653257 2.1963,-1.621367 2.1963,-2.905655 0,-0.878681 -0.30903,-1.588558 -0.92815,-2.130424 -0.62019,-0.540544 -1.38087,-0.810155 -2.28151,-0.810155 -0.74427,0 -1.40811,0.213255 -1.99416,0.640821 -0.58711,0.429154 -0.87842,1.015206 -0.87842,1.757892 0,0.901964 0.41646,1.622689 1.25016,2.163233 0.17991,0.112713 0.92392,0.473075 2.23044,1.082411 z"
       id="path12"
       style="stroke-width:0.264583" />
  </g>
</svg>
