<?xml version="1.0" encoding="UTF-8" standalone="no"?>
<!-- Created with Inkscape (http://www.inkscape.org/) -->

<svg
   width="26.458332mm"
   height="26.458332mm"
   viewBox="0 0 26.458332 26.458332"
   version="1.1"
   id="svg1"
   inkscape:version="1.3 (0e150ed6c4, 2023-07-21)"
   sodipodi:docname="generic-6-pip.svg"
   xmlns:inkscape="http://www.inkscape.org/namespaces/inkscape"
   xmlns:sodipodi="http://sodipodi.sourceforge.net/DTD/sodipodi-0.dtd"
   xmlns="http://www.w3.org/2000/svg"
   xmlns:svg="http://www.w3.org/2000/svg">
  <sodipodi:namedview
     id="namedview1"
     pagecolor="#ffffff"
     bordercolor="#000000"
     borderopacity="0.25"
     inkscape:showpageshadow="2"
     inkscape:pageopacity="0.0"
     inkscape:pagecheckerboard="0"
     inkscape:deskcolor="#d1d1d1"
     inkscape:document-units="mm"
     inkscape:zoom="0.68239338"
     inkscape:cx="-96.718406"
     inkscape:cy="288.68979"
     inkscape:window-width="1920"
     inkscape:window-height="991"
     inkscape:window-x="-9"
     inkscape:window-y="-9"
     inkscape:window-maximized="1"
     inkscape:current-layer="layer1" />
  <defs
     id="defs1" />
  <g
     inkscape:label="Layer 1"
     inkscape:groupmode="layer"
     id="layer1"
     transform="translate(-130.70417,-71.966672)">
    <g
       id="g7"
       style="fill:#c5c5c5;fill-opacity:1"
       transform="matrix(0.26458333,0,0,0.26458333,214.04792,127.5297)">&#10;	<circle
   fill="#CAC5C0"
   cx="-265"
   cy="-160.002"
   r="50"
   id="circle7"
   style="fill:#c5c5c5;fill-opacity:1" />
&#10;</g>
    <path
       fill="#0d0f0f"
       d="m 140.38263,83.787461 c 1.57004,-1.475581 3.15119,-2.212975 4.74636,-2.212975 1.73672,0 3.12949,0.689504 4.17698,2.069306 0.97419,1.262063 1.46288,2.783681 1.46288,4.569354 0,1.951567 -0.57097,3.664215 -1.71318,5.139532 -1.26153,1.617662 -2.83183,2.427287 -4.71143,2.427287 -2.2614,0 -4.06956,-0.976313 -5.42502,-2.927085 -1.21444,-1.713707 -1.82113,-3.748352 -1.82113,-6.104202 0,-2.497667 0.68977,-4.799807 2.0701,-6.90589 1.37927,-2.105554 3.22369,-3.598862 5.53138,-4.478867 1.30889,-0.499533 2.69028,-0.751152 4.14073,-0.751152 v 1.107017 c -3.09324,0.166952 -5.4012,1.404408 -6.9252,3.712369 -0.78264,1.190889 -1.29514,2.641335 -1.53247,4.355306 z m -0.21484,2.141008 c -0.0228,0.428096 -0.0352,0.856721 -0.0352,1.285082 0,1.64121 0.28522,3.164416 0.85619,4.569089 0.73686,1.831446 1.82113,2.747698 3.24882,2.747698 1.23666,0 2.16429,-0.629973 2.78342,-1.892035 0.47545,-0.974725 0.71358,-2.152386 0.71358,-3.533511 0,-1.473994 -0.22675,-2.736321 -0.67813,-3.783277 -0.61913,-1.427692 -1.57057,-2.141008 -2.85565,-2.141008 -1.56977,-2.65e-4 -2.91491,0.916516 -4.03304,2.747962 z"
       id="path7"
       style="stroke-width:0.264583" />
  </g>
</svg>
