<?xml version="1.0" encoding="UTF-8" standalone="no"?>
<!-- Created with Inkscape (http://www.inkscape.org/) -->

<svg
   width="26.458332mm"
   height="26.458332mm"
   viewBox="0 0 26.458332 26.458332"
   version="1.1"
   id="svg1"
   inkscape:version="1.3 (0e150ed6c4, 2023-07-21)"
   sodipodi:docname="black-phyrexian-pip.svg"
   xmlns:inkscape="http://www.inkscape.org/namespaces/inkscape"
   xmlns:sodipodi="http://sodipodi.sourceforge.net/DTD/sodipodi-0.dtd"
   xmlns:xlink="http://www.w3.org/1999/xlink"
   xmlns="http://www.w3.org/2000/svg"
   xmlns:svg="http://www.w3.org/2000/svg">
  <sodipodi:namedview
     id="namedview1"
     pagecolor="#ffffff"
     bordercolor="#000000"
     borderopacity="0.25"
     inkscape:showpageshadow="2"
     inkscape:pageopacity="0.0"
     inkscape:pagecheckerboard="0"
     inkscape:deskcolor="#d1d1d1"
     inkscape:document-units="mm"
     inkscape:zoom="0.68239338"
     inkscape:cx="216.8837"
     inkscape:cy="-184.64423"
     inkscape:window-width="1920"
     inkscape:window-height="991"
     inkscape:window-x="-9"
     inkscape:window-y="-9"
     inkscape:window-maximized="1"
     inkscape:current-layer="layer1" />
  <defs
     id="defs1">
    <linearGradient
       inkscape:collect="always"
       xlink:href="#linearGradient16"
       id="linearGradient10"
       gradientUnits="userSpaceOnUse"
       gradientTransform="translate(-44.24118,103.20333)"
       x1="97.33741"
       y1="107.39807"
       x2="112.01841"
       y2="107.39807" />
    <linearGradient
       id="linearGradient16"
       inkscape:collect="always">
      <stop
         style="stop-color:#121212;stop-opacity:0;"
         offset="0"
         id="stop14" />
      <stop
         style="stop-color:#121212;stop-opacity:1;"
         offset="0.48969072"
         id="stop15" />
      <stop
         style="stop-color:#121212;stop-opacity:0;"
         offset="1"
         id="stop16" />
    </linearGradient>
    <linearGradient
       inkscape:collect="always"
       xlink:href="#linearGradient11"
       id="linearGradient12"
       x1="66.449905"
       y1="132.09111"
       x2="87.985397"
       y2="132.09111"
       gradientUnits="userSpaceOnUse"
       gradientTransform="translate(-16.364011,78.517887)" />
    <linearGradient
       id="linearGradient11"
       inkscape:collect="always">
      <stop
         style="stop-color:#0e0e0e;stop-opacity:1;"
         offset="0.20876287"
         id="stop11" />
      <stop
         style="stop-color:#0d0f0f;stop-opacity:0;"
         offset="0.5"
         id="stop13" />
      <stop
         style="stop-color:#0e0e0e;stop-opacity:1;"
         offset="0.7525773"
         id="stop12" />
    </linearGradient>
  </defs>
  <g
     inkscape:label="Layer 1"
     inkscape:groupmode="layer"
     id="layer1"
     transform="translate(-47.625001,-197.37917)">
    <g
       id="g25"
       transform="matrix(0.26458333,0,0,0.26458333,130.96875,197.3797)"
       style="fill:#b3b3b3;fill-opacity:1">&#10;	<circle
   fill="#bab1ab"
   cx="-265"
   cy="49.998001"
   r="50"
   id="circle25"
   style="fill:#b3b3b3;fill-opacity:1" />
&#10;</g>
    <path
       fill="#111212"
       d="m 67.729477,210.58221 c 0.0153,-1.41393 -0.43392,-2.84136 -1.31419,-3.9497 -0.42545,-0.46858 -0.77523,-1.00198 -1.22581,-1.44489 -0.99325,-0.98584 -2.480469,-1.05145 -3.676919,-1.67243 -0.0696,-0.62361 -0.29765,-1.2475 -0.15954,-1.87668 0.0421,-0.20929 0.10372,-0.42148 -0.008,-0.62151 -0.3138,-0.72284 -0.0442,-1.50759 -0.10002,-2.26139 -0.0418,-0.3937 -0.0151,-0.87551 -0.38999,-1.11866 -0.0873,0.81942 -0.38867,1.58194 -0.63288,2.35955 -0.11272,0.6059 -0.11272,1.2372 -0.37386,1.8087 0.16563,0.5789 -0.16246,1.06627 -0.51753,1.49382 -0.78475,0.40217 -1.71873,0.49768 -2.40162,1.08744 -0.4871,0.41328 -1.01281,0.77549 -1.55786,1.11178 -0.40878,0.5117 -0.86148,1.00462 -1.04351,1.651 -0.73078,0.88239 -0.81704,2.06666 -1.23137,3.10012 -0.008,1.53432 0.30321,3.18638 1.28323,4.41616 0.70114,0.57891 1.19115,1.35758 1.89123,1.93675 0.67204,0.40111 1.38933,0.73078 2.08333,1.09194 0.45243,0.1053 0.91942,0.15716 1.36948,0.28019 0.36513,1.88093 0.61436,3.80762 1.34726,5.59144 0.24315,-0.73236 0.21378,-1.51712 0.4236,-2.25716 0.2958,-1.09431 -0.31115,-2.23335 0.0309,-3.30755 0.51277,-0.45853 1.3679,-0.16087 1.936749,-0.55431 1.08268,-0.66754 2.22832,-1.31762 3.01361,-2.33891 0.29236,-0.58711 0.90646,-1.02579 0.90646,-1.73011 0.005,-0.94853 0.55827,-1.83674 0.34687,-2.79559 z m -8.036189,5.80231 c -0.78449,-0.19076 -1.51527,-0.56594 -2.17329,-1.0242 -0.70802,-0.47175 -0.97208,-1.35202 -1.67057,-1.83462 -0.65405,-0.78079 -0.5125,-1.84732 -0.78052,-2.77178 0.10742,-0.64505 0.23416,-1.28481 0.3011,-1.93807 0.31908,-0.51752 0.81146,-0.93027 0.94799,-1.5531 0.46752,-0.66993 1.17951,-1.13348 1.75128,-1.71424 0.41592,-0.47969 1.07791,-0.27755 1.62427,-0.29607 -0.0542,0.52917 -0.0974,1.07633 0.0352,1.59835 0.0646,0.32068 0.20929,0.63659 0.15981,0.97261 -0.10954,0.71411 0.15849,1.43034 -0.031,2.13624 -0.38179,1.47585 0.0347,2.96572 0.0709,4.45347 -0.0545,0.65908 -0.0852,1.32292 -0.23521,1.97141 z m 5.947039,-2.79664 c -0.51964,0.36935 -0.96229,0.82311 -1.41579,1.26603 -0.78819,0.54504 -1.567119,1.12183 -2.505339,1.39435 0.0847,-0.66913 0.16722,-1.35758 -0.046,-2.01268 -0.52335,-1.48008 0.118,-3.02816 0.22621,-4.52491 -0.0955,-0.88979 -0.004,-1.83912 -0.41222,-2.6588 -0.0534,-0.61568 0.21273,-1.2102 0.39317,-1.78964 0.61966,0.24739 1.20306,0.58129 1.718739,1.01071 0.62283,0.46673 1.57691,0.76941 1.71635,1.63989 0.0712,0.57176 0.69691,0.91757 0.67866,1.50257 -0.0392,1.39065 0.15266,2.84506 -0.35375,4.17248 z"
       id="path124-2-2"
       style="fill:url(#linearGradient10);stroke-width:0.264583" />
    <path
       fill="#0d0f0f"
       d="m 71.621389,210.24348 c 0,1.45997 -0.53129,2.45559 -1.5928,2.98635 -0.31009,0.15504 -1.28322,0.36486 -2.920202,0.6305 -1.061508,0.17727 -1.592262,0.58658 -1.592262,1.2274 v 2.68764 c 0,0.11165 0.03307,0.45376 0.09922,1.02897 l 0.09975,1.06203 c 0,0.33205 -0.07752,0.87472 -0.232568,1.62613 -0.420159,0.0884 -0.906992,0.18759 -1.459971,0.29951 -0.177271,-0.66437 -0.265642,-1.1176 -0.265642,-1.36155 0,-0.11006 0.02778,-0.27649 0.08282,-0.49794 0.05477,-0.22066 0.08361,-0.38656 0.08361,-0.49821 0,-0.15346 -0.137583,-0.58552 -0.412485,-1.29302 h -0.514615 c -0.06826,0.1106 -0.09102,0.25426 -0.06879,0.43101 0.08837,0.37623 0.121443,0.69664 0.09975,0.96229 -0.376237,0.26564 -0.896143,0.61938 -1.559718,1.06177 -0.155046,-0.0439 -0.209815,-0.0661 -0.166423,-0.0661 v -2.35585 c -0.04339,-0.11006 -0.154517,-0.15372 -0.331788,-0.13282 h -0.397933 l -0.397933,3.11865 c -0.310621,0.0222 -0.6858,0.0222 -1.128184,0 -0.155575,-0.72973 -0.431535,-1.81319 -0.829468,-3.25147 h -0.265642 c -0.243946,0.77497 -0.376238,1.19565 -0.398463,1.2618 0,0.0884 0.02752,0.25955 0.08308,0.51382 0.05477,0.25453 0.08281,0.42571 0.08281,0.51408 0,0.0661 -0.02222,0.23204 -0.06615,0.49769 l -0.09975,0.79639 c -0.04445,0.0439 -0.09975,0.0661 -0.165893,0.0661 -0.663575,0 -1.106488,-0.1659 -1.32715,-0.49715 -0.221192,-0.33232 -0.310092,-0.79693 -0.265642,-1.39462 l 0.265642,-3.98119 c 0,-0.0667 0.0217,-0.15504 0.06615,-0.26564 0.04339,-0.1106 0.06614,-0.18812 0.06614,-0.23204 0,-0.17727 -0.188118,-0.53128 -0.563827,-1.06204 -0.06562,-0.0217 -0.409839,-0.0998 -1.028435,-0.23257 -0.376767,-0.0884 -1.117865,-0.24288 -2.223029,-0.4646 -1.526911,-0.28681 -2.289704,-1.51474 -2.289704,-3.683 0,-3.22977 1.327679,-5.91741 3.982243,-8.06318 0.109538,0.59743 0.298186,1.39329 0.563298,2.38892 0.199496,0.045 0.631031,0.1442 1.294077,0.29872 0.13335,0.0444 0.807773,0.28786 2.024592,0.73025 -0.620183,-0.37624 -1.426898,-0.98399 -2.422525,-1.8251 -0.376238,-0.44238 -0.564356,-1.18295 -0.564356,-2.2225 0,-0.24342 0.420687,-0.53128 1.261533,-0.8636 0.751417,-0.30956 1.316302,-0.48577 1.692275,-0.53075 1.194329,-0.15399 2.112433,-0.23257 2.754312,-0.23257 2.764632,0 4.998244,0.70855 6.701367,2.12434 -0.55245,0.64188 -1.503892,1.32662 -2.853002,2.0566 0.531283,0.0222 1.305454,-0.18706 2.322777,-0.6305 1.017058,-0.44185 1.448594,-0.66357 1.294077,-0.66357 0.176742,0 0.531277,0.35454 1.062037,1.06203 0.39793,0.53076 0.71834,1.00727 0.96229,1.42637 0.70749,1.26154 1.18295,2.62149 1.42689,4.08146 0,0.50959 0.0109,0.87445 0.0331,1.09512 v 0.26564 z m -12.708206,0.59743 c 0,-0.95092 -0.414866,-1.85262 -1.244335,-2.70484 -0.829998,-0.85169 -1.720321,-1.27688 -2.671233,-1.27688 -0.840846,0 -1.581415,0.35666 -2.22303,1.06865 -0.641879,0.71253 -0.962289,1.50337 -0.962289,2.37146 0,0.75645 0.36486,1.24699 1.09511,1.46924 0.464609,0.13387 1.116277,0.21193 1.957388,0.23362 h 1.825096 c 1.481137,0.0222 2.223293,-0.36486 2.223293,-1.16125 z m 3.616325,4.11506 v -1.02896 c -0.154516,-0.28734 -0.309562,-0.58606 -0.464079,-0.89615 -0.132821,-0.44291 -0.376237,-1.06204 -0.73025,-1.8587 l -0.36539,3.8825 c 0,0.31009 -0.06614,0.46461 -0.198966,0.46461 -0.08837,0 -0.154517,-0.0217 -0.198967,-0.0656 -0.155046,-2.345 -0.232569,-3.36259 -0.232569,-3.05355 v -1.16073 c -0.04445,-0.0672 -0.09922,-0.10028 -0.165364,-0.10028 -0.752475,0.77523 -1.128184,2.02459 -1.128184,3.74968 0,0.95144 0.08731,1.53749 0.265113,1.75895 0.177271,-0.0439 0.376237,-0.12145 0.597429,-0.23204 0.08837,-0.0445 0.342636,-0.0667 0.763852,-0.0667 0.4191,0 0.928688,0.13282 1.525588,0.39794 0.221191,0 0.331787,-0.5969 0.331787,-1.79097 z m 7.499351,-4.62359 c 0,-0.89086 -0.33179,-1.68672 -0.99536,-2.38787 -0.664108,-0.70061 -1.42743,-1.05172 -2.289178,-1.05172 -0.929217,0 -1.797844,0.42519 -2.605088,1.27688 -0.807773,0.8517 -1.211262,1.74202 -1.211262,2.67124 0,0.7747 0.375708,1.16125 1.128183,1.16125 h 3.815821 c 1.437484,-0.0217 2.156884,-0.57838 2.156884,-1.66978 z"
       id="path26"
       style="fill:url(#linearGradient12);stroke-width:0.264583" />
  </g>
</svg>
