<?xml version="1.0" encoding="UTF-8" standalone="no"?>
<svg
   viewBox="0 0 100 100"
   version="1.1"
   id="svg1"
   sodipodi:docname="colorless-mana-pip.svg"
   width="26.458334mm"
   height="26.458334mm"
   inkscape:version="1.3 (0e150ed6c4, 2023-07-21)"
   xmlns:inkscape="http://www.inkscape.org/namespaces/inkscape"
   xmlns:sodipodi="http://sodipodi.sourceforge.net/DTD/sodipodi-0.dtd"
   xmlns="http://www.w3.org/2000/svg"
   xmlns:svg="http://www.w3.org/2000/svg">
  <defs
     id="defs1" />
  <sodipodi:namedview
     id="namedview1"
     pagecolor="#ffffff"
     bordercolor="#000000"
     borderopacity="0.25"
     inkscape:showpageshadow="2"
     inkscape:pageopacity="0.0"
     inkscape:pagecheckerboard="0"
     inkscape:deskcolor="#d1d1d1"
     inkscape:zoom="1.2766667"
     inkscape:cx="290.20887"
     inkscape:cy="226.37075"
     inkscape:window-width="1575"
     inkscape:window-height="1033"
     inkscape:window-x="116"
     inkscape:window-y="0"
     inkscape:window-maximized="0"
     inkscape:current-layer="svg1"
     inkscape:document-units="mm" />
  <circle
     cx="50"
     cy="50"
     fill="#ccc2c0"
     id="circle1"
     style="fill:#c6c6c6;fill-opacity:1;stroke-width:0.166666"
     r="50" />
  <path
     d="M 50.000006,10.000003 A 83.333331,83.333331 0 0 0 90.000011,50.000004 83.333331,83.333331 0 0 0 50.000006,89.999995 83.333331,83.333331 0 0 0 10.000005,50.000004 83.333331,83.333331 0 0 0 50.000006,10.000003 m 0,15.000008 a 49.999998,49.999998 0 0 1 -25,24.999993 49.999998,49.999998 0 0 1 25,25.000001 A 49.999998,49.999998 0 0 1 75.000007,50.000004 49.999998,49.999998 0 0 1 50.000006,25.000011"
     fill="#130c0e"
     id="path1"
     style="fill:#101010;fill-opacity:1;stroke-width:0.166666" />
</svg>
