<?xml version="1.0" encoding="UTF-8" standalone="no"?>
<!-- Created with Inkscape (http://www.inkscape.org/) -->

<svg
   width="26.458332mm"
   height="26.458332mm"
   viewBox="0 0 26.458332 26.458332"
   version="1.1"
   id="svg1"
   inkscape:version="1.3 (0e150ed6c4, 2023-07-21)"
   sodipodi:docname="green-phyrexian-pip.svg"
   xmlns:inkscape="http://www.inkscape.org/namespaces/inkscape"
   xmlns:sodipodi="http://sodipodi.sourceforge.net/DTD/sodipodi-0.dtd"
   xmlns:xlink="http://www.w3.org/1999/xlink"
   xmlns="http://www.w3.org/2000/svg"
   xmlns:svg="http://www.w3.org/2000/svg">
  <sodipodi:namedview
     id="namedview1"
     pagecolor="#ffffff"
     bordercolor="#000000"
     borderopacity="0.25"
     inkscape:showpageshadow="2"
     inkscape:pageopacity="0.0"
     inkscape:pagecheckerboard="0"
     inkscape:deskcolor="#d1d1d1"
     inkscape:document-units="mm"
     inkscape:zoom="0.68239338"
     inkscape:cx="-414.7168"
     inkscape:cy="-153.87019"
     inkscape:window-width="1920"
     inkscape:window-height="991"
     inkscape:window-x="-9"
     inkscape:window-y="-9"
     inkscape:window-maximized="1"
     inkscape:current-layer="layer1" />
  <defs
     id="defs1">
    <linearGradient
       inkscape:collect="always"
       xlink:href="#linearGradient18"
       id="linearGradient19"
       x1="121.05575"
       y1="136.43312"
       x2="144.15758"
       y2="136.43312"
       gradientUnits="userSpaceOnUse"
       gradientTransform="translate(95.491947,66.182983)" />
    <linearGradient
       id="linearGradient18"
       inkscape:collect="always">
      <stop
         style="stop-color:#0e0e0e;stop-opacity:1;"
         offset="0.17525773"
         id="stop18" />
      <stop
         style="stop-color:#0e0e0e;stop-opacity:0;"
         offset="0.5"
         id="stop20" />
      <stop
         style="stop-color:#0e0e0e;stop-opacity:1;"
         offset="0.78865981"
         id="stop19" />
    </linearGradient>
    <linearGradient
       inkscape:collect="always"
       xlink:href="#linearGradient4"
       id="linearGradient17"
       gradientUnits="userSpaceOnUse"
       gradientTransform="translate(123.11237,94.989543)"
       x1="97.33741"
       y1="107.39807"
       x2="112.01841"
       y2="107.39807" />
    <linearGradient
       id="linearGradient4"
       inkscape:collect="always">
      <stop
         style="stop-color:#121212;stop-opacity:0;"
         offset="0"
         id="stop5" />
      <stop
         style="stop-color:#121212;stop-opacity:1;"
         offset="0.5"
         id="stop7" />
      <stop
         style="stop-color:#121212;stop-opacity:0;"
         offset="1"
         id="stop6" />
    </linearGradient>
  </defs>
  <g
     inkscape:label="Layer 1"
     inkscape:groupmode="layer"
     id="layer1"
     transform="translate(-214.84167,-189.17708)">
    <g
       id="g23"
       transform="matrix(0.26458333,0,0,0.26458333,242.62292,189.17708)"
       style="fill:#ababab;fill-opacity:1">&#10;	<path
   fill="#a3c095"
   d="M -5,49.998 C -5,77.613 -27.385,100 -55.002,100 -82.615,100 -105,77.613 -105,49.998 -105,22.385 -82.615,0 -55.002,0 -27.385,0 -5,22.385 -5,49.998 Z"
   id="path23"
   style="fill:#ababab;fill-opacity:1" />
&#10;</g>
    <path
       fill="#0d0f0f"
       d="m 239.64953,204.05328 c 0,0.44132 -0.17065,0.83714 -0.51223,1.19009 -0.34105,0.35243 -0.7329,0.52864 -1.17369,0.52864 -0.70432,0 -1.22317,-0.33073 -1.55284,-0.99166 l -1.55337,-0.0661 c -0.33126,0 -0.98134,0.14367 -1.95024,0.42994 -1.03558,0.28628 -1.6309,0.51779 -1.78488,0.69401 -0.24236,0.26405 -0.44027,0.88159 -0.59479,1.85102 -0.13282,0.79322 -0.19791,1.37716 -0.19791,1.75181 0,0.59425 0.0931,1.03002 0.28073,1.30545 0.18759,0.27543 0.57309,0.50694 1.15649,0.694 0.58341,0.18706 0.94218,0.2921 1.07447,0.31406 0.0879,0 0.23099,-0.0108 0.42995,-0.0331 h 0.39635 c 0.28575,0 0.5834,0.045 0.89244,0.13229 0.44079,0.1323 0.62838,0.30851 0.56224,0.52917 -0.30904,-0.0439 -0.84852,0.0222 -1.61952,0.19844 l 0.92499,0.46249 c 0,0.26458 -0.37465,0.39635 -1.12342,0.39635 -0.19897,0 -0.46858,-0.0439 -0.81042,-0.13177 -0.34158,-0.0889 -0.56753,-0.13229 -0.67707,-0.13229 h -0.42995 c -0.0217,0.22013 -0.0884,0.55033 -0.19844,0.99113 -0.37518,-0.0222 -0.81491,-0.24289 -1.32186,-0.66093 -0.50747,-0.41804 -0.82629,-0.62786 -0.95805,-0.62786 -0.13282,0 -0.32041,0.20982 -0.56224,0.62786 -0.24289,0.41804 -0.3638,0.70485 -0.3638,0.85937 -0.28628,-0.15452 -0.52811,-0.44133 -0.72761,-0.85937 -0.0878,-0.28681 -0.18706,-0.57309 -0.2966,-0.85937 -0.22013,0.0222 -0.62838,0.48525 -1.22264,1.38854 h -0.16589 c -0.0439,-0.0667 -0.21034,-0.52917 -0.49556,-1.38854 -0.68316,-0.22013 -1.32186,-0.3302 -1.91717,-0.3302 -0.28628,0 -0.72708,0.0662 -1.32186,0.19791 l -0.92499,-0.0656 c 0.13177,-0.1323 0.51726,-0.3855 1.1565,-0.76015 0.74877,-0.4408 1.32186,-0.66146 1.71873,-0.66146 0.0651,0 0.15293,0.0114 0.26458,0.0331 0.10954,0.0228 0.19844,0.0331 0.26459,0.0331 0.15293,0 0.40163,-0.0825 0.74321,-0.24818 0.34158,-0.16484 0.53949,-0.3138 0.59426,-0.44556 0.0558,-0.13335 0.0836,-0.4744 0.0836,-1.02526 0,-1.25571 -0.33072,-2.19208 -0.99218,-2.80908 -0.57362,-0.55087 -1.5203,-0.94721 -2.84269,-1.1901 -0.35242,1.25571 -1.34408,1.88463 -2.97391,1.88463 -0.52917,0 -1.05781,-0.31935 -1.58644,-0.95859 -0.52811,-0.63923 -0.7927,-1.22317 -0.7927,-1.7518 0,-0.81545 0.34052,-1.48723 1.02368,-2.01692 -0.55034,-0.57203 -0.82577,-1.15597 -0.82577,-1.75075 0,-0.55139 0.17013,-1.03558 0.51224,-1.45521 0.34157,-0.41751 0.78766,-0.6604 1.33852,-0.72707 -0.0439,-0.70432 0.18706,-1.18957 0.694,-1.45415 -0.24235,-0.24183 -0.36327,-0.67125 -0.36327,-1.28826 0,-0.72708 0.24236,-1.33324 0.72708,-1.81795 0.48418,-0.48472 1.09034,-0.72761 1.81742,-0.72761 0.79375,0 1.44383,0.27649 1.95024,0.82683 0.63924,-2.18123 2.01639,-3.27211 4.13094,-3.27211 1.10173,0 2.07116,0.4408 2.90883,1.32239 0.30851,0.3302 0.46249,0.50694 0.46249,0.52811 -0.26458,0 -0.13176,-0.0497 0.39688,-0.14843 0.52811,-0.0992 0.9136,-0.14896 1.15702,-0.14896 0.85884,0 1.61899,0.31935 2.28045,0.95858 0.57255,0.57309 0.96943,1.29964 1.19009,2.18123 0.15346,0.0222 0.39635,0.0878 0.72708,0.19791 0.48418,0.24341 0.72707,0.66093 0.72707,1.25624 0,0.11059 -0.0889,0.31988 -0.26458,0.62786 1.4097,0.79322 2.11508,1.89494 2.11508,3.30517 0,0.39635 -0.15399,0.94827 -0.46249,1.65285 0.57308,0.32994 0.85883,0.81518 0.85883,1.45389 z m -13.61731,1.45415 v -0.42942 c 0,-0.50641 -0.24765,-0.96943 -0.74321,-1.38801 -0.4961,-0.41857 -0.99748,-0.62785 -1.50389,-0.62785 -0.61754,0 -1.18957,0.14314 -1.71874,0.42889 1.16761,-0.0656 2.49,0.60669 3.96584,2.01639 z m -0.59425,-4.09813 c -0.33073,-0.37518 -0.61701,-0.76068 -0.8599,-1.15703 -0.92551,0.24236 -1.388,0.51779 -1.388,0.82577 0.26458,-0.0212 0.65008,0.0278 1.15649,0.14922 0.50641,0.12145 0.87075,0.18204 1.09141,0.18204 z m 2.01639,-1.02473 v -1.45415 c -0.52917,-0.0879 -0.84958,-0.1323 -0.95859,-0.1323 v 0.49557 z m 4.2963,-0.92552 c -0.26458,-0.11006 -0.76068,-0.33073 -1.48722,-0.66093 v 2.84216 c 1.03505,-0.59531 1.53061,-1.32239 1.48722,-2.18123 z m 1.8169,3.90023 -0.72655,-0.89244 c -0.44027,0.30876 -0.88688,0.62283 -1.33906,0.94218 -0.45217,0.31935 -0.84296,0.67812 -1.17263,1.07421 0.99139,-0.5297 2.07142,-0.90329 3.23824,-1.12395 z"
       id="path24"
       style="fill:url(#linearGradient19);stroke-width:0.264583" />
    <path
       fill="#111212"
       d="m 235.08305,202.36842 c 0.0153,-1.41393 -0.43392,-2.84136 -1.31419,-3.9497 -0.42545,-0.46858 -0.77523,-1.00198 -1.22581,-1.44489 -0.99325,-0.98584 -2.48047,-1.05145 -3.67692,-1.67243 -0.0696,-0.62361 -0.29765,-1.2475 -0.15954,-1.87668 0.0421,-0.20929 0.10372,-0.42148 -0.008,-0.62151 -0.3138,-0.72284 -0.0442,-1.50759 -0.10002,-2.26139 -0.0418,-0.3937 -0.0151,-0.87551 -0.38999,-1.11866 -0.0873,0.81942 -0.38867,1.58194 -0.63288,2.35955 -0.11272,0.6059 -0.11272,1.2372 -0.37386,1.8087 0.16563,0.5789 -0.16246,1.06627 -0.51753,1.49382 -0.78475,0.40217 -1.71873,0.49768 -2.40162,1.08744 -0.4871,0.41328 -1.01281,0.77549 -1.55786,1.11178 -0.40878,0.5117 -0.86148,1.00462 -1.04351,1.651 -0.73078,0.88239 -0.81704,2.06666 -1.23137,3.10012 -0.008,1.53432 0.30321,3.18638 1.28323,4.41616 0.70114,0.57891 1.19115,1.35758 1.89123,1.93675 0.67204,0.40111 1.38933,0.73078 2.08333,1.09194 0.45243,0.1053 0.91942,0.15716 1.36948,0.28019 0.36513,1.88093 0.61436,3.80762 1.34726,5.59144 0.24315,-0.73236 0.21378,-1.51712 0.4236,-2.25716 0.2958,-1.09431 -0.31115,-2.23335 0.0309,-3.30755 0.51277,-0.45853 1.3679,-0.16087 1.93675,-0.55431 1.08268,-0.66754 2.22832,-1.31762 3.01361,-2.33891 0.29236,-0.58711 0.90646,-1.02579 0.90646,-1.73011 0.005,-0.94853 0.55827,-1.83674 0.34687,-2.79559 z m -8.03619,5.80231 c -0.78449,-0.19076 -1.51527,-0.56594 -2.17329,-1.0242 -0.70802,-0.47175 -0.97208,-1.35202 -1.67057,-1.83462 -0.65405,-0.78079 -0.5125,-1.84732 -0.78052,-2.77178 0.10742,-0.64505 0.23416,-1.28481 0.3011,-1.93807 0.31908,-0.51752 0.81146,-0.93027 0.94799,-1.5531 0.46752,-0.66993 1.17951,-1.13348 1.75128,-1.71424 0.41592,-0.47969 1.07791,-0.27755 1.62427,-0.29607 -0.0542,0.52917 -0.0974,1.07633 0.0352,1.59835 0.0646,0.32068 0.20929,0.63659 0.15981,0.97261 -0.10954,0.71411 0.15849,1.43034 -0.031,2.13624 -0.38179,1.47585 0.0347,2.96572 0.0709,4.45347 -0.0545,0.65908 -0.0852,1.32292 -0.23521,1.97141 z m 5.94704,-2.79664 c -0.51964,0.36935 -0.96229,0.82311 -1.41579,1.26603 -0.78819,0.54504 -1.56712,1.12183 -2.50534,1.39435 0.0847,-0.66913 0.16722,-1.35758 -0.046,-2.01268 -0.52335,-1.48008 0.118,-3.02816 0.22621,-4.52491 -0.0955,-0.88979 -0.004,-1.83912 -0.41222,-2.6588 -0.0534,-0.61568 0.21273,-1.2102 0.39317,-1.78964 0.61966,0.24739 1.20306,0.58129 1.71874,1.01071 0.62283,0.46673 1.57691,0.76941 1.71635,1.63989 0.0712,0.57176 0.69691,0.91757 0.67866,1.50257 -0.0392,1.39065 0.15266,2.84506 -0.35375,4.17248 z"
       id="path124-2-0"
       style="fill:url(#linearGradient17);stroke-width:0.264583" />
  </g>
</svg>
