<?xml version="1.0" encoding="UTF-8" standalone="no"?>
<!-- Created with Inkscape (http://www.inkscape.org/) -->

<svg
   width="26.458332mm"
   height="26.469561mm"
   viewBox="0 0 26.458332 26.469561"
   version="1.1"
   id="svg1"
   inkscape:version="1.3 (0e150ed6c4, 2023-07-21)"
   sodipodi:docname="blue-phyrexian-pip.svg"
   xmlns:inkscape="http://www.inkscape.org/namespaces/inkscape"
   xmlns:sodipodi="http://sodipodi.sourceforge.net/DTD/sodipodi-0.dtd"
   xmlns:xlink="http://www.w3.org/1999/xlink"
   xmlns="http://www.w3.org/2000/svg"
   xmlns:svg="http://www.w3.org/2000/svg">
  <sodipodi:namedview
     id="namedview1"
     pagecolor="#ffffff"
     bordercolor="#000000"
     borderopacity="0.25"
     inkscape:showpageshadow="2"
     inkscape:pageopacity="0.0"
     inkscape:pagecheckerboard="0"
     inkscape:deskcolor="#d1d1d1"
     inkscape:document-units="mm"
     inkscape:zoom="0.68239338"
     inkscape:cx="-489.45375"
     inkscape:cy="-73.27152"
     inkscape:window-width="1920"
     inkscape:window-height="991"
     inkscape:window-x="-9"
     inkscape:window-y="-9"
     inkscape:window-maximized="1"
     inkscape:current-layer="layer1" />
  <defs
     id="defs1">
    <linearGradient
       inkscape:collect="always"
       xlink:href="#linearGradient21"
       id="linearGradient22"
       x1="95.924866"
       y1="155.81178"
       x2="109.18314"
       y2="155.81178"
       gradientUnits="userSpaceOnUse"
       gradientTransform="translate(144.99201,25.370773)" />
    <linearGradient
       id="linearGradient21"
       inkscape:collect="always">
      <stop
         style="stop-color:#0d0f0f;stop-opacity:1;"
         offset="0.17525774"
         id="stop21" />
      <stop
         style="stop-color:#0e0e0e;stop-opacity:0;"
         offset="0.52835053"
         id="stop23" />
      <stop
         style="stop-color:#0d0f0f;stop-opacity:1;"
         offset="0.77577317"
         id="stop22" />
    </linearGradient>
    <linearGradient
       inkscape:collect="always"
       xlink:href="#linearGradient26"
       id="linearGradient20"
       gradientUnits="userSpaceOnUse"
       gradientTransform="translate(142.57798,73.852873)"
       x1="97.33741"
       y1="107.39807"
       x2="112.01841"
       y2="107.39807" />
    <linearGradient
       id="linearGradient26"
       inkscape:collect="always">
      <stop
         style="stop-color:#121212;stop-opacity:0;"
         offset="0.15463917"
         id="stop24" />
      <stop
         style="stop-color:#121212;stop-opacity:1;"
         offset="0.5"
         id="stop25" />
      <stop
         style="stop-color:#121212;stop-opacity:0;"
         offset="0.8917526"
         id="stop26" />
    </linearGradient>
  </defs>
  <g
     inkscape:label="Layer 1"
     inkscape:groupmode="layer"
     id="layer1"
     transform="translate(-234.42083,-167.74583)">
    <g
       id="g26"
       transform="matrix(0.26458333,0,0,0.26458333,345.54583,167.74583)"
       style="fill:#d5d5d5;fill-opacity:1">&#10;	<circle
   fill="#c1d7e9"
   cx="-370"
   cy="50"
   r="50"
   id="circle26"
   style="fill:#d5d5d5;fill-opacity:1" />
&#10;</g>
    <path
       fill="#0d0f0f"
       d="m 252.27703,189.89648 c -1.26656,1.28879 -2.82681,1.93331 -4.67995,1.93331 -2.07989,0 -3.73009,-0.71173 -4.95062,-2.13598 -1.15332,-1.35652 -1.72958,-3.08557 -1.72958,-5.18742 0,-2.26034 0.98346,-4.83817 2.95011,-7.73218 1.60443,-2.37305 3.49223,-4.45294 5.66261,-6.23888 -0.31671,1.44701 -0.4744,2.47518 -0.4744,3.08557 0,1.40203 0.44027,2.7694 1.32186,4.10316 1.08532,1.58221 1.91003,2.75855 2.4757,3.52637 0.8816,1.33429 1.32239,2.63392 1.32239,3.89916 5.3e-4,1.87669 -0.63262,3.45916 -1.89812,4.74689 z m -0.0341,-7.23953 c -0.33893,-0.75697 -0.73475,-1.25994 -1.18692,-1.50892 0.0677,0.136 0.10186,0.32809 0.10186,0.5768 0,0.47492 -0.13546,1.15279 -0.40719,2.03438 l -0.44027,1.35652 c 0,0.7911 0.39476,1.18692 1.18639,1.18692 0.83609,0 1.25466,-0.55431 1.25466,-1.66185 0,-0.56462 -0.16933,-1.22555 -0.50853,-1.98385 z"
       id="path27"
       style="fill:url(#linearGradient22);stroke-width:0.264583" />
    <path
       fill="#111212"
       d="m 254.54865,181.23176 c 0.0153,-1.41393 -0.43392,-2.84136 -1.31419,-3.9497 -0.42545,-0.46858 -0.77523,-1.00198 -1.22581,-1.44489 -0.99325,-0.98584 -2.48047,-1.05145 -3.67692,-1.67243 -0.0696,-0.62361 -0.29765,-1.2475 -0.15954,-1.87668 0.0421,-0.20929 0.10372,-0.42148 -0.008,-0.62151 -0.3138,-0.72284 -0.0442,-1.50759 -0.10002,-2.26139 -0.0418,-0.3937 -0.0151,-0.87551 -0.38999,-1.11866 -0.0873,0.81942 -0.38867,1.58194 -0.63288,2.35955 -0.11272,0.6059 -0.11272,1.2372 -0.37386,1.8087 0.16563,0.5789 -0.16246,1.06627 -0.51753,1.49382 -0.78475,0.40217 -1.71873,0.49768 -2.40162,1.08744 -0.4871,0.41328 -1.01281,0.77549 -1.55786,1.11178 -0.40878,0.5117 -0.86148,1.00462 -1.04351,1.651 -0.73078,0.88239 -0.81704,2.06666 -1.23137,3.10012 -0.008,1.53432 0.30321,3.18638 1.28323,4.41616 0.70114,0.57891 1.19115,1.35758 1.89123,1.93675 0.67204,0.40111 1.38933,0.73078 2.08333,1.09194 0.45243,0.1053 0.91942,0.15716 1.36948,0.28019 0.36513,1.88093 0.61436,3.80762 1.34726,5.59144 0.24315,-0.73236 0.21378,-1.51712 0.4236,-2.25716 0.2958,-1.09431 -0.31115,-2.23335 0.0309,-3.30755 0.51277,-0.45853 1.3679,-0.16087 1.93675,-0.55431 1.08268,-0.66754 2.22832,-1.31762 3.01361,-2.33891 0.29236,-0.58711 0.90646,-1.02579 0.90646,-1.73011 0.005,-0.94853 0.55827,-1.83674 0.34687,-2.79559 z m -8.03619,5.80231 c -0.78449,-0.19076 -1.51527,-0.56594 -2.17329,-1.0242 -0.70802,-0.47175 -0.97208,-1.35202 -1.67057,-1.83462 -0.65405,-0.78079 -0.5125,-1.84732 -0.78052,-2.77178 0.10742,-0.64505 0.23416,-1.28481 0.3011,-1.93807 0.31908,-0.51752 0.81146,-0.93027 0.94799,-1.5531 0.46752,-0.66993 1.17951,-1.13348 1.75128,-1.71424 0.41592,-0.47969 1.07791,-0.27755 1.62427,-0.29607 -0.0542,0.52917 -0.0974,1.07633 0.0352,1.59835 0.0646,0.32068 0.20929,0.63659 0.15981,0.97261 -0.10954,0.71411 0.15849,1.43034 -0.031,2.13624 -0.38179,1.47585 0.0347,2.96572 0.0709,4.45347 -0.0545,0.65908 -0.0852,1.32292 -0.23521,1.97141 z m 5.94704,-2.79664 c -0.51964,0.36935 -0.96229,0.82311 -1.41579,1.26603 -0.78819,0.54504 -1.56712,1.12183 -2.50534,1.39435 0.0847,-0.66913 0.16722,-1.35758 -0.046,-2.01268 -0.52335,-1.48008 0.118,-3.02816 0.22621,-4.52491 -0.0955,-0.88979 -0.004,-1.83912 -0.41222,-2.6588 -0.0534,-0.61568 0.21273,-1.2102 0.39317,-1.78964 0.61966,0.24739 1.20306,0.58129 1.71874,1.01071 0.62283,0.46673 1.57691,0.76941 1.71635,1.63989 0.0712,0.57176 0.69691,0.91757 0.67866,1.50257 -0.0392,1.39065 0.15266,2.84506 -0.35375,4.17248 z"
       id="path124-2-0-1"
       style="fill:url(#linearGradient20);stroke-width:0.264583" />
  </g>
</svg>
