<?xml version="1.0" encoding="UTF-8" standalone="no"?>
<!-- Created with Inkscape (http://www.inkscape.org/) -->

<svg
   width="26.458332mm"
   height="26.458332mm"
   viewBox="0 0 26.458332 26.458332"
   version="1.1"
   id="svg1"
   inkscape:version="1.3 (0e150ed6c4, 2023-07-21)"
   sodipodi:docname="white-phyrexian-pip.svg"
   xmlns:inkscape="http://www.inkscape.org/namespaces/inkscape"
   xmlns:sodipodi="http://sodipodi.sourceforge.net/DTD/sodipodi-0.dtd"
   xmlns:xlink="http://www.w3.org/1999/xlink"
   xmlns="http://www.w3.org/2000/svg"
   xmlns:svg="http://www.w3.org/2000/svg">
  <sodipodi:namedview
     id="namedview1"
     pagecolor="#ffffff"
     bordercolor="#000000"
     borderopacity="0.25"
     inkscape:showpageshadow="2"
     inkscape:pageopacity="0.0"
     inkscape:pagecheckerboard="0"
     inkscape:deskcolor="#d1d1d1"
     inkscape:document-units="mm"
     inkscape:zoom="3.8601999"
     inkscape:cx="137.8167"
     inkscape:cy="44.816332"
     inkscape:window-width="1920"
     inkscape:window-height="991"
     inkscape:window-x="-9"
     inkscape:window-y="-9"
     inkscape:window-maximized="1"
     inkscape:current-layer="layer1" />
  <defs
     id="defs1">
    <linearGradient
       inkscape:collect="always"
       xlink:href="#linearGradient1"
       id="linearGradient2"
       x1="92.355736"
       y1="107.41404"
       x2="117.59223"
       y2="107.41404"
       gradientUnits="userSpaceOnUse"
       gradientTransform="translate(45.044759,-14.810854)" />
    <linearGradient
       id="linearGradient1"
       inkscape:collect="always">
      <stop
         style="stop-color:#0e0e0e;stop-opacity:1;"
         offset="0.19587629"
         id="stop1" />
      <stop
         style="stop-color:#0e0e0e;stop-opacity:0;"
         offset="0.48711345"
         id="stop4" />
      <stop
         style="stop-color:#000000;stop-opacity:1;"
         offset="0.80670106"
         id="stop2" />
    </linearGradient>
    <linearGradient
       inkscape:collect="always"
       xlink:href="#linearGradient4"
       id="linearGradient6"
       x1="97.33741"
       y1="107.39807"
       x2="112.01841"
       y2="107.39807"
       gradientUnits="userSpaceOnUse"
       gradientTransform="translate(44.964458,-14.810854)" />
    <linearGradient
       id="linearGradient4"
       inkscape:collect="always">
      <stop
         style="stop-color:#121212;stop-opacity:0;"
         offset="0"
         id="stop5" />
      <stop
         style="stop-color:#121212;stop-opacity:1;"
         offset="0.5"
         id="stop7" />
      <stop
         style="stop-color:#121212;stop-opacity:0;"
         offset="1"
         id="stop6" />
    </linearGradient>
  </defs>
  <g
     inkscape:label="Layer 1"
     inkscape:groupmode="layer"
     id="layer1"
     transform="translate(-136.78958,-79.374998)">
    <g
       id="g27"
       transform="matrix(0.26458333,0,0,0.26458333,275.69583,79.374998)"
       style="fill:#e8e8e8;fill-opacity:1">&#10;	<circle
   fill="#f8f6d8"
   cx="-475"
   cy="50"
   r="50"
   id="circle27"
   style="fill:#e8e8e8;fill-opacity:1" />
&#10;</g>
    <path
       fill="#0d0f0f"
       d="m 162.63699,94.473176 c -1.73593,-0.97869 -2.84903,-1.4687 -3.33825,-1.4687 -0.3556,0 -0.63367,0.27305 -0.83449,0.81809 -0.20056,0.54584 -0.60061,0.81757 -1.20147,0.81757 -0.24501,0 -0.7456,-0.0889 -1.50231,-0.2667 -0.4228,0.64558 -0.63447,1.05727 -0.63447,1.23507 0,0.245 0.1823,0.5334 0.5461,0.8681 0.3638,0.3339 0.67072,0.50033 0.92128,0.50033 0.15928,0 0.37465,-0.0331 0.64796,-0.10028 0.27279,-0.0661 0.45535,-0.0998 0.5461,-0.0998 0.27332,0 0.40931,0.50086 0.40931,1.5023 0,0.957 -0.22225,2.425704 -0.66754,4.406384 -0.57891,-2.27013 -1.19062,-3.405464 -1.83568,-3.405464 -0.0894,0 -0.27278,0.0667 -0.55086,0.20109 -0.27861,0.13282 -0.48419,0.19949 -0.61754,0.19949 -0.64505,0 -1.2237,-0.58922 -1.73593,-1.76953 -1.02367,0.1561 -1.53591,0.67918 -1.53591,1.57004 0,0.44555 0.20559,0.800894 0.61807,1.067594 0.4109,0.2667 0.61754,0.45694 0.61754,0.56753 0,0.6014 -0.87948,1.52506 -2.63763,2.77098 -0.93425,0.66755 -1.58036,1.1348 -1.93569,1.4015 0.31062,-0.40005 0.6223,-0.9226 0.93477,-1.56845 0.3556,-0.73422 0.53393,-1.30175 0.53393,-1.70286 0,-0.22225 -0.25585,-0.53446 -0.76782,-0.93477 -0.51224,-0.40005 -0.7673,-0.82312 -0.7673,-1.268154 0,-0.37782 0.13283,-0.84481 0.40005,-1.40203 -0.28945,-0.3339 -0.63367,-0.50138 -1.03452,-0.50138 -0.89032,0 -1.33482,0.28998 -1.33482,0.86783 0,-0.40058 0,-0.10027 0,0.90117 0.0217,0.734494 -0.53446,1.101734 -1.66978,1.101734 -0.86757,0 -2.32596,-0.20082 -4.37277,-0.60087 2.31457,-0.578914 3.4716,-1.246454 3.4716,-2.002904 0,0.0889 -0.0444,-0.1778 -0.13335,-0.80115 -0.0894,-0.68898 0.40057,-1.3126 1.4687,-1.86876 -0.20056,-1.02314 -0.73369,-1.53617 -1.60258,-1.53617 -0.13335,0 -0.37889,0.23389 -0.73422,0.70035 -0.35613,0.46858 -0.68977,0.70168 -1.00092,0.70168 -0.53446,0 -1.22476,-0.57838 -2.06957,-1.73646 -0.40111,-0.57785 -1.01336,-1.4351 -1.83648,-2.57043 0.51171,0.26776 1.02368,0.53446 1.53591,0.80195 0.66754,0.31115 1.20147,0.46726 1.60258,0.46726 0.31168,0 0.61754,-0.27279 0.91784,-0.81809 0.3003,-0.54531 0.69559,-0.8181 1.18507,-0.8181 0.0672,0 0.51223,0.13335 1.33535,0.40111 0.42228,-0.64532 0.63447,-1.12395 0.63447,-1.43563 0,-0.26723 -0.16166,-0.57308 -0.48418,-0.91836 -0.32306,-0.34476 -0.61754,-0.51727 -0.88477,-0.51727 -0.11165,0 -0.28363,0.0331 -0.51779,0.10028 -0.2331,0.0667 -0.40561,0.10028 -0.51673,0.10028 -0.40111,0 -0.6014,-0.50086 -0.6014,-1.50231 0,-0.26722 0.25638,-1.791218 0.76835,-4.573318 -0.0228,0.33338 0.12197,0.957 0.43365,1.86902 0.37836,1.113098 0.82312,1.669248 1.33588,1.669248 0.0884,0 0.2667,-0.0667 0.53393,-0.20055 0.2667,-0.13335 0.4781,-0.1995 0.63394,-0.1995 0.51171,0 0.93425,0.28946 1.26868,0.86704 l 0.50086,0.90118 c 0.46725,0 0.85672,-0.16643 1.16787,-0.50033 0.31168,-0.33391 0.46778,-0.73475 0.46778,-1.202 0,-0.489478 -0.20558,-0.862548 -0.61754,-1.118398 -0.41248,-0.25585 -0.61806,-0.45058 -0.61806,-0.58393 0,-0.46779 0.73475,-1.2573 2.20345,-2.37014 1.17925,-0.88979 1.94707,-1.41288 2.30372,-1.56898 -0.95699,1.2909 -1.43562,2.23599 -1.43562,2.83739 0,0.31168 0.18864,0.64585 0.56753,1.00145 0.46725,0.4228 0.73422,0.72337 0.80089,0.90117 0.22225,0.51276 0.20003,1.213378 -0.0667,2.103168 0.60086,0.42334 1.05674,0.63395 1.36895,0.63395 0.64452,0 0.96785,-0.33444 0.96785,-1.00145 0,-0.0667 -0.0278,-0.27808 -0.0831,-0.63394 -0.0564,-0.3556 -0.0722,-0.55616 -0.0505,-0.600868 0.0889,-0.31168 0.70115,-0.46779 1.83594,-0.46779 0.712,0 2.19155,0.20056 4.43998,0.601398 -0.49001,0.13335 -1.22423,0.33338 -2.20292,0.60061 -0.89033,0.26722 -1.33588,0.56753 -1.33588,0.90117 0,0.1561 0.0553,0.4228 0.16695,0.80089 0.11112,0.37888 0.16748,0.65617 0.16748,0.83503 0,0.31115 -0.20056,0.6006 -0.60087,0.86703 l -1.13533,0.80196 c 0.26723,0.49001 0.44503,0.77919 0.53446,0.86757 0.22225,0.2667 0.52255,0.40057 0.90117,0.40057 0.26723,0 0.51171,-0.23362 0.73422,-0.70061 0.22225,-0.46779 0.57891,-0.70115 1.06812,-0.70115 0.60061,0 1.28006,0.55669 2.0365,1.66979 0.42148,0.62441 1.07818,1.56977 1.9685,2.83818 z m -7.41018,-1.93569 c 0,-1.42372 -0.52361,-2.65933 -1.56951,-3.70575 -1.0459,-1.0459 -2.28097,-1.56898 -3.70523,-1.56898 -1.447,0 -2.69346,0.51779 -3.73882,1.55284 -1.0459,1.03452 -1.58036,2.27541 -1.60206,3.72163 -0.0227,1.42425 0.50589,2.65377 1.58539,3.68776 1.0795,1.03505 2.33124,1.55284 3.75523,1.55284 1.51315,0 2.77601,-0.49557 3.7883,-1.48564 1.01336,-0.98954 1.50839,-2.24102 1.4867,-3.7547 z m -0.50086,0 c 0,1.35758 -0.45641,2.48206 -1.36895,3.37079 -0.91308,0.89086 -2.04788,1.33588 -3.40493,1.33588 -1.31312,0 -2.43707,-0.45587 -3.37132,-1.36895 -0.93424,-0.91149 -1.40202,-2.02459 -1.40202,-3.33772 0,-1.29037 0.47228,-2.39818 1.4179,-3.32131 0.94668,-0.9234 2.06454,-1.38589 3.35544,-1.38589 1.29038,0 2.40877,0.46725 3.35492,1.40256 0.94562,0.93477 1.41896,2.03596 1.41896,3.30464 z"
       id="path28"
       style="fill:url(#linearGradient2);stroke-width:0.264583" />
    <path
       fill="#111212"
       d="m 156.93513,92.568036 c 0.0153,-1.41393 -0.43392,-2.84136 -1.31419,-3.9497 -0.42545,-0.46858 -0.77523,-1.00198 -1.22581,-1.44489 -0.99325,-0.98584 -2.48047,-1.05145 -3.67692,-1.67243 -0.0696,-0.623622 -0.29765,-1.247512 -0.15954,-1.876692 0.0421,-0.20929 0.10372,-0.42148 -0.008,-0.62151 -0.3138,-0.722836 -0.0442,-1.507586 -0.10002,-2.261386 -0.0418,-0.3937 -0.0151,-0.87551 -0.38999,-1.11866 -0.0873,0.81942 -0.38867,1.58194 -0.63288,2.35955 -0.11272,0.605896 -0.11272,1.237196 -0.37386,1.808696 0.16563,0.5789 -0.16246,1.06627 -0.51753,1.493832 -0.78475,0.40217 -1.71873,0.49768 -2.40162,1.08744 -0.4871,0.41328 -1.01282,0.77549 -1.55787,1.11178 -0.40878,0.5117 -0.86148,1.00462 -1.04351,1.651 -0.73078,0.88239 -0.81704,2.06666 -1.23137,3.10012 -0.008,1.53432 0.30321,3.18638 1.28323,4.41616 0.70114,0.57891 1.19115,1.35758 1.89124,1.93675 0.67204,0.40111 1.38933,0.73078 2.08333,1.09194 0.45243,0.1053 0.91942,0.15716 1.36948,0.28019 0.36513,1.880934 0.61436,3.807624 1.34726,5.591444 0.24315,-0.73236 0.21378,-1.51712 0.4236,-2.25716 0.2958,-1.09431 -0.31115,-2.23335 0.0309,-3.307554 0.51277,-0.45853 1.3679,-0.16087 1.93675,-0.55431 1.08268,-0.66754 2.22832,-1.31762 3.01361,-2.33891 0.29236,-0.58711 0.90646,-1.02579 0.90646,-1.73011 0.005,-0.94853 0.55827,-1.83674 0.34687,-2.79559 z m -8.03619,5.80231 c -0.78449,-0.19076 -1.51527,-0.56594 -2.17329,-1.0242 -0.70802,-0.47175 -0.97208,-1.35202 -1.67058,-1.83462 -0.65405,-0.78079 -0.5125,-1.84732 -0.78052,-2.77178 0.10742,-0.64505 0.23416,-1.28481 0.3011,-1.93807 0.31908,-0.51752 0.81147,-0.93027 0.948,-1.5531 0.46752,-0.66993 1.17951,-1.13348 1.75128,-1.71424 0.41592,-0.47969 1.07791,-0.27755 1.62427,-0.29607 -0.0542,0.52917 -0.0974,1.07633 0.0352,1.59835 0.0646,0.32068 0.20929,0.63659 0.15981,0.97261 -0.10954,0.71411 0.15849,1.43034 -0.031,2.13624 -0.38179,1.47585 0.0347,2.96572 0.0709,4.45347 -0.0545,0.65908 -0.0852,1.32292 -0.23521,1.97141 z m 5.94704,-2.79664 c -0.51964,0.36935 -0.96229,0.82311 -1.41579,1.26603 -0.78819,0.54504 -1.56712,1.12183 -2.50534,1.39435 0.0847,-0.66913 0.16722,-1.35758 -0.046,-2.01268 -0.52335,-1.48008 0.118,-3.02816 0.22621,-4.52491 -0.0955,-0.88979 -0.004,-1.83912 -0.41222,-2.6588 -0.0534,-0.61568 0.21273,-1.2102 0.39317,-1.78964 0.61966,0.24739 1.20306,0.58129 1.71874,1.01071 0.62283,0.46673 1.57691,0.76941 1.71635,1.63989 0.0712,0.57176 0.69691,0.91757 0.67866,1.50257 -0.0392,1.39065 0.15266,2.84506 -0.35375,4.17248 z"
       id="path124"
       style="fill:url(#linearGradient6);stroke-width:0.264583" />
  </g>
</svg>
