<?xml version="1.0" encoding="UTF-8" standalone="no"?>
<svg
   width="26.458332mm"
   height="26.458332mm"
   viewBox="0 0 26.458332 26.458333"
   version="1.1"
   id="svg1"
   inkscape:version="1.3 (0e150ed6c4, 2023-07-21)"
   sodipodi:docname="white-mana-pip.svg"
   xmlns:inkscape="http://www.inkscape.org/namespaces/inkscape"
   xmlns:sodipodi="http://sodipodi.sourceforge.net/DTD/sodipodi-0.dtd"
   xmlns="http://www.w3.org/2000/svg"
   xmlns:svg="http://www.w3.org/2000/svg">
  <defs
     id="defs1" />
  <sodipodi:namedview
     id="namedview1"
     pagecolor="#ffffff"
     bordercolor="#000000"
     borderopacity="0.25"
     inkscape:showpageshadow="2"
     inkscape:pageopacity="0.0"
     inkscape:pagecheckerboard="0"
     inkscape:deskcolor="#d1d1d1"
     inkscape:document-units="mm"
     inkscape:zoom="7.165496"
     inkscape:cx="47.170496"
     inkscape:cy="44.798015"
     inkscape:window-width="1920"
     inkscape:window-height="991"
     inkscape:window-x="-9"
     inkscape:window-y="-9"
     inkscape:window-maximized="1"
     inkscape:current-layer="layer1" />
  <g
     inkscape:label="Layer 1"
     inkscape:groupmode="layer"
     id="layer1"
     transform="translate(-2.1367218,-0.4818579)">
    <circle
       fill="#f8f6d8"
       cx="-475"
       cy="50"
       r="50"
       id="circle27"
       style="stroke-width:1.00157481;stroke-dasharray:none;fill:#e8e8e8;fill-opacity:1"
       transform="matrix(0.26458333,0,0,0.26458333,141.04297,0.4818579)" />
    <path
       fill="#0d0f0f"
       d="m 27.984132,15.580041 c -1.735931,-0.978694 -2.849033,-1.468702 -3.338248,-1.468702 -0.3556,0 -0.633677,0.27305 -0.834496,0.818092 -0.200554,0.545835 -0.600604,0.817562 -1.201473,0.817562 -0.245004,0 -0.745596,-0.0889 -1.502304,-0.2667 -0.422804,0.645583 -0.634471,1.057275 -0.634471,1.235075 0,0.245004 0.182298,0.5334 0.5461,0.868098 0.363802,0.333904 0.670719,0.500327 0.921279,0.500327 0.15928,0 0.37465,-0.03307 0.647965,-0.100277 0.272785,-0.06615 0.455348,-0.09975 0.5461,-0.09975 0.273315,0 0.40931,0.500856 0.40931,1.502304 0,0.956998 -0.22225,2.4257 -0.667543,4.406371 -0.578909,-2.270125 -1.190625,-3.405452 -1.835679,-3.405452 -0.08943,0 -0.272786,0.06668 -0.550863,0.201083 -0.278606,0.132821 -0.484187,0.199496 -0.617537,0.199496 -0.645055,0 -1.223698,-0.589227 -1.735932,-1.769533 -1.023673,0.156104 -1.535906,0.679185 -1.535906,1.570037 0,0.445559 0.205581,0.800894 0.618067,1.067594 0.410898,0.2667 0.617537,0.456935 0.617537,0.567531 0,0.601398 -0.879475,1.525059 -2.637631,2.770982 -0.934244,0.667543 -1.580356,1.134797 -1.935692,1.401497 0.310621,-0.40005 0.6223,-0.922602 0.934773,-1.56845 0.3556,-0.734218 0.533929,-1.30175 0.533929,-1.702858 0,-0.22225 -0.255852,-0.534458 -0.76782,-0.934773 -0.512234,-0.40005 -0.767292,-0.823119 -0.767292,-1.268148 0,-0.377825 0.132821,-0.844814 0.40005,-1.402027 -0.289454,-0.333904 -0.633677,-0.501385 -1.034521,-0.501385 -0.890323,0 -1.334823,0.289983 -1.334823,0.867833 0,-0.400579 0,-0.100277 0,0.901171 0.0217,0.734483 -0.534458,1.101725 -1.6697852,1.101725 -0.8675687,0 -2.325952,-0.200819 -4.3727687,-0.600869 2.314575,-0.578908 3.4715979,-1.246452 3.4715979,-2.002896 0,0.0889 -0.04445,-0.1778 -0.13335,-0.801158 C 8.433276,17.794868 8.9232842,17.171245 9.9914071,16.615091 9.7908529,15.591947 9.2577175,15.07892 8.3888258,15.07892 c -0.13335,0 -0.3788833,0.233892 -0.7342187,0.700352 -0.3561292,0.468577 -0.6897687,0.701675 -1.0009187,0.701675 -0.5344584,0 -1.2247563,-0.578379 -2.0695708,-1.73646 -0.4011084,-0.57785 -1.0133542,-1.4351 -1.8364729,-2.570427 0.5117041,0.267758 1.0236729,0.534458 1.5359062,0.801952 0.6675437,0.31115 1.2014729,0.467254 1.6025812,0.467254 0.3116792,0 0.6175375,-0.272785 0.9178396,-0.818092 0.3003021,-0.545306 0.6955896,-0.818091 1.1850687,-0.818091 0.067204,0 0.5122334,0.13335 1.3353521,0.401108 0.422275,-0.645319 0.6344708,-1.12395 0.6344708,-1.435629 0,-0.267229 -0.1616604,-0.573088 -0.4841875,-0.9183688 C 9.1516196,9.5094411 8.8571383,9.3369328 8.5899092,9.3369328 c -0.1116542,0 -0.2836334,0.033073 -0.5177896,0.1002771 -0.2330979,0.066675 -0.4056063,0.1002771 -0.5167313,0.1002771 -0.4011083,0 -0.6013979,-0.5008563 -0.6013979,-1.5023042 0,-0.2672292 0.2563813,-1.7912291 0.76835,-4.5733229 -0.022754,0.333375 0.1219729,0.956998 0.4336521,1.8690167 0.3783542,1.1131021 0.8231187,1.6692562 1.3358812,1.6692562 0.088371,0 0.2667,-0.066675 0.5339293,-0.2005541 0.2667,-0.13335 0.478102,-0.1994959 0.633942,-0.1994959 0.511704,0 0.934243,0.2894542 1.268677,0.8670396 l 0.500856,0.9011708 c 0.467254,0 0.856721,-0.1664229 1.167871,-0.5003271 0.311679,-0.3339041 0.467783,-0.7347479 0.467783,-1.202002 0,-0.4894792 -0.205581,-0.8625417 -0.617537,-1.1183938 -0.412486,-0.255852 -0.618067,-0.4505854 -0.618067,-0.5839354 0,-0.4677833 0.734748,-1.2573 2.20345,-2.3701374 1.179248,-0.8897938 1.947069,-1.412875 2.303727,-1.5689792 -0.956998,1.2909021 -1.435629,2.2359937 -1.435629,2.8373916 0,0.3116792 0.188648,0.6458479 0.567531,1.0014479 0.467254,0.4228042 0.734219,0.7233709 0.800894,0.9011709 0.22225,0.5127625 0.200025,1.2133791 -0.06668,2.1031729 0.600868,0.4233333 1.056746,0.6339416 1.368954,0.6339416 0.644525,0 0.967846,-0.3344333 0.967846,-1.0014479 0,-0.066675 -0.02778,-0.2780771 -0.08308,-0.6339416 -0.05636,-0.3556 -0.07223,-0.5561542 -0.05054,-0.6008688 0.0889,-0.3116792 0.701146,-0.4677833 1.835944,-0.4677833 0.711994,0 2.191544,0.2005541 4.439973,0.6013979 -0.490009,0.13335 -1.224227,0.333375 -2.202921,0.6006042 -0.890323,0.2672291 -1.335881,0.5675312 -1.335881,0.9011708 0,0.1561041 0.0553,0.4228041 0.166952,0.8008937 0.111125,0.3788833 0.167481,0.6561667 0.167481,0.835025 0,0.31115 -0.200554,0.6006038 -0.600869,0.8670398 l -1.135327,0.801952 c 0.267229,0.490008 0.445029,0.779198 0.534459,0.867569 0.22225,0.2667 0.522552,0.400579 0.90117,0.400579 0.267229,0 0.511704,-0.233627 0.734219,-0.700617 0.22225,-0.467783 0.578908,-0.701146 1.068123,-0.701146 0.600604,0 1.280054,0.556684 2.036498,1.669786 0.421481,0.624416 1.078177,1.569773 1.9685,2.838185 z m -7.410185,-1.935692 c 0,-1.423722 -0.523611,-2.659327 -1.569509,-3.7057537 -1.045898,-1.0458979 -2.280973,-1.5689792 -3.705225,-1.5689792 -1.447006,0 -2.693458,0.5177896 -3.738827,1.5528396 -1.045898,1.0345213 -1.580356,2.2754163 -1.6020518,3.7216293 -0.022754,1.424252 0.5058828,2.653771 1.5853828,3.687762 1.0795,1.03505 2.331244,1.55284 3.755232,1.55284 1.513152,0 2.776008,-0.495565 3.788304,-1.485636 1.013354,-0.989541 1.508389,-2.24102 1.486694,-3.754702 z m -0.500857,0 c 0,1.357577 -0.456406,2.482057 -1.368954,3.370792 -0.913077,0.890852 -2.047875,1.335881 -3.404923,1.335881 -1.313127,0 -2.437077,-0.455877 -3.371321,-1.368954 -0.934243,-0.911489 -1.402027,-2.024592 -1.402027,-3.337719 0,-1.290372 0.472282,-2.398183 1.417902,-3.321314 0.94668,-0.923396 2.064544,-1.3858876 3.355446,-1.3858876 1.290373,0 2.408767,0.4672541 3.354917,1.4025566 0.945621,0.934773 1.41896,2.035968 1.41896,3.304645 z"
       id="path28"
       style="stroke-width:0.264583;fill:#000000;fill-opacity:1" />
  </g>
</svg>
