<?xml version="1.0" encoding="UTF-8" standalone="no"?>
<!-- Created with Inkscape (http://www.inkscape.org/) -->

<svg
   width="26.458332mm"
   height="26.458332mm"
   viewBox="0 0 26.458332 26.458332"
   version="1.1"
   id="svg1"
   inkscape:version="1.3 (0e150ed6c4, 2023-07-21)"
   sodipodi:docname="generic-10-pip.svg"
   xmlns:inkscape="http://www.inkscape.org/namespaces/inkscape"
   xmlns:sodipodi="http://sodipodi.sourceforge.net/DTD/sodipodi-0.dtd"
   xmlns="http://www.w3.org/2000/svg"
   xmlns:svg="http://www.w3.org/2000/svg">
  <sodipodi:namedview
     id="namedview1"
     pagecolor="#ffffff"
     bordercolor="#000000"
     borderopacity="0.25"
     inkscape:showpageshadow="2"
     inkscape:pageopacity="0.0"
     inkscape:pagecheckerboard="0"
     inkscape:deskcolor="#d1d1d1"
     inkscape:document-units="mm"
     inkscape:zoom="0.68239338"
     inkscape:cx="224.21085"
     inkscape:cy="388.33906"
     inkscape:window-width="1920"
     inkscape:window-height="991"
     inkscape:window-x="-9"
     inkscape:window-y="-9"
     inkscape:window-maximized="1"
     inkscape:current-layer="layer1" />
  <defs
     id="defs1" />
  <g
     inkscape:label="Layer 1"
     inkscape:groupmode="layer"
     id="layer1"
     transform="translate(-45.772923,-45.772917)">
    <g
       id="g20"
       style="fill:#c5c5c5;fill-opacity:1"
       transform="matrix(0.26458333,0,0,0.26458333,295.80417,73.554696)">&#10;	<circle
   fill="#CAC5C0"
   cx="-895"
   cy="-55.001999"
   r="50"
   id="circle20"
   style="fill:#c5c5c5;fill-opacity:1" />
&#10;</g>
    <path
       fill="#0d0f0f"
       d="m 55.114302,50.703428 v 13.345318 c 0,1.586971 0.679186,2.380721 2.03544,2.380721 h 0.345281 v 0.904875 h -7.108296 v -0.904875 h 0.456936 c 1.30466,0 1.957916,-0.79375 1.957916,-2.380721 V 55.29633 c 0,-1.608667 -0.570177,-2.413794 -1.71106,-2.413794 h -0.703792 v -0.905933 h 0.268817 c 1.385887,0 2.637631,-0.424392 3.754702,-1.27344 z m 2.582333,8.818033 c 0,-2.078831 0.435505,-3.990446 1.307042,-5.732992 1.095904,-2.167731 2.59424,-3.252523 4.493154,-3.252523 1.833827,0 3.286654,0.928159 4.359275,2.782359 0.872067,1.520825 1.308365,3.275806 1.308365,5.264679 0,2.07936 -0.436034,3.979068 -1.308365,5.700448 -1.095639,2.124339 -2.581539,3.185847 -4.459023,3.185847 -1.810279,0 -3.252523,-0.916781 -4.326466,-2.750343 -0.916517,-1.541992 -1.373982,-3.274484 -1.373982,-5.197475 z m 2.41353,-0.972609 c 0,1.767417 0.18997,3.353859 0.570441,4.761442 0.58129,2.16826 1.530615,3.253052 2.849827,3.253052 2.146036,0 3.218657,-2.234935 3.218657,-6.706129 0,-5.52159 -1.16258,-8.281723 -3.487738,-8.281723 -2.101056,0 -3.151717,2.144448 -3.151717,6.436783 z"
       id="path21"
       style="stroke-width:0.264583" />
  </g>
</svg>
