<?xml version="1.0" encoding="UTF-8" standalone="no"?>
<!-- Created with Inkscape (http://www.inkscape.org/) -->

<svg
   width="26.458332mm"
   height="26.458332mm"
   viewBox="0 0 26.458332 26.458332"
   version="1.1"
   id="svg1"
   inkscape:version="1.3 (0e150ed6c4, 2023-07-21)"
   sodipodi:docname="generic-14-pip.svg"
   xmlns:inkscape="http://www.inkscape.org/namespaces/inkscape"
   xmlns:sodipodi="http://sodipodi.sourceforge.net/DTD/sodipodi-0.dtd"
   xmlns="http://www.w3.org/2000/svg"
   xmlns:svg="http://www.w3.org/2000/svg">
  <sodipodi:namedview
     id="namedview1"
     pagecolor="#ffffff"
     bordercolor="#000000"
     borderopacity="0.25"
     inkscape:showpageshadow="2"
     inkscape:pageopacity="0.0"
     inkscape:pagecheckerboard="0"
     inkscape:deskcolor="#d1d1d1"
     inkscape:document-units="mm"
     inkscape:zoom="0.68239338"
     inkscape:cx="-73.27152"
     inkscape:cy="436.69826"
     inkscape:window-width="1920"
     inkscape:window-height="991"
     inkscape:window-x="-9"
     inkscape:window-y="-9"
     inkscape:window-maximized="1"
     inkscape:current-layer="layer1" />
  <defs
     id="defs1" />
  <g
     inkscape:label="Layer 1"
     inkscape:groupmode="layer"
     id="layer1"
     transform="translate(-124.35417,-32.808333)">
    <g
       id="g16"
       style="fill:#c5c5c5;fill-opacity:1"
       transform="matrix(0.26458333,0,0,0.26458333,263.26042,60.590112)">&#10;	<circle
   fill="#CAC5C0"
   cx="-475"
   cy="-55.001999"
   r="50"
   id="circle16"
   style="fill:#c5c5c5;fill-opacity:1" />
&#10;</g>
    <path
       fill="#0d0f0f"
       d="M 133.96066,37.960564 V 50.93917 c 0,1.531673 0.64215,2.297642 1.92511,2.297642 h 0.30533 v 0.878946 h -6.89557 v -0.878946 h 0.44 c 1.30651,0 1.95977,-0.765969 1.95977,-2.297642 v -8.517202 c 0,-1.555485 -0.55298,-2.332566 -1.65603,-2.332566 h -0.67654 v -0.878417 h 0.27067 c 1.32848,0 2.53445,-0.416454 3.61553,-1.250156 z m 11.38952,11.558852 v 1.351757 c 0,1.509977 0.52811,2.265097 1.5883,2.265097 h 0.43867 v 0.877359 h -6.4553 V 53.13627 h 0.50747 c 1.05913,0 1.58856,-0.744272 1.58856,-2.230437 v -1.386417 h -6.4897 V 48.16766 l 6.86117,-10.004954 h 1.9611 v 10.207096 h 0.16907 c 0.65352,0 1.13744,-0.516732 1.45229,-1.553898 h 0.81122 l -0.40561,2.703777 z m -1.79202,-1.351756 v -8.516673 l -5.74569,8.516673 z"
       id="path17"
       style="stroke-width:0.264583" />
  </g>
</svg>
