<?xml version="1.0" encoding="UTF-8" standalone="no"?>
<!-- Created with Inkscape (http://www.inkscape.org/) -->

<svg
   width="26.458332mm"
   height="26.458332mm"
   viewBox="0 0 26.458332 26.458332"
   version="1.1"
   id="svg1"
   inkscape:version="1.3 (0e150ed6c4, 2023-07-21)"
   sodipodi:docname="generic-20-pip.svg"
   xmlns:inkscape="http://www.inkscape.org/namespaces/inkscape"
   xmlns:sodipodi="http://sodipodi.sourceforge.net/DTD/sodipodi-0.dtd"
   xmlns="http://www.w3.org/2000/svg"
   xmlns:svg="http://www.w3.org/2000/svg">
  <sodipodi:namedview
     id="namedview1"
     pagecolor="#ffffff"
     bordercolor="#000000"
     borderopacity="0.25"
     inkscape:showpageshadow="2"
     inkscape:pageopacity="0.0"
     inkscape:pagecheckerboard="0"
     inkscape:deskcolor="#d1d1d1"
     inkscape:document-units="mm"
     inkscape:zoom="0.68239338"
     inkscape:cx="329.72184"
     inkscape:cy="357.56502"
     inkscape:window-width="1920"
     inkscape:window-height="991"
     inkscape:window-x="-9"
     inkscape:window-y="-9"
     inkscape:window-maximized="1"
     inkscape:current-layer="layer1" />
  <defs
     id="defs1" />
  <g
     inkscape:label="Layer 1"
     inkscape:groupmode="layer"
     id="layer1"
     transform="translate(-17.727083,-53.975)">
    <g
       id="g21"
       style="fill:#c5c5c5;fill-opacity:1"
       transform="matrix(0.26458333,0,0,0.26458333,267.75833,53.975529)">&#10;	<circle
   fill="#CAC5C0"
   cx="-895"
   cy="49.998001"
   r="50"
   id="circle21"
   style="fill:#c5c5c5;fill-opacity:1" />
&#10;</g>
    <path
       fill="#0d0f0f"
       d="m 31.814558,70.714658 -1.182952,3.954198 h -9.734285 v -0.811742 c 0.473339,-0.540014 1.521354,-1.610254 3.144043,-3.20966 0.94615,-0.968375 1.8923,-1.983317 2.838715,-3.042179 0.495035,-0.540279 0.856721,-1.002507 1.082146,-1.386417 0.584464,-0.811212 0.877358,-1.655762 0.877358,-2.534179 0,-0.811213 -0.264054,-1.538023 -0.793221,-2.179638 -0.529696,-0.642408 -1.200944,-0.962818 -2.010833,-0.962818 -1.757627,0 -3.132667,1.1938 -4.124325,3.582723 l -0.912019,-0.338403 c 1.1938,-3.357297 3.064404,-5.035814 5.609961,-5.035814 1.262327,0 2.337858,0.427302 3.227652,1.284287 0.890852,0.856721 1.335352,1.915584 1.335352,3.176588 0,1.600994 -0.935302,3.165739 -2.805642,4.697941 l -1.8923,1.588559 c -1.217083,1.037166 -2.21959,1.994164 -3.007519,2.872581 -0.06773,0.04551 -0.180446,0.180446 -0.338402,0.406135 h 5.070475 c 0.788194,0 1.384829,-0.169862 1.7907,-0.50747 0.338402,-0.27014 0.67654,-0.788459 1.013354,-1.554427 h 0.811742 z M 31.67962,67.165537 c 0,-1.960033 0.405607,-3.774016 1.217084,-5.440627 1.058862,-2.072746 2.4892,-3.109912 4.292335,-3.109912 1.734344,0 3.120231,0.889793 4.157398,2.669645 0.80989,1.442773 1.215496,3.109384 1.215496,5.001684 0,1.983052 -0.405606,3.786452 -1.215496,5.409141 -1.06045,2.026444 -2.47994,3.040327 -4.259262,3.040327 -1.712119,0 -3.087688,-0.866245 -4.123267,-2.602441 C 32.107187,70.66915 31.67962,69.013387 31.67962,67.165537 Z m 2.298171,-0.912283 c 0,1.690423 0.179917,3.2004 0.540544,4.528608 0.540015,2.074333 1.442244,3.109913 2.703777,3.109913 2.049992,0 3.07631,-2.129102 3.07631,-6.38863 0,-5.272616 -1.115747,-7.90866 -3.34592,-7.90866 -1.983317,0 -2.974446,2.049992 -2.974446,6.151033 z"
       id="path22"
       style="stroke-width:0.264583" />
  </g>
</svg>
