<?xml version="1.0" encoding="UTF-8" standalone="no"?>
<!-- Created with Inkscape (http://www.inkscape.org/) -->

<svg
   width="26.458332mm"
   height="26.458332mm"
   viewBox="0 0 26.458332 26.458332"
   version="1.1"
   id="svg1"
   inkscape:version="1.3 (0e150ed6c4, 2023-07-21)"
   sodipodi:docname="generic-8-pip.svg"
   xmlns:inkscape="http://www.inkscape.org/namespaces/inkscape"
   xmlns:sodipodi="http://sodipodi.sourceforge.net/DTD/sodipodi-0.dtd"
   xmlns="http://www.w3.org/2000/svg"
   xmlns:svg="http://www.w3.org/2000/svg">
  <sodipodi:namedview
     id="namedview1"
     pagecolor="#ffffff"
     bordercolor="#000000"
     borderopacity="0.25"
     inkscape:showpageshadow="2"
     inkscape:pageopacity="0.0"
     inkscape:pagecheckerboard="0"
     inkscape:deskcolor="#d1d1d1"
     inkscape:document-units="mm"
     inkscape:zoom="0.68239338"
     inkscape:cx="-353.16873"
     inkscape:cy="505.57349"
     inkscape:window-width="1920"
     inkscape:window-height="991"
     inkscape:window-x="-9"
     inkscape:window-y="-9"
     inkscape:window-maximized="1"
     inkscape:current-layer="layer1" />
  <defs
     id="defs1" />
  <g
     inkscape:label="Layer 1"
     inkscape:groupmode="layer"
     id="layer1"
     transform="translate(-198.4375,-14.816668)">
    <g
       id="g9"
       transform="matrix(0.26458333,0,0,0.26458333,226.21875,70.379696)">&#10;	<circle
   fill="#CAC5C0"
   cx="-55"
   cy="-160.002"
   r="50"
   id="circle9"
   style="fill:#c5c5c5;fill-opacity:1" />
&#10;</g>
    <path
       fill="#0d0f0f"
       d="m 209.27616,27.904282 -0.46197,-0.32041 c -1.3544,-0.926571 -2.24684,-1.674813 -2.67414,-2.246048 -0.54663,-0.711994 -0.81915,-1.542521 -0.81915,-2.493963 0,-1.615281 0.67654,-2.933435 2.03147,-3.955256 1.25889,-0.949854 2.72018,-1.425575 4.38362,-1.425575 1.56686,0 2.95804,0.41619 4.16877,1.246981 1.37663,0.926836 2.06719,2.150269 2.06719,3.671359 0,1.853141 -1.29593,3.349624 -3.88461,4.489185 2.94508,1.425575 4.41828,3.408892 4.41828,5.951008 0,1.829329 -0.70009,3.277923 -2.10318,4.348163 -1.25756,0.974195 -2.83871,1.45997 -4.73842,1.45997 -1.7817,0 -3.31391,-0.450585 -4.59766,-1.354402 -1.4732,-1.020233 -2.20875,-2.3749 -2.20875,-4.061089 0,-1.68619 0.78397,-3.077104 2.35189,-4.170098 0.42756,-0.284163 1.11733,-0.664104 2.06666,-1.139825 z m 1.20967,0.505883 c -2.13783,0.972873 -3.20437,2.504546 -3.20437,4.593431 0,1.352815 0.4326,2.43893 1.30069,3.25808 0.86704,0.819414 1.97776,1.22846 3.33217,1.22846 1.2102,0 2.23864,-0.325967 3.08133,-0.977635 0.84297,-0.651934 1.26498,-1.558661 1.26498,-2.719917 0,-1.753129 -1.15544,-3.175265 -3.46552,-4.265612 z m 2.38945,-2.109523 c 1.87537,-0.831056 2.81543,-2.078037 2.81543,-3.740943 0,-1.141148 -0.39846,-2.054754 -1.19327,-2.745052 -0.79692,-0.688711 -1.77667,-1.033463 -2.94031,-1.033463 -0.97473,0 -1.81742,0.262202 -2.53021,0.784225 -0.78449,0.569913 -1.17554,1.330854 -1.17554,2.280708 0,1.164167 0.54583,2.102909 1.63909,2.815961 0.21299,0.142081 1.16311,0.604837 2.85088,1.389062 z"
       id="path9"
       style="stroke-width:0.264583" />
  </g>
</svg>
