<?xml version="1.0" encoding="UTF-8" standalone="no"?>
<!-- Created with Inkscape (http://www.inkscape.org/) -->

<svg
   width="26.458332mm"
   height="26.458332mm"
   viewBox="0 0 26.458332 26.458332"
   version="1.1"
   id="svg1"
   inkscape:version="1.3 (0e150ed6c4, 2023-07-21)"
   sodipodi:docname="blue-mana-pip.svg"
   xmlns:inkscape="http://www.inkscape.org/namespaces/inkscape"
   xmlns:sodipodi="http://sodipodi.sourceforge.net/DTD/sodipodi-0.dtd"
   xmlns="http://www.w3.org/2000/svg"
   xmlns:svg="http://www.w3.org/2000/svg">
  <sodipodi:namedview
     id="namedview1"
     pagecolor="#ffffff"
     bordercolor="#000000"
     borderopacity="0.25"
     inkscape:showpageshadow="2"
     inkscape:pageopacity="0.0"
     inkscape:pagecheckerboard="0"
     inkscape:deskcolor="#d1d1d1"
     inkscape:document-units="mm"
     inkscape:zoom="0.68239338"
     inkscape:cx="591.30117"
     inkscape:cy="95.985691"
     inkscape:window-width="1575"
     inkscape:window-height="1020"
     inkscape:window-x="362"
     inkscape:window-y="9"
     inkscape:window-maximized="0"
     inkscape:current-layer="layer1" />
  <defs
     id="defs1" />
  <g
     inkscape:label="Layer 1"
     inkscape:groupmode="layer"
     id="layer1"
     transform="translate(51.593749,-122.76667)">
    <circle
       fill="#c1d7e9"
       cx="-370"
       cy="50"
       r="50"
       id="circle26"
       transform="matrix(0.26458333,0,0,0.26458333,59.531251,122.76667)"
       style="fill:#d5d5d5;fill-opacity:1" />
    <path
       fill="#0d0f0f"
       d="m -33.737549,144.91732 c -1.26656,1.28879 -2.826808,1.93331 -4.67995,1.93331 -2.079889,0 -3.730096,-0.71173 -4.950618,-2.13598 -1.153319,-1.35652 -1.729582,-3.08557 -1.729582,-5.18742 0,-2.26034 0.983457,-4.83817 2.950104,-7.73218 1.604434,-2.37305 3.492236,-4.45294 5.662613,-6.23888 -0.316706,1.44701 -0.474398,2.47518 -0.474398,3.08557 0,1.40203 0.440267,2.7694 1.321858,4.10316 1.085321,1.58221 1.910027,2.75855 2.475707,3.52637 0.881591,1.33429 1.322387,2.63392 1.322387,3.89916 5.29e-4,1.87669 -0.632619,3.45916 -1.898121,4.74689 z m -0.03413,-7.23953 c -0.338931,-0.75697 -0.734748,-1.25994 -1.186921,-1.50892 0.06773,0.136 0.101865,0.32809 0.101865,0.5768 0,0.47492 -0.135467,1.15279 -0.407194,2.03438 l -0.440267,1.35652 c 0,0.7911 0.394759,1.18692 1.186392,1.18692 0.836083,0 1.254654,-0.55431 1.254654,-1.66185 0,-0.56462 -0.169333,-1.22555 -0.508529,-1.98385 z"
       id="path27"
       style="stroke-width:0.264583;fill:#000000;fill-opacity:1" />
  </g>
</svg>
